G04 #@! TF.GenerationSoftware,KiCad,Pcbnew,(5.0.0)*
G04 #@! TF.CreationDate,2019-04-11T14:41:24-07:00*
G04 #@! TF.ProjectId,USP-Board,5553502D426F6172642E6B696361645F,rev?*
G04 #@! TF.SameCoordinates,Original*
G04 #@! TF.FileFunction,Legend,Top*
G04 #@! TF.FilePolarity,Positive*
%FSLAX46Y46*%
G04 Gerber Fmt 4.6, Leading zero omitted, Abs format (unit mm)*
G04 Created by KiCad (PCBNEW (5.0.0)) date 04/11/19 14:41:24*
%MOMM*%
%LPD*%
G01*
G04 APERTURE LIST*
%ADD10C,0.200000*%
%ADD11C,0.300000*%
%ADD12C,0.120000*%
%ADD13C,0.150000*%
%ADD14C,0.100000*%
G04 APERTURE END LIST*
D10*
X132166666Y-92602380D02*
X131595238Y-92602380D01*
X131880952Y-92602380D02*
X131880952Y-91602380D01*
X131785714Y-91745238D01*
X131690476Y-91840476D01*
X131595238Y-91888095D01*
X132595238Y-92507142D02*
X132642857Y-92554761D01*
X132595238Y-92602380D01*
X132547619Y-92554761D01*
X132595238Y-92507142D01*
X132595238Y-92602380D01*
X132595238Y-91983333D02*
X132642857Y-92030952D01*
X132595238Y-92078571D01*
X132547619Y-92030952D01*
X132595238Y-91983333D01*
X132595238Y-92078571D01*
X133500000Y-91935714D02*
X133500000Y-92602380D01*
X133261904Y-91554761D02*
X133023809Y-92269047D01*
X133642857Y-92269047D01*
X134023809Y-92221428D02*
X134785714Y-92221428D01*
X135738095Y-92602380D02*
X135261904Y-92602380D01*
X135261904Y-91602380D01*
X136071428Y-92078571D02*
X136404761Y-92078571D01*
X136547619Y-92602380D02*
X136071428Y-92602380D01*
X136071428Y-91602380D01*
X136547619Y-91602380D01*
X136928571Y-92316666D02*
X137404761Y-92316666D01*
X136833333Y-92602380D02*
X137166666Y-91602380D01*
X137500000Y-92602380D01*
X137833333Y-92602380D02*
X137833333Y-91602380D01*
X138404761Y-92602380D02*
X137976190Y-92030952D01*
X138404761Y-91602380D02*
X137833333Y-92173809D01*
X132857142Y-94302380D02*
X132285714Y-94302380D01*
X132571428Y-94302380D02*
X132571428Y-93302380D01*
X132476190Y-93445238D01*
X132380952Y-93540476D01*
X132285714Y-93588095D01*
X133238095Y-93397619D02*
X133285714Y-93350000D01*
X133380952Y-93302380D01*
X133619047Y-93302380D01*
X133714285Y-93350000D01*
X133761904Y-93397619D01*
X133809523Y-93492857D01*
X133809523Y-93588095D01*
X133761904Y-93730952D01*
X133190476Y-94302380D01*
X133809523Y-94302380D01*
X134238095Y-93921428D02*
X135000000Y-93921428D01*
X135476190Y-94302380D02*
X135476190Y-93302380D01*
X135952380Y-94302380D02*
X135952380Y-93302380D01*
X136285714Y-94016666D01*
X136619047Y-93302380D01*
X136619047Y-94302380D01*
X137095238Y-93302380D02*
X137095238Y-94111904D01*
X137142857Y-94207142D01*
X137190476Y-94254761D01*
X137285714Y-94302380D01*
X137476190Y-94302380D01*
X137571428Y-94254761D01*
X137619047Y-94207142D01*
X137666666Y-94111904D01*
X137666666Y-93302380D01*
X183928571Y-91330952D02*
X183833333Y-91283333D01*
X183785714Y-91235714D01*
X183738095Y-91140476D01*
X183738095Y-91092857D01*
X183785714Y-90997619D01*
X183833333Y-90950000D01*
X183928571Y-90902380D01*
X184119047Y-90902380D01*
X184214285Y-90950000D01*
X184261904Y-90997619D01*
X184309523Y-91092857D01*
X184309523Y-91140476D01*
X184261904Y-91235714D01*
X184214285Y-91283333D01*
X184119047Y-91330952D01*
X183928571Y-91330952D01*
X183833333Y-91378571D01*
X183785714Y-91426190D01*
X183738095Y-91521428D01*
X183738095Y-91711904D01*
X183785714Y-91807142D01*
X183833333Y-91854761D01*
X183928571Y-91902380D01*
X184119047Y-91902380D01*
X184214285Y-91854761D01*
X184261904Y-91807142D01*
X184309523Y-91711904D01*
X184309523Y-91521428D01*
X184261904Y-91426190D01*
X184214285Y-91378571D01*
X184119047Y-91330952D01*
X184738095Y-91521428D02*
X185500000Y-91521428D01*
X185976190Y-91902380D02*
X185976190Y-90902380D01*
X185976190Y-91378571D02*
X186547619Y-91378571D01*
X186547619Y-91902380D02*
X186547619Y-90902380D01*
X186976190Y-91616666D02*
X187452380Y-91616666D01*
X186880952Y-91902380D02*
X187214285Y-90902380D01*
X187547619Y-91902380D01*
X188357142Y-91902380D02*
X187880952Y-91902380D01*
X187880952Y-90902380D01*
X183571428Y-92602380D02*
X184238095Y-92602380D01*
X183809523Y-93602380D01*
X184619047Y-93221428D02*
X185380952Y-93221428D01*
X185857142Y-93602380D02*
X185857142Y-92602380D01*
X186238095Y-92602380D01*
X186333333Y-92650000D01*
X186380952Y-92697619D01*
X186428571Y-92792857D01*
X186428571Y-92935714D01*
X186380952Y-93030952D01*
X186333333Y-93078571D01*
X186238095Y-93126190D01*
X185857142Y-93126190D01*
X187428571Y-93507142D02*
X187380952Y-93554761D01*
X187238095Y-93602380D01*
X187142857Y-93602380D01*
X187000000Y-93554761D01*
X186904761Y-93459523D01*
X186857142Y-93364285D01*
X186809523Y-93173809D01*
X186809523Y-93030952D01*
X186857142Y-92840476D01*
X186904761Y-92745238D01*
X187000000Y-92650000D01*
X187142857Y-92602380D01*
X187238095Y-92602380D01*
X187380952Y-92650000D01*
X187428571Y-92697619D01*
X187809523Y-93554761D02*
X187952380Y-93602380D01*
X188190476Y-93602380D01*
X188285714Y-93554761D01*
X188333333Y-93507142D01*
X188380952Y-93411904D01*
X188380952Y-93316666D01*
X188333333Y-93221428D01*
X188285714Y-93173809D01*
X188190476Y-93126190D01*
X188000000Y-93078571D01*
X187904761Y-93030952D01*
X187857142Y-92983333D01*
X187809523Y-92888095D01*
X187809523Y-92792857D01*
X187857142Y-92697619D01*
X187904761Y-92650000D01*
X188000000Y-92602380D01*
X188238095Y-92602380D01*
X188380952Y-92650000D01*
X183261904Y-95302380D02*
X183452380Y-95302380D01*
X183547619Y-95254761D01*
X183595238Y-95207142D01*
X183690476Y-95064285D01*
X183738095Y-94873809D01*
X183738095Y-94492857D01*
X183690476Y-94397619D01*
X183642857Y-94350000D01*
X183547619Y-94302380D01*
X183357142Y-94302380D01*
X183261904Y-94350000D01*
X183214285Y-94397619D01*
X183166666Y-94492857D01*
X183166666Y-94730952D01*
X183214285Y-94826190D01*
X183261904Y-94873809D01*
X183357142Y-94921428D01*
X183547619Y-94921428D01*
X183642857Y-94873809D01*
X183690476Y-94826190D01*
X183738095Y-94730952D01*
X184166666Y-94921428D02*
X184928571Y-94921428D01*
X185357142Y-95254761D02*
X185500000Y-95302380D01*
X185738095Y-95302380D01*
X185833333Y-95254761D01*
X185880952Y-95207142D01*
X185928571Y-95111904D01*
X185928571Y-95016666D01*
X185880952Y-94921428D01*
X185833333Y-94873809D01*
X185738095Y-94826190D01*
X185547619Y-94778571D01*
X185452380Y-94730952D01*
X185404761Y-94683333D01*
X185357142Y-94588095D01*
X185357142Y-94492857D01*
X185404761Y-94397619D01*
X185452380Y-94350000D01*
X185547619Y-94302380D01*
X185785714Y-94302380D01*
X185928571Y-94350000D01*
X186357142Y-94778571D02*
X186690476Y-94778571D01*
X186833333Y-95302380D02*
X186357142Y-95302380D01*
X186357142Y-94302380D01*
X186833333Y-94302380D01*
X187261904Y-95302380D02*
X187261904Y-94302380D01*
X187833333Y-95302380D01*
X187833333Y-94302380D01*
X188261904Y-95254761D02*
X188404761Y-95302380D01*
X188642857Y-95302380D01*
X188738095Y-95254761D01*
X188785714Y-95207142D01*
X188833333Y-95111904D01*
X188833333Y-95016666D01*
X188785714Y-94921428D01*
X188738095Y-94873809D01*
X188642857Y-94826190D01*
X188452380Y-94778571D01*
X188357142Y-94730952D01*
X188309523Y-94683333D01*
X188261904Y-94588095D01*
X188261904Y-94492857D01*
X188309523Y-94397619D01*
X188357142Y-94350000D01*
X188452380Y-94302380D01*
X188690476Y-94302380D01*
X188833333Y-94350000D01*
X184214285Y-96002380D02*
X184023809Y-96002380D01*
X183928571Y-96050000D01*
X183880952Y-96097619D01*
X183785714Y-96240476D01*
X183738095Y-96430952D01*
X183738095Y-96811904D01*
X183785714Y-96907142D01*
X183833333Y-96954761D01*
X183928571Y-97002380D01*
X184119047Y-97002380D01*
X184214285Y-96954761D01*
X184261904Y-96907142D01*
X184309523Y-96811904D01*
X184309523Y-96573809D01*
X184261904Y-96478571D01*
X184214285Y-96430952D01*
X184119047Y-96383333D01*
X183928571Y-96383333D01*
X183833333Y-96430952D01*
X183785714Y-96478571D01*
X183738095Y-96573809D01*
X184738095Y-96621428D02*
X185500000Y-96621428D01*
X186452380Y-97002380D02*
X185976190Y-97002380D01*
X185976190Y-96002380D01*
X186785714Y-96478571D02*
X187119047Y-96478571D01*
X187261904Y-97002380D02*
X186785714Y-97002380D01*
X186785714Y-96002380D01*
X187261904Y-96002380D01*
X187690476Y-97002380D02*
X187690476Y-96002380D01*
X187928571Y-96002380D01*
X188071428Y-96050000D01*
X188166666Y-96145238D01*
X188214285Y-96240476D01*
X188261904Y-96430952D01*
X188261904Y-96573809D01*
X188214285Y-96764285D01*
X188166666Y-96859523D01*
X188071428Y-96954761D01*
X187928571Y-97002380D01*
X187690476Y-97002380D01*
D11*
X146035714Y-98678571D02*
X145321428Y-98678571D01*
X145321428Y-97178571D01*
X146535714Y-97892857D02*
X147035714Y-97892857D01*
X147250000Y-98678571D02*
X146535714Y-98678571D01*
X146535714Y-97178571D01*
X147250000Y-97178571D01*
X147821428Y-98250000D02*
X148535714Y-98250000D01*
X147678571Y-98678571D02*
X148178571Y-97178571D01*
X148678571Y-98678571D01*
X149178571Y-98678571D02*
X149178571Y-97178571D01*
X150035714Y-98678571D02*
X149392857Y-97821428D01*
X150035714Y-97178571D02*
X149178571Y-98035714D01*
X150678571Y-98535714D02*
X150750000Y-98607142D01*
X150678571Y-98678571D01*
X150607142Y-98607142D01*
X150678571Y-98535714D01*
X150678571Y-98678571D01*
X150678571Y-98107142D02*
X150607142Y-97250000D01*
X150678571Y-97178571D01*
X150750000Y-97250000D01*
X150678571Y-98107142D01*
X150678571Y-97178571D01*
D10*
X130000000Y-135000000D02*
X130000000Y-90000000D01*
X190000000Y-135000000D02*
X130000000Y-135000000D01*
X190000000Y-90000000D02*
X190000000Y-135000000D01*
X130000000Y-90000000D02*
X190000000Y-90000000D01*
D12*
G04 #@! TO.C,J10*
X140380000Y-133305001D02*
X155620000Y-133305001D01*
X155620000Y-115275001D02*
X155610000Y-124265001D01*
X155620000Y-115275001D02*
X140380000Y-115275001D01*
X140380000Y-115275001D02*
X140380000Y-124275001D01*
X155610000Y-126605001D02*
X155620000Y-133305001D01*
X140380000Y-126595001D02*
X140380000Y-133305001D01*
G04 #@! TO.C,J11*
X174620000Y-121985001D02*
X174620000Y-115275001D01*
X159390000Y-121975001D02*
X159380000Y-115275001D01*
X174620000Y-133305001D02*
X174620000Y-124305001D01*
X159380000Y-133305001D02*
X174620000Y-133305001D01*
X159380000Y-133305001D02*
X159390000Y-124315001D01*
X174620000Y-115275001D02*
X159380000Y-115275001D01*
G04 #@! TO.C,C1*
X152379643Y-104951759D02*
X149894643Y-104951759D01*
X152379643Y-106521759D02*
X152379643Y-104951759D01*
X149894643Y-106521759D02*
X152379643Y-106521759D01*
G04 #@! TO.C,C2*
X158777446Y-111105998D02*
X156292446Y-111105998D01*
X156292446Y-111105998D02*
X156292446Y-112675998D01*
X156292446Y-112675998D02*
X158777446Y-112675998D01*
G04 #@! TO.C,C3*
X151665838Y-100681063D02*
X149180838Y-100681063D01*
X149180838Y-100681063D02*
X149180838Y-102251063D01*
X149180838Y-102251063D02*
X151665838Y-102251063D01*
G04 #@! TO.C,C4*
X144180838Y-102251063D02*
X146665838Y-102251063D01*
X144180838Y-100681063D02*
X144180838Y-102251063D01*
X146665838Y-100681063D02*
X144180838Y-100681063D01*
G04 #@! TO.C,C5*
X163977446Y-111105998D02*
X161492446Y-111105998D01*
X161492446Y-111105998D02*
X161492446Y-112675998D01*
X161492446Y-112675998D02*
X163977446Y-112675998D01*
G04 #@! TO.C,C6*
X166292446Y-112675998D02*
X168777446Y-112675998D01*
X166292446Y-111105998D02*
X166292446Y-112675998D01*
X168777446Y-111105998D02*
X166292446Y-111105998D01*
G04 #@! TO.C,D1*
X139959643Y-100936759D02*
X139959643Y-103221759D01*
X139959643Y-103221759D02*
X141429643Y-103221759D01*
X141429643Y-103221759D02*
X141429643Y-100936759D01*
G04 #@! TO.C,J1*
X137330000Y-130670000D02*
X137330000Y-132000000D01*
X136000000Y-130670000D02*
X137330000Y-130670000D01*
X134730000Y-130670000D02*
X134730000Y-133330000D01*
X134730000Y-133330000D02*
X132130000Y-133330000D01*
X134730000Y-130670000D02*
X132130000Y-130670000D01*
X132130000Y-130670000D02*
X132130000Y-133330000D01*
G04 #@! TO.C,J2*
X132130000Y-120670000D02*
X132130000Y-123330000D01*
X134730000Y-120670000D02*
X132130000Y-120670000D01*
X134730000Y-123330000D02*
X132130000Y-123330000D01*
X134730000Y-120670000D02*
X134730000Y-123330000D01*
X136000000Y-120670000D02*
X137330000Y-120670000D01*
X137330000Y-120670000D02*
X137330000Y-122000000D01*
G04 #@! TO.C,J3*
X137330000Y-125670000D02*
X137330000Y-127000000D01*
X136000000Y-125670000D02*
X137330000Y-125670000D01*
X134730000Y-125670000D02*
X134730000Y-128330000D01*
X134730000Y-128330000D02*
X132130000Y-128330000D01*
X134730000Y-125670000D02*
X132130000Y-125670000D01*
X132130000Y-125670000D02*
X132130000Y-128330000D01*
G04 #@! TO.C,J4*
X132130000Y-115670000D02*
X132130000Y-118330000D01*
X134730000Y-115670000D02*
X132130000Y-115670000D01*
X134730000Y-118330000D02*
X132130000Y-118330000D01*
X134730000Y-115670000D02*
X134730000Y-118330000D01*
X136000000Y-115670000D02*
X137330000Y-115670000D01*
X137330000Y-115670000D02*
X137330000Y-117000000D01*
D13*
G04 #@! TO.C,J5*
X189000000Y-114000000D02*
X177000000Y-114000000D01*
X177000000Y-114000000D02*
X177000000Y-98000000D01*
X177000000Y-98000000D02*
X189000000Y-98000000D01*
X189000000Y-98000000D02*
X189000000Y-114000000D01*
D12*
G04 #@! TO.C,J6*
X188330000Y-130670000D02*
X188330000Y-132000000D01*
X187000000Y-130670000D02*
X188330000Y-130670000D01*
X185730000Y-130670000D02*
X185730000Y-133330000D01*
X185730000Y-133330000D02*
X180590000Y-133330000D01*
X185730000Y-130670000D02*
X180590000Y-130670000D01*
X180590000Y-130670000D02*
X180590000Y-133330000D01*
G04 #@! TO.C,J7*
X188330000Y-120670000D02*
X188330000Y-122000000D01*
X187000000Y-120670000D02*
X188330000Y-120670000D01*
X185730000Y-120670000D02*
X185730000Y-123330000D01*
X185730000Y-123330000D02*
X178050000Y-123330000D01*
X185730000Y-120670000D02*
X178050000Y-120670000D01*
X178050000Y-120670000D02*
X178050000Y-123330000D01*
G04 #@! TO.C,J8*
X180590000Y-115670000D02*
X180590000Y-118330000D01*
X185730000Y-115670000D02*
X180590000Y-115670000D01*
X185730000Y-118330000D02*
X180590000Y-118330000D01*
X185730000Y-115670000D02*
X185730000Y-118330000D01*
X187000000Y-115670000D02*
X188330000Y-115670000D01*
X188330000Y-115670000D02*
X188330000Y-117000000D01*
G04 #@! TO.C,J9*
X178050000Y-125670000D02*
X178050000Y-128330000D01*
X185730000Y-125670000D02*
X178050000Y-125670000D01*
X185730000Y-128330000D02*
X178050000Y-128330000D01*
X185730000Y-125670000D02*
X185730000Y-128330000D01*
X187000000Y-125670000D02*
X188330000Y-125670000D01*
X188330000Y-125670000D02*
X188330000Y-127000000D01*
G04 #@! TO.C,J12*
X132050000Y-95670000D02*
X132050000Y-98330000D01*
X139730000Y-95670000D02*
X132050000Y-95670000D01*
X139730000Y-98330000D02*
X132050000Y-98330000D01*
X139730000Y-95670000D02*
X139730000Y-98330000D01*
X141000000Y-95670000D02*
X142330000Y-95670000D01*
X142330000Y-95670000D02*
X142330000Y-97000000D01*
G04 #@! TO.C,Q1*
X142274643Y-105976759D02*
X141344643Y-105976759D01*
X139114643Y-105976759D02*
X140044643Y-105976759D01*
X139114643Y-105976759D02*
X139114643Y-108136759D01*
X142274643Y-105976759D02*
X142274643Y-107436759D01*
G04 #@! TO.C,R1*
X134296707Y-109826759D02*
X133092579Y-109826759D01*
X134296707Y-111646759D02*
X133092579Y-111646759D01*
G04 #@! TO.C,R2*
X140092579Y-109826759D02*
X141296707Y-109826759D01*
X140092579Y-111646759D02*
X141296707Y-111646759D01*
G04 #@! TO.C,R3*
X134296707Y-104826759D02*
X133092579Y-104826759D01*
X134296707Y-106646759D02*
X133092579Y-106646759D01*
G04 #@! TO.C,R4*
X133092579Y-100826759D02*
X134296707Y-100826759D01*
X133092579Y-102646759D02*
X134296707Y-102646759D01*
D13*
G04 #@! TO.C,U1*
X152319643Y-111361759D02*
X152319643Y-111186759D01*
X149069643Y-111361759D02*
X149069643Y-111086759D01*
X149069643Y-108111759D02*
X149069643Y-108386759D01*
X152319643Y-108111759D02*
X152319643Y-108386759D01*
X152319643Y-111361759D02*
X149069643Y-111361759D01*
X152319643Y-108111759D02*
X149069643Y-108111759D01*
X152319643Y-111186759D02*
X153394643Y-111186759D01*
G04 #@! TO.C,U2*
X157825000Y-107375000D02*
X157850000Y-107375000D01*
X157825000Y-103225000D02*
X157930000Y-103225000D01*
X167975000Y-103225000D02*
X167870000Y-103225000D01*
X167975000Y-107375000D02*
X167870000Y-107375000D01*
X157825000Y-107375000D02*
X157825000Y-103225000D01*
X167975000Y-107375000D02*
X167975000Y-103225000D01*
X157850000Y-107375000D02*
X157850000Y-108750000D01*
D14*
G04 #@! TO.C,J13*
X157800000Y-91000000D02*
X153100000Y-91000000D01*
X153100000Y-91000000D02*
X153100000Y-92600000D01*
X157500000Y-99000000D02*
X153300000Y-99000000D01*
X153300000Y-99000000D02*
X153200000Y-99000000D01*
X153200000Y-99000000D02*
X153100000Y-99000000D01*
X153100000Y-99000000D02*
X153100000Y-95000000D01*
X167400000Y-91000000D02*
X169400000Y-93700000D01*
X167400000Y-99000000D02*
X169400000Y-96300000D01*
X169400000Y-95000000D02*
X169400000Y-93750000D01*
X169400000Y-95000000D02*
X169400000Y-96250000D01*
X165000000Y-91000000D02*
X167400000Y-91000000D01*
X162000000Y-91000000D02*
X165000000Y-91000000D01*
X165000000Y-99000000D02*
X167400000Y-99000000D01*
X161900000Y-99000000D02*
X165000000Y-99000000D01*
X169400000Y-95100000D02*
X169400000Y-94800000D01*
X153100000Y-95000000D02*
X153100000Y-92600000D01*
X157500000Y-99000000D02*
X161900000Y-99000000D01*
X157800000Y-91000000D02*
X162000000Y-91000000D01*
G04 #@! TD*
G04 #@! TO.C,J10*
D13*
X147440476Y-129717381D02*
X147440476Y-130431667D01*
X147392857Y-130574524D01*
X147297619Y-130669762D01*
X147154761Y-130717381D01*
X147059523Y-130717381D01*
X148440476Y-130717381D02*
X147869047Y-130717381D01*
X148154761Y-130717381D02*
X148154761Y-129717381D01*
X148059523Y-129860239D01*
X147964285Y-129955477D01*
X147869047Y-130003096D01*
X149059523Y-129717381D02*
X149154761Y-129717381D01*
X149250000Y-129765001D01*
X149297619Y-129812620D01*
X149345238Y-129907858D01*
X149392857Y-130098334D01*
X149392857Y-130336429D01*
X149345238Y-130526905D01*
X149297619Y-130622143D01*
X149250000Y-130669762D01*
X149154761Y-130717381D01*
X149059523Y-130717381D01*
X148964285Y-130669762D01*
X148916666Y-130622143D01*
X148869047Y-130526905D01*
X148821428Y-130336429D01*
X148821428Y-130098334D01*
X148869047Y-129907858D01*
X148916666Y-129812620D01*
X148964285Y-129765001D01*
X149059523Y-129717381D01*
G04 #@! TO.C,J11*
X165940476Y-117767381D02*
X165940476Y-118481667D01*
X165892857Y-118624524D01*
X165797619Y-118719762D01*
X165654761Y-118767381D01*
X165559523Y-118767381D01*
X166940476Y-118767381D02*
X166369047Y-118767381D01*
X166654761Y-118767381D02*
X166654761Y-117767381D01*
X166559523Y-117910239D01*
X166464285Y-118005477D01*
X166369047Y-118053096D01*
X167892857Y-118767381D02*
X167321428Y-118767381D01*
X167607142Y-118767381D02*
X167607142Y-117767381D01*
X167511904Y-117910239D01*
X167416666Y-118005477D01*
X167321428Y-118053096D01*
G04 #@! TO.C,C1*
X150527976Y-107573901D02*
X150480357Y-107621520D01*
X150337500Y-107669139D01*
X150242262Y-107669139D01*
X150099404Y-107621520D01*
X150004166Y-107526282D01*
X149956547Y-107431044D01*
X149908928Y-107240568D01*
X149908928Y-107097711D01*
X149956547Y-106907235D01*
X150004166Y-106811997D01*
X150099404Y-106716759D01*
X150242262Y-106669139D01*
X150337500Y-106669139D01*
X150480357Y-106716759D01*
X150527976Y-106764378D01*
X151480357Y-107669139D02*
X150908928Y-107669139D01*
X151194643Y-107669139D02*
X151194643Y-106669139D01*
X151099404Y-106811997D01*
X151004166Y-106907235D01*
X150908928Y-106954854D01*
G04 #@! TO.C,C2*
X157810779Y-110768140D02*
X157763160Y-110815759D01*
X157620303Y-110863378D01*
X157525065Y-110863378D01*
X157382207Y-110815759D01*
X157286969Y-110720521D01*
X157239350Y-110625283D01*
X157191731Y-110434807D01*
X157191731Y-110291950D01*
X157239350Y-110101474D01*
X157286969Y-110006236D01*
X157382207Y-109910998D01*
X157525065Y-109863378D01*
X157620303Y-109863378D01*
X157763160Y-109910998D01*
X157810779Y-109958617D01*
X158191731Y-109958617D02*
X158239350Y-109910998D01*
X158334588Y-109863378D01*
X158572684Y-109863378D01*
X158667922Y-109910998D01*
X158715541Y-109958617D01*
X158763160Y-110053855D01*
X158763160Y-110149093D01*
X158715541Y-110291950D01*
X158144112Y-110863378D01*
X158763160Y-110863378D01*
G04 #@! TO.C,C3*
X150699171Y-100343205D02*
X150651552Y-100390824D01*
X150508695Y-100438443D01*
X150413457Y-100438443D01*
X150270599Y-100390824D01*
X150175361Y-100295586D01*
X150127742Y-100200348D01*
X150080123Y-100009872D01*
X150080123Y-99867015D01*
X150127742Y-99676539D01*
X150175361Y-99581301D01*
X150270599Y-99486063D01*
X150413457Y-99438443D01*
X150508695Y-99438443D01*
X150651552Y-99486063D01*
X150699171Y-99533682D01*
X151032504Y-99438443D02*
X151651552Y-99438443D01*
X151318218Y-99819396D01*
X151461076Y-99819396D01*
X151556314Y-99867015D01*
X151603933Y-99914634D01*
X151651552Y-100009872D01*
X151651552Y-100247967D01*
X151603933Y-100343205D01*
X151556314Y-100390824D01*
X151461076Y-100438443D01*
X151175361Y-100438443D01*
X151080123Y-100390824D01*
X151032504Y-100343205D01*
G04 #@! TO.C,C4*
X145699171Y-100343205D02*
X145651552Y-100390824D01*
X145508695Y-100438443D01*
X145413457Y-100438443D01*
X145270599Y-100390824D01*
X145175361Y-100295586D01*
X145127742Y-100200348D01*
X145080123Y-100009872D01*
X145080123Y-99867015D01*
X145127742Y-99676539D01*
X145175361Y-99581301D01*
X145270599Y-99486063D01*
X145413457Y-99438443D01*
X145508695Y-99438443D01*
X145651552Y-99486063D01*
X145699171Y-99533682D01*
X146556314Y-99771777D02*
X146556314Y-100438443D01*
X146318218Y-99390824D02*
X146080123Y-100105110D01*
X146699171Y-100105110D01*
G04 #@! TO.C,C5*
X163010779Y-110768140D02*
X162963160Y-110815759D01*
X162820303Y-110863378D01*
X162725065Y-110863378D01*
X162582207Y-110815759D01*
X162486969Y-110720521D01*
X162439350Y-110625283D01*
X162391731Y-110434807D01*
X162391731Y-110291950D01*
X162439350Y-110101474D01*
X162486969Y-110006236D01*
X162582207Y-109910998D01*
X162725065Y-109863378D01*
X162820303Y-109863378D01*
X162963160Y-109910998D01*
X163010779Y-109958617D01*
X163915541Y-109863378D02*
X163439350Y-109863378D01*
X163391731Y-110339569D01*
X163439350Y-110291950D01*
X163534588Y-110244331D01*
X163772684Y-110244331D01*
X163867922Y-110291950D01*
X163915541Y-110339569D01*
X163963160Y-110434807D01*
X163963160Y-110672902D01*
X163915541Y-110768140D01*
X163867922Y-110815759D01*
X163772684Y-110863378D01*
X163534588Y-110863378D01*
X163439350Y-110815759D01*
X163391731Y-110768140D01*
G04 #@! TO.C,C6*
X167810779Y-110768140D02*
X167763160Y-110815759D01*
X167620303Y-110863378D01*
X167525065Y-110863378D01*
X167382207Y-110815759D01*
X167286969Y-110720521D01*
X167239350Y-110625283D01*
X167191731Y-110434807D01*
X167191731Y-110291950D01*
X167239350Y-110101474D01*
X167286969Y-110006236D01*
X167382207Y-109910998D01*
X167525065Y-109863378D01*
X167620303Y-109863378D01*
X167763160Y-109910998D01*
X167810779Y-109958617D01*
X168667922Y-109863378D02*
X168477446Y-109863378D01*
X168382207Y-109910998D01*
X168334588Y-109958617D01*
X168239350Y-110101474D01*
X168191731Y-110291950D01*
X168191731Y-110672902D01*
X168239350Y-110768140D01*
X168286969Y-110815759D01*
X168382207Y-110863378D01*
X168572684Y-110863378D01*
X168667922Y-110815759D01*
X168715541Y-110768140D01*
X168763160Y-110672902D01*
X168763160Y-110434807D01*
X168715541Y-110339569D01*
X168667922Y-110291950D01*
X168572684Y-110244331D01*
X168382207Y-110244331D01*
X168286969Y-110291950D01*
X168239350Y-110339569D01*
X168191731Y-110434807D01*
G04 #@! TO.C,D1*
X139717023Y-102474854D02*
X138717023Y-102474854D01*
X138717023Y-102236759D01*
X138764643Y-102093901D01*
X138859881Y-101998663D01*
X138955119Y-101951044D01*
X139145595Y-101903425D01*
X139288452Y-101903425D01*
X139478928Y-101951044D01*
X139574166Y-101998663D01*
X139669404Y-102093901D01*
X139717023Y-102236759D01*
X139717023Y-102474854D01*
X139717023Y-100951044D02*
X139717023Y-101522473D01*
X139717023Y-101236759D02*
X138717023Y-101236759D01*
X138859881Y-101331997D01*
X138955119Y-101427235D01*
X139002738Y-101522473D01*
G04 #@! TO.C,J1*
X137782380Y-132333333D02*
X138496666Y-132333333D01*
X138639523Y-132380952D01*
X138734761Y-132476190D01*
X138782380Y-132619047D01*
X138782380Y-132714285D01*
X138782380Y-131333333D02*
X138782380Y-131904761D01*
X138782380Y-131619047D02*
X137782380Y-131619047D01*
X137925238Y-131714285D01*
X138020476Y-131809523D01*
X138068095Y-131904761D01*
G04 #@! TO.C,J2*
X137782380Y-122333333D02*
X138496666Y-122333333D01*
X138639523Y-122380952D01*
X138734761Y-122476190D01*
X138782380Y-122619047D01*
X138782380Y-122714285D01*
X137877619Y-121904761D02*
X137830000Y-121857142D01*
X137782380Y-121761904D01*
X137782380Y-121523809D01*
X137830000Y-121428571D01*
X137877619Y-121380952D01*
X137972857Y-121333333D01*
X138068095Y-121333333D01*
X138210952Y-121380952D01*
X138782380Y-121952380D01*
X138782380Y-121333333D01*
G04 #@! TO.C,J3*
X137782380Y-127333333D02*
X138496666Y-127333333D01*
X138639523Y-127380952D01*
X138734761Y-127476190D01*
X138782380Y-127619047D01*
X138782380Y-127714285D01*
X137782380Y-126952380D02*
X137782380Y-126333333D01*
X138163333Y-126666666D01*
X138163333Y-126523809D01*
X138210952Y-126428571D01*
X138258571Y-126380952D01*
X138353809Y-126333333D01*
X138591904Y-126333333D01*
X138687142Y-126380952D01*
X138734761Y-126428571D01*
X138782380Y-126523809D01*
X138782380Y-126809523D01*
X138734761Y-126904761D01*
X138687142Y-126952380D01*
G04 #@! TO.C,J4*
X137782380Y-117333333D02*
X138496666Y-117333333D01*
X138639523Y-117380952D01*
X138734761Y-117476190D01*
X138782380Y-117619047D01*
X138782380Y-117714285D01*
X138115714Y-116428571D02*
X138782380Y-116428571D01*
X137734761Y-116666666D02*
X138449047Y-116904761D01*
X138449047Y-116285714D01*
G04 #@! TO.C,J5*
X175666666Y-105452380D02*
X175666666Y-106166666D01*
X175619047Y-106309523D01*
X175523809Y-106404761D01*
X175380952Y-106452380D01*
X175285714Y-106452380D01*
X176619047Y-105452380D02*
X176142857Y-105452380D01*
X176095238Y-105928571D01*
X176142857Y-105880952D01*
X176238095Y-105833333D01*
X176476190Y-105833333D01*
X176571428Y-105880952D01*
X176619047Y-105928571D01*
X176666666Y-106023809D01*
X176666666Y-106261904D01*
X176619047Y-106357142D01*
X176571428Y-106404761D01*
X176476190Y-106452380D01*
X176238095Y-106452380D01*
X176142857Y-106404761D01*
X176095238Y-106357142D01*
G04 #@! TO.C,J6*
X188782380Y-132333333D02*
X189496666Y-132333333D01*
X189639523Y-132380952D01*
X189734761Y-132476190D01*
X189782380Y-132619047D01*
X189782380Y-132714285D01*
X188782380Y-131428571D02*
X188782380Y-131619047D01*
X188830000Y-131714285D01*
X188877619Y-131761904D01*
X189020476Y-131857142D01*
X189210952Y-131904761D01*
X189591904Y-131904761D01*
X189687142Y-131857142D01*
X189734761Y-131809523D01*
X189782380Y-131714285D01*
X189782380Y-131523809D01*
X189734761Y-131428571D01*
X189687142Y-131380952D01*
X189591904Y-131333333D01*
X189353809Y-131333333D01*
X189258571Y-131380952D01*
X189210952Y-131428571D01*
X189163333Y-131523809D01*
X189163333Y-131714285D01*
X189210952Y-131809523D01*
X189258571Y-131857142D01*
X189353809Y-131904761D01*
G04 #@! TO.C,J7*
X188782380Y-122333333D02*
X189496666Y-122333333D01*
X189639523Y-122380952D01*
X189734761Y-122476190D01*
X189782380Y-122619047D01*
X189782380Y-122714285D01*
X188782380Y-121952380D02*
X188782380Y-121285714D01*
X189782380Y-121714285D01*
G04 #@! TO.C,J8*
X188782380Y-117333333D02*
X189496666Y-117333333D01*
X189639523Y-117380952D01*
X189734761Y-117476190D01*
X189782380Y-117619047D01*
X189782380Y-117714285D01*
X189210952Y-116714285D02*
X189163333Y-116809523D01*
X189115714Y-116857142D01*
X189020476Y-116904761D01*
X188972857Y-116904761D01*
X188877619Y-116857142D01*
X188830000Y-116809523D01*
X188782380Y-116714285D01*
X188782380Y-116523809D01*
X188830000Y-116428571D01*
X188877619Y-116380952D01*
X188972857Y-116333333D01*
X189020476Y-116333333D01*
X189115714Y-116380952D01*
X189163333Y-116428571D01*
X189210952Y-116523809D01*
X189210952Y-116714285D01*
X189258571Y-116809523D01*
X189306190Y-116857142D01*
X189401428Y-116904761D01*
X189591904Y-116904761D01*
X189687142Y-116857142D01*
X189734761Y-116809523D01*
X189782380Y-116714285D01*
X189782380Y-116523809D01*
X189734761Y-116428571D01*
X189687142Y-116380952D01*
X189591904Y-116333333D01*
X189401428Y-116333333D01*
X189306190Y-116380952D01*
X189258571Y-116428571D01*
X189210952Y-116523809D01*
G04 #@! TO.C,J9*
X188782380Y-127333333D02*
X189496666Y-127333333D01*
X189639523Y-127380952D01*
X189734761Y-127476190D01*
X189782380Y-127619047D01*
X189782380Y-127714285D01*
X189782380Y-126809523D02*
X189782380Y-126619047D01*
X189734761Y-126523809D01*
X189687142Y-126476190D01*
X189544285Y-126380952D01*
X189353809Y-126333333D01*
X188972857Y-126333333D01*
X188877619Y-126380952D01*
X188830000Y-126428571D01*
X188782380Y-126523809D01*
X188782380Y-126714285D01*
X188830000Y-126809523D01*
X188877619Y-126857142D01*
X188972857Y-126904761D01*
X189210952Y-126904761D01*
X189306190Y-126857142D01*
X189353809Y-126809523D01*
X189401428Y-126714285D01*
X189401428Y-126523809D01*
X189353809Y-126428571D01*
X189306190Y-126380952D01*
X189210952Y-126333333D01*
G04 #@! TO.C,J12*
X142782380Y-97809523D02*
X143496666Y-97809523D01*
X143639523Y-97857142D01*
X143734761Y-97952380D01*
X143782380Y-98095238D01*
X143782380Y-98190476D01*
X143782380Y-96809523D02*
X143782380Y-97380952D01*
X143782380Y-97095238D02*
X142782380Y-97095238D01*
X142925238Y-97190476D01*
X143020476Y-97285714D01*
X143068095Y-97380952D01*
X142877619Y-96428571D02*
X142830000Y-96380952D01*
X142782380Y-96285714D01*
X142782380Y-96047619D01*
X142830000Y-95952380D01*
X142877619Y-95904761D01*
X142972857Y-95857142D01*
X143068095Y-95857142D01*
X143210952Y-95904761D01*
X143782380Y-96476190D01*
X143782380Y-95857142D01*
G04 #@! TO.C,Q1*
X138742262Y-106831997D02*
X138694643Y-106927235D01*
X138599404Y-107022473D01*
X138456547Y-107165330D01*
X138408928Y-107260568D01*
X138408928Y-107355806D01*
X138647023Y-107308187D02*
X138599404Y-107403425D01*
X138504166Y-107498663D01*
X138313690Y-107546282D01*
X137980357Y-107546282D01*
X137789881Y-107498663D01*
X137694643Y-107403425D01*
X137647023Y-107308187D01*
X137647023Y-107117711D01*
X137694643Y-107022473D01*
X137789881Y-106927235D01*
X137980357Y-106879616D01*
X138313690Y-106879616D01*
X138504166Y-106927235D01*
X138599404Y-107022473D01*
X138647023Y-107117711D01*
X138647023Y-107308187D01*
X138647023Y-105927235D02*
X138647023Y-106498663D01*
X138647023Y-106212949D02*
X137647023Y-106212949D01*
X137789881Y-106308187D01*
X137885119Y-106403425D01*
X137932738Y-106498663D01*
G04 #@! TO.C,R1*
X133527976Y-113009139D02*
X133194643Y-112532949D01*
X132956547Y-113009139D02*
X132956547Y-112009139D01*
X133337500Y-112009139D01*
X133432738Y-112056759D01*
X133480357Y-112104378D01*
X133527976Y-112199616D01*
X133527976Y-112342473D01*
X133480357Y-112437711D01*
X133432738Y-112485330D01*
X133337500Y-112532949D01*
X132956547Y-112532949D01*
X134480357Y-113009139D02*
X133908928Y-113009139D01*
X134194643Y-113009139D02*
X134194643Y-112009139D01*
X134099404Y-112151997D01*
X134004166Y-112247235D01*
X133908928Y-112294854D01*
G04 #@! TO.C,R2*
X140527976Y-109369139D02*
X140194643Y-108892949D01*
X139956547Y-109369139D02*
X139956547Y-108369139D01*
X140337500Y-108369139D01*
X140432738Y-108416759D01*
X140480357Y-108464378D01*
X140527976Y-108559616D01*
X140527976Y-108702473D01*
X140480357Y-108797711D01*
X140432738Y-108845330D01*
X140337500Y-108892949D01*
X139956547Y-108892949D01*
X140908928Y-108464378D02*
X140956547Y-108416759D01*
X141051785Y-108369139D01*
X141289881Y-108369139D01*
X141385119Y-108416759D01*
X141432738Y-108464378D01*
X141480357Y-108559616D01*
X141480357Y-108654854D01*
X141432738Y-108797711D01*
X140861309Y-109369139D01*
X141480357Y-109369139D01*
G04 #@! TO.C,R3*
X133527976Y-108009139D02*
X133194643Y-107532949D01*
X132956547Y-108009139D02*
X132956547Y-107009139D01*
X133337500Y-107009139D01*
X133432738Y-107056759D01*
X133480357Y-107104378D01*
X133527976Y-107199616D01*
X133527976Y-107342473D01*
X133480357Y-107437711D01*
X133432738Y-107485330D01*
X133337500Y-107532949D01*
X132956547Y-107532949D01*
X133861309Y-107009139D02*
X134480357Y-107009139D01*
X134147023Y-107390092D01*
X134289881Y-107390092D01*
X134385119Y-107437711D01*
X134432738Y-107485330D01*
X134480357Y-107580568D01*
X134480357Y-107818663D01*
X134432738Y-107913901D01*
X134385119Y-107961520D01*
X134289881Y-108009139D01*
X134004166Y-108009139D01*
X133908928Y-107961520D01*
X133861309Y-107913901D01*
G04 #@! TO.C,R4*
X133527976Y-100369139D02*
X133194643Y-99892949D01*
X132956547Y-100369139D02*
X132956547Y-99369139D01*
X133337500Y-99369139D01*
X133432738Y-99416759D01*
X133480357Y-99464378D01*
X133527976Y-99559616D01*
X133527976Y-99702473D01*
X133480357Y-99797711D01*
X133432738Y-99845330D01*
X133337500Y-99892949D01*
X132956547Y-99892949D01*
X134385119Y-99702473D02*
X134385119Y-100369139D01*
X134147023Y-99321520D02*
X133908928Y-100035806D01*
X134527976Y-100035806D01*
G04 #@! TO.C,U1*
X149932738Y-111739139D02*
X149932738Y-112548663D01*
X149980357Y-112643901D01*
X150027976Y-112691520D01*
X150123214Y-112739139D01*
X150313690Y-112739139D01*
X150408928Y-112691520D01*
X150456547Y-112643901D01*
X150504166Y-112548663D01*
X150504166Y-111739139D01*
X151504166Y-112739139D02*
X150932738Y-112739139D01*
X151218452Y-112739139D02*
X151218452Y-111739139D01*
X151123214Y-111881997D01*
X151027976Y-111977235D01*
X150932738Y-112024854D01*
G04 #@! TO.C,U2*
X156352380Y-106061904D02*
X157161904Y-106061904D01*
X157257142Y-106014285D01*
X157304761Y-105966666D01*
X157352380Y-105871428D01*
X157352380Y-105680952D01*
X157304761Y-105585714D01*
X157257142Y-105538095D01*
X157161904Y-105490476D01*
X156352380Y-105490476D01*
X156447619Y-105061904D02*
X156400000Y-105014285D01*
X156352380Y-104919047D01*
X156352380Y-104680952D01*
X156400000Y-104585714D01*
X156447619Y-104538095D01*
X156542857Y-104490476D01*
X156638095Y-104490476D01*
X156780952Y-104538095D01*
X157352380Y-105109523D01*
X157352380Y-104490476D01*
G04 #@! TO.C,J13*
X160634476Y-88356380D02*
X160634476Y-89070666D01*
X160586857Y-89213523D01*
X160491619Y-89308761D01*
X160348761Y-89356380D01*
X160253523Y-89356380D01*
X161634476Y-89356380D02*
X161063047Y-89356380D01*
X161348761Y-89356380D02*
X161348761Y-88356380D01*
X161253523Y-88499238D01*
X161158285Y-88594476D01*
X161063047Y-88642095D01*
X161967809Y-88356380D02*
X162586857Y-88356380D01*
X162253523Y-88737333D01*
X162396380Y-88737333D01*
X162491619Y-88784952D01*
X162539238Y-88832571D01*
X162586857Y-88927809D01*
X162586857Y-89165904D01*
X162539238Y-89261142D01*
X162491619Y-89308761D01*
X162396380Y-89356380D01*
X162110666Y-89356380D01*
X162015428Y-89308761D01*
X161967809Y-89261142D01*
G04 #@! TD*
M02*
