M48
;DRILL file {KiCad (5.0.0)} date 04/11/19 14:42:25
;FORMAT={-:-/ absolute / inch / decimal}
FMAT,2
INCH,TZ
T1C0.0157
T2C0.0354
T3C0.0394
T4C0.1772
%
G90
G05
M72
T1
X5.1811Y-4.2402
X5.5512Y-4.0906
X5.622Y-4.4646
X5.7205Y-4.1654
X5.8425Y-3.9409
X6.0591Y-4.
X6.0945Y-4.2559
X6.0984Y-4.3228
X6.2362Y-3.9567
X6.2874Y-3.9528
X6.5197Y-4.4016
T2
X6.4Y-5.1982
X6.45Y-5.0982
X6.5Y-5.1982
X6.55Y-5.0982
X6.6Y-5.1982
X6.65Y-5.0982
X6.7Y-5.1982
X6.75Y-5.0982
X5.6516Y-4.6884
X5.7016Y-4.5884
X5.7516Y-4.6884
X5.8016Y-4.5884
X5.8516Y-4.6884
X5.9016Y-4.5884
X5.9516Y-4.6884
X6.0016Y-4.5884
T3
X7.1622Y-5.1969
X7.2622Y-5.1969
X7.3622Y-5.1969
X5.2543Y-4.6063
X5.3543Y-4.6063
X5.2543Y-5.1969
X5.3543Y-5.1969
X5.2543Y-5.
X5.3543Y-5.
X5.2512Y-3.8189
X5.3512Y-3.8189
X5.4512Y-3.8189
X5.5512Y-3.8189
X7.0622Y-4.8031
X7.1622Y-4.8031
X7.2622Y-4.8031
X7.3622Y-4.8031
X5.2543Y-4.8031
X5.3543Y-4.8031
X7.1622Y-4.6063
X7.2622Y-4.6063
X7.3622Y-4.6063
X7.0622Y-5.
X7.1622Y-5.
X7.2622Y-5.
X7.3622Y-5.
T4
X6.2008Y-3.7402
X6.4961Y-3.7402
T0
M30
