G04 #@! TF.GenerationSoftware,KiCad,Pcbnew,(5.0.0)*
G04 #@! TF.CreationDate,2019-04-11T14:41:24-07:00*
G04 #@! TF.ProjectId,USP-Board,5553502D426F6172642E6B696361645F,rev?*
G04 #@! TF.SameCoordinates,Original*
G04 #@! TF.FileFunction,Soldermask,Bot*
G04 #@! TF.FilePolarity,Negative*
%FSLAX46Y46*%
G04 Gerber Fmt 4.6, Leading zero omitted, Abs format (unit mm)*
G04 Created by KiCad (PCBNEW (5.0.0)) date 04/11/19 14:41:24*
%MOMM*%
%LPD*%
G01*
G04 APERTURE LIST*
%ADD10C,0.200000*%
%ADD11C,0.150000*%
G04 APERTURE END LIST*
D10*
X130000000Y-135000000D02*
X130000000Y-90000000D01*
X190000000Y-135000000D02*
X130000000Y-135000000D01*
X190000000Y-90000000D02*
X190000000Y-135000000D01*
X130000000Y-90000000D02*
X190000000Y-90000000D01*
D11*
G36*
X187901000Y-132901000D02*
X186099000Y-132901000D01*
X186099000Y-131099000D01*
X187901000Y-131099000D01*
X187901000Y-132901000D01*
X187901000Y-132901000D01*
G37*
G36*
X133570442Y-131105518D02*
X133636627Y-131112037D01*
X133749853Y-131146384D01*
X133806467Y-131163557D01*
X133938256Y-131234001D01*
X133962991Y-131247222D01*
X133984389Y-131264783D01*
X134100186Y-131359814D01*
X134183448Y-131461271D01*
X134212778Y-131497009D01*
X134212779Y-131497011D01*
X134296443Y-131653533D01*
X134313616Y-131710147D01*
X134347963Y-131823373D01*
X134365359Y-132000000D01*
X134347963Y-132176627D01*
X134320050Y-132268644D01*
X134296443Y-132346467D01*
X134260123Y-132414416D01*
X134212778Y-132502991D01*
X134183448Y-132538729D01*
X134100186Y-132640186D01*
X133998729Y-132723448D01*
X133962991Y-132752778D01*
X133962989Y-132752779D01*
X133806467Y-132836443D01*
X133749853Y-132853616D01*
X133636627Y-132887963D01*
X133570443Y-132894481D01*
X133504260Y-132901000D01*
X133415740Y-132901000D01*
X133349557Y-132894481D01*
X133283373Y-132887963D01*
X133170147Y-132853616D01*
X133113533Y-132836443D01*
X132957011Y-132752779D01*
X132957009Y-132752778D01*
X132921271Y-132723448D01*
X132819814Y-132640186D01*
X132736552Y-132538729D01*
X132707222Y-132502991D01*
X132659877Y-132414416D01*
X132623557Y-132346467D01*
X132599950Y-132268644D01*
X132572037Y-132176627D01*
X132554641Y-132000000D01*
X132572037Y-131823373D01*
X132606384Y-131710147D01*
X132623557Y-131653533D01*
X132707221Y-131497011D01*
X132707222Y-131497009D01*
X132736552Y-131461271D01*
X132819814Y-131359814D01*
X132935611Y-131264783D01*
X132957009Y-131247222D01*
X132981744Y-131234001D01*
X133113533Y-131163557D01*
X133170147Y-131146384D01*
X133283373Y-131112037D01*
X133349558Y-131105518D01*
X133415740Y-131099000D01*
X133504260Y-131099000D01*
X133570442Y-131105518D01*
X133570442Y-131105518D01*
G37*
G36*
X136901000Y-132901000D02*
X135099000Y-132901000D01*
X135099000Y-131099000D01*
X136901000Y-131099000D01*
X136901000Y-132901000D01*
X136901000Y-132901000D01*
G37*
G36*
X182030442Y-131105518D02*
X182096627Y-131112037D01*
X182209853Y-131146384D01*
X182266467Y-131163557D01*
X182398256Y-131234001D01*
X182422991Y-131247222D01*
X182444389Y-131264783D01*
X182560186Y-131359814D01*
X182643448Y-131461271D01*
X182672778Y-131497009D01*
X182672779Y-131497011D01*
X182756443Y-131653533D01*
X182773616Y-131710147D01*
X182807963Y-131823373D01*
X182825359Y-132000000D01*
X182807963Y-132176627D01*
X182780050Y-132268644D01*
X182756443Y-132346467D01*
X182720123Y-132414416D01*
X182672778Y-132502991D01*
X182643448Y-132538729D01*
X182560186Y-132640186D01*
X182458729Y-132723448D01*
X182422991Y-132752778D01*
X182422989Y-132752779D01*
X182266467Y-132836443D01*
X182209853Y-132853616D01*
X182096627Y-132887963D01*
X182030443Y-132894481D01*
X181964260Y-132901000D01*
X181875740Y-132901000D01*
X181809557Y-132894481D01*
X181743373Y-132887963D01*
X181630147Y-132853616D01*
X181573533Y-132836443D01*
X181417011Y-132752779D01*
X181417009Y-132752778D01*
X181381271Y-132723448D01*
X181279814Y-132640186D01*
X181196552Y-132538729D01*
X181167222Y-132502991D01*
X181119877Y-132414416D01*
X181083557Y-132346467D01*
X181059950Y-132268644D01*
X181032037Y-132176627D01*
X181014641Y-132000000D01*
X181032037Y-131823373D01*
X181066384Y-131710147D01*
X181083557Y-131653533D01*
X181167221Y-131497011D01*
X181167222Y-131497009D01*
X181196552Y-131461271D01*
X181279814Y-131359814D01*
X181395611Y-131264783D01*
X181417009Y-131247222D01*
X181441744Y-131234001D01*
X181573533Y-131163557D01*
X181630147Y-131146384D01*
X181743373Y-131112037D01*
X181809558Y-131105518D01*
X181875740Y-131099000D01*
X181964260Y-131099000D01*
X182030442Y-131105518D01*
X182030442Y-131105518D01*
G37*
G36*
X184570442Y-131105518D02*
X184636627Y-131112037D01*
X184749853Y-131146384D01*
X184806467Y-131163557D01*
X184938256Y-131234001D01*
X184962991Y-131247222D01*
X184984389Y-131264783D01*
X185100186Y-131359814D01*
X185183448Y-131461271D01*
X185212778Y-131497009D01*
X185212779Y-131497011D01*
X185296443Y-131653533D01*
X185313616Y-131710147D01*
X185347963Y-131823373D01*
X185365359Y-132000000D01*
X185347963Y-132176627D01*
X185320050Y-132268644D01*
X185296443Y-132346467D01*
X185260123Y-132414416D01*
X185212778Y-132502991D01*
X185183448Y-132538729D01*
X185100186Y-132640186D01*
X184998729Y-132723448D01*
X184962991Y-132752778D01*
X184962989Y-132752779D01*
X184806467Y-132836443D01*
X184749853Y-132853616D01*
X184636627Y-132887963D01*
X184570443Y-132894481D01*
X184504260Y-132901000D01*
X184415740Y-132901000D01*
X184349557Y-132894481D01*
X184283373Y-132887963D01*
X184170147Y-132853616D01*
X184113533Y-132836443D01*
X183957011Y-132752779D01*
X183957009Y-132752778D01*
X183921271Y-132723448D01*
X183819814Y-132640186D01*
X183736552Y-132538729D01*
X183707222Y-132502991D01*
X183659877Y-132414416D01*
X183623557Y-132346467D01*
X183599950Y-132268644D01*
X183572037Y-132176627D01*
X183554641Y-132000000D01*
X183572037Y-131823373D01*
X183606384Y-131710147D01*
X183623557Y-131653533D01*
X183707221Y-131497011D01*
X183707222Y-131497009D01*
X183736552Y-131461271D01*
X183819814Y-131359814D01*
X183935611Y-131264783D01*
X183957009Y-131247222D01*
X183981744Y-131234001D01*
X184113533Y-131163557D01*
X184170147Y-131146384D01*
X184283373Y-131112037D01*
X184349558Y-131105518D01*
X184415740Y-131099000D01*
X184504260Y-131099000D01*
X184570442Y-131105518D01*
X184570442Y-131105518D01*
G37*
G36*
X162793643Y-131264782D02*
X162939415Y-131325163D01*
X163070611Y-131412825D01*
X163182176Y-131524390D01*
X163269838Y-131655586D01*
X163330219Y-131801358D01*
X163361000Y-131956108D01*
X163361000Y-132113894D01*
X163330219Y-132268644D01*
X163269838Y-132414416D01*
X163182176Y-132545612D01*
X163070611Y-132657177D01*
X162939415Y-132744839D01*
X162793643Y-132805220D01*
X162638893Y-132836001D01*
X162481107Y-132836001D01*
X162326357Y-132805220D01*
X162180585Y-132744839D01*
X162049389Y-132657177D01*
X161937824Y-132545612D01*
X161850162Y-132414416D01*
X161789781Y-132268644D01*
X161759000Y-132113894D01*
X161759000Y-131956108D01*
X161789781Y-131801358D01*
X161850162Y-131655586D01*
X161937824Y-131524390D01*
X162049389Y-131412825D01*
X162180585Y-131325163D01*
X162326357Y-131264782D01*
X162481107Y-131234001D01*
X162638893Y-131234001D01*
X162793643Y-131264782D01*
X162793643Y-131264782D01*
G37*
G36*
X165333643Y-131264782D02*
X165479415Y-131325163D01*
X165610611Y-131412825D01*
X165722176Y-131524390D01*
X165809838Y-131655586D01*
X165870219Y-131801358D01*
X165901000Y-131956108D01*
X165901000Y-132113894D01*
X165870219Y-132268644D01*
X165809838Y-132414416D01*
X165722176Y-132545612D01*
X165610611Y-132657177D01*
X165479415Y-132744839D01*
X165333643Y-132805220D01*
X165178893Y-132836001D01*
X165021107Y-132836001D01*
X164866357Y-132805220D01*
X164720585Y-132744839D01*
X164589389Y-132657177D01*
X164477824Y-132545612D01*
X164390162Y-132414416D01*
X164329781Y-132268644D01*
X164299000Y-132113894D01*
X164299000Y-131956108D01*
X164329781Y-131801358D01*
X164390162Y-131655586D01*
X164477824Y-131524390D01*
X164589389Y-131412825D01*
X164720585Y-131325163D01*
X164866357Y-131264782D01*
X165021107Y-131234001D01*
X165178893Y-131234001D01*
X165333643Y-131264782D01*
X165333643Y-131264782D01*
G37*
G36*
X167873643Y-131264782D02*
X168019415Y-131325163D01*
X168150611Y-131412825D01*
X168262176Y-131524390D01*
X168349838Y-131655586D01*
X168410219Y-131801358D01*
X168441000Y-131956108D01*
X168441000Y-132113894D01*
X168410219Y-132268644D01*
X168349838Y-132414416D01*
X168262176Y-132545612D01*
X168150611Y-132657177D01*
X168019415Y-132744839D01*
X167873643Y-132805220D01*
X167718893Y-132836001D01*
X167561107Y-132836001D01*
X167406357Y-132805220D01*
X167260585Y-132744839D01*
X167129389Y-132657177D01*
X167017824Y-132545612D01*
X166930162Y-132414416D01*
X166869781Y-132268644D01*
X166839000Y-132113894D01*
X166839000Y-131956108D01*
X166869781Y-131801358D01*
X166930162Y-131655586D01*
X167017824Y-131524390D01*
X167129389Y-131412825D01*
X167260585Y-131325163D01*
X167406357Y-131264782D01*
X167561107Y-131234001D01*
X167718893Y-131234001D01*
X167873643Y-131264782D01*
X167873643Y-131264782D01*
G37*
G36*
X170413643Y-131264782D02*
X170559415Y-131325163D01*
X170690611Y-131412825D01*
X170802176Y-131524390D01*
X170889838Y-131655586D01*
X170950219Y-131801358D01*
X170981000Y-131956108D01*
X170981000Y-132113894D01*
X170950219Y-132268644D01*
X170889838Y-132414416D01*
X170802176Y-132545612D01*
X170690611Y-132657177D01*
X170559415Y-132744839D01*
X170413643Y-132805220D01*
X170258893Y-132836001D01*
X170101107Y-132836001D01*
X169946357Y-132805220D01*
X169800585Y-132744839D01*
X169669389Y-132657177D01*
X169557824Y-132545612D01*
X169470162Y-132414416D01*
X169409781Y-132268644D01*
X169379000Y-132113894D01*
X169379000Y-131956108D01*
X169409781Y-131801358D01*
X169470162Y-131655586D01*
X169557824Y-131524390D01*
X169669389Y-131412825D01*
X169800585Y-131325163D01*
X169946357Y-131264782D01*
X170101107Y-131234001D01*
X170258893Y-131234001D01*
X170413643Y-131264782D01*
X170413643Y-131264782D01*
G37*
G36*
X164063643Y-128724782D02*
X164209415Y-128785163D01*
X164340611Y-128872825D01*
X164452176Y-128984390D01*
X164539838Y-129115586D01*
X164600219Y-129261358D01*
X164631000Y-129416108D01*
X164631000Y-129573894D01*
X164600219Y-129728644D01*
X164539838Y-129874416D01*
X164452176Y-130005612D01*
X164340611Y-130117177D01*
X164209415Y-130204839D01*
X164063643Y-130265220D01*
X163908893Y-130296001D01*
X163751107Y-130296001D01*
X163596357Y-130265220D01*
X163450585Y-130204839D01*
X163319389Y-130117177D01*
X163207824Y-130005612D01*
X163120162Y-129874416D01*
X163059781Y-129728644D01*
X163029000Y-129573894D01*
X163029000Y-129416108D01*
X163059781Y-129261358D01*
X163120162Y-129115586D01*
X163207824Y-128984390D01*
X163319389Y-128872825D01*
X163450585Y-128785163D01*
X163596357Y-128724782D01*
X163751107Y-128694001D01*
X163908893Y-128694001D01*
X164063643Y-128724782D01*
X164063643Y-128724782D01*
G37*
G36*
X172251000Y-130296001D02*
X170649000Y-130296001D01*
X170649000Y-128694001D01*
X172251000Y-128694001D01*
X172251000Y-130296001D01*
X172251000Y-130296001D01*
G37*
G36*
X166603643Y-128724782D02*
X166749415Y-128785163D01*
X166880611Y-128872825D01*
X166992176Y-128984390D01*
X167079838Y-129115586D01*
X167140219Y-129261358D01*
X167171000Y-129416108D01*
X167171000Y-129573894D01*
X167140219Y-129728644D01*
X167079838Y-129874416D01*
X166992176Y-130005612D01*
X166880611Y-130117177D01*
X166749415Y-130204839D01*
X166603643Y-130265220D01*
X166448893Y-130296001D01*
X166291107Y-130296001D01*
X166136357Y-130265220D01*
X165990585Y-130204839D01*
X165859389Y-130117177D01*
X165747824Y-130005612D01*
X165660162Y-129874416D01*
X165599781Y-129728644D01*
X165569000Y-129573894D01*
X165569000Y-129416108D01*
X165599781Y-129261358D01*
X165660162Y-129115586D01*
X165747824Y-128984390D01*
X165859389Y-128872825D01*
X165990585Y-128785163D01*
X166136357Y-128724782D01*
X166291107Y-128694001D01*
X166448893Y-128694001D01*
X166603643Y-128724782D01*
X166603643Y-128724782D01*
G37*
G36*
X169143643Y-128724782D02*
X169289415Y-128785163D01*
X169420611Y-128872825D01*
X169532176Y-128984390D01*
X169619838Y-129115586D01*
X169680219Y-129261358D01*
X169711000Y-129416108D01*
X169711000Y-129573894D01*
X169680219Y-129728644D01*
X169619838Y-129874416D01*
X169532176Y-130005612D01*
X169420611Y-130117177D01*
X169289415Y-130204839D01*
X169143643Y-130265220D01*
X168988893Y-130296001D01*
X168831107Y-130296001D01*
X168676357Y-130265220D01*
X168530585Y-130204839D01*
X168399389Y-130117177D01*
X168287824Y-130005612D01*
X168200162Y-129874416D01*
X168139781Y-129728644D01*
X168109000Y-129573894D01*
X168109000Y-129416108D01*
X168139781Y-129261358D01*
X168200162Y-129115586D01*
X168287824Y-128984390D01*
X168399389Y-128872825D01*
X168530585Y-128785163D01*
X168676357Y-128724782D01*
X168831107Y-128694001D01*
X168988893Y-128694001D01*
X169143643Y-128724782D01*
X169143643Y-128724782D01*
G37*
G36*
X133570443Y-126105519D02*
X133636627Y-126112037D01*
X133749853Y-126146384D01*
X133806467Y-126163557D01*
X133945087Y-126237652D01*
X133962991Y-126247222D01*
X133998729Y-126276552D01*
X134100186Y-126359814D01*
X134183448Y-126461271D01*
X134212778Y-126497009D01*
X134212779Y-126497011D01*
X134296443Y-126653533D01*
X134296443Y-126653534D01*
X134347963Y-126823373D01*
X134365359Y-127000000D01*
X134347963Y-127176627D01*
X134329070Y-127238908D01*
X134296443Y-127346467D01*
X134222348Y-127485087D01*
X134212778Y-127502991D01*
X134183448Y-127538729D01*
X134100186Y-127640186D01*
X133998729Y-127723448D01*
X133962991Y-127752778D01*
X133962989Y-127752779D01*
X133806467Y-127836443D01*
X133749853Y-127853616D01*
X133636627Y-127887963D01*
X133570442Y-127894482D01*
X133504260Y-127901000D01*
X133415740Y-127901000D01*
X133349558Y-127894482D01*
X133283373Y-127887963D01*
X133170147Y-127853616D01*
X133113533Y-127836443D01*
X132957011Y-127752779D01*
X132957009Y-127752778D01*
X132921271Y-127723448D01*
X132819814Y-127640186D01*
X132736552Y-127538729D01*
X132707222Y-127502991D01*
X132697652Y-127485087D01*
X132623557Y-127346467D01*
X132590930Y-127238908D01*
X132572037Y-127176627D01*
X132554641Y-127000000D01*
X132572037Y-126823373D01*
X132623557Y-126653534D01*
X132623557Y-126653533D01*
X132707221Y-126497011D01*
X132707222Y-126497009D01*
X132736552Y-126461271D01*
X132819814Y-126359814D01*
X132921271Y-126276552D01*
X132957009Y-126247222D01*
X132974913Y-126237652D01*
X133113533Y-126163557D01*
X133170147Y-126146384D01*
X133283373Y-126112037D01*
X133349557Y-126105519D01*
X133415740Y-126099000D01*
X133504260Y-126099000D01*
X133570443Y-126105519D01*
X133570443Y-126105519D01*
G37*
G36*
X179490443Y-126105519D02*
X179556627Y-126112037D01*
X179669853Y-126146384D01*
X179726467Y-126163557D01*
X179865087Y-126237652D01*
X179882991Y-126247222D01*
X179918729Y-126276552D01*
X180020186Y-126359814D01*
X180103448Y-126461271D01*
X180132778Y-126497009D01*
X180132779Y-126497011D01*
X180216443Y-126653533D01*
X180216443Y-126653534D01*
X180267963Y-126823373D01*
X180285359Y-127000000D01*
X180267963Y-127176627D01*
X180249070Y-127238908D01*
X180216443Y-127346467D01*
X180142348Y-127485087D01*
X180132778Y-127502991D01*
X180103448Y-127538729D01*
X180020186Y-127640186D01*
X179918729Y-127723448D01*
X179882991Y-127752778D01*
X179882989Y-127752779D01*
X179726467Y-127836443D01*
X179669853Y-127853616D01*
X179556627Y-127887963D01*
X179490442Y-127894482D01*
X179424260Y-127901000D01*
X179335740Y-127901000D01*
X179269558Y-127894482D01*
X179203373Y-127887963D01*
X179090147Y-127853616D01*
X179033533Y-127836443D01*
X178877011Y-127752779D01*
X178877009Y-127752778D01*
X178841271Y-127723448D01*
X178739814Y-127640186D01*
X178656552Y-127538729D01*
X178627222Y-127502991D01*
X178617652Y-127485087D01*
X178543557Y-127346467D01*
X178510930Y-127238908D01*
X178492037Y-127176627D01*
X178474641Y-127000000D01*
X178492037Y-126823373D01*
X178543557Y-126653534D01*
X178543557Y-126653533D01*
X178627221Y-126497011D01*
X178627222Y-126497009D01*
X178656552Y-126461271D01*
X178739814Y-126359814D01*
X178841271Y-126276552D01*
X178877009Y-126247222D01*
X178894913Y-126237652D01*
X179033533Y-126163557D01*
X179090147Y-126146384D01*
X179203373Y-126112037D01*
X179269557Y-126105519D01*
X179335740Y-126099000D01*
X179424260Y-126099000D01*
X179490443Y-126105519D01*
X179490443Y-126105519D01*
G37*
G36*
X182030443Y-126105519D02*
X182096627Y-126112037D01*
X182209853Y-126146384D01*
X182266467Y-126163557D01*
X182405087Y-126237652D01*
X182422991Y-126247222D01*
X182458729Y-126276552D01*
X182560186Y-126359814D01*
X182643448Y-126461271D01*
X182672778Y-126497009D01*
X182672779Y-126497011D01*
X182756443Y-126653533D01*
X182756443Y-126653534D01*
X182807963Y-126823373D01*
X182825359Y-127000000D01*
X182807963Y-127176627D01*
X182789070Y-127238908D01*
X182756443Y-127346467D01*
X182682348Y-127485087D01*
X182672778Y-127502991D01*
X182643448Y-127538729D01*
X182560186Y-127640186D01*
X182458729Y-127723448D01*
X182422991Y-127752778D01*
X182422989Y-127752779D01*
X182266467Y-127836443D01*
X182209853Y-127853616D01*
X182096627Y-127887963D01*
X182030442Y-127894482D01*
X181964260Y-127901000D01*
X181875740Y-127901000D01*
X181809558Y-127894482D01*
X181743373Y-127887963D01*
X181630147Y-127853616D01*
X181573533Y-127836443D01*
X181417011Y-127752779D01*
X181417009Y-127752778D01*
X181381271Y-127723448D01*
X181279814Y-127640186D01*
X181196552Y-127538729D01*
X181167222Y-127502991D01*
X181157652Y-127485087D01*
X181083557Y-127346467D01*
X181050930Y-127238908D01*
X181032037Y-127176627D01*
X181014641Y-127000000D01*
X181032037Y-126823373D01*
X181083557Y-126653534D01*
X181083557Y-126653533D01*
X181167221Y-126497011D01*
X181167222Y-126497009D01*
X181196552Y-126461271D01*
X181279814Y-126359814D01*
X181381271Y-126276552D01*
X181417009Y-126247222D01*
X181434913Y-126237652D01*
X181573533Y-126163557D01*
X181630147Y-126146384D01*
X181743373Y-126112037D01*
X181809557Y-126105519D01*
X181875740Y-126099000D01*
X181964260Y-126099000D01*
X182030443Y-126105519D01*
X182030443Y-126105519D01*
G37*
G36*
X184570443Y-126105519D02*
X184636627Y-126112037D01*
X184749853Y-126146384D01*
X184806467Y-126163557D01*
X184945087Y-126237652D01*
X184962991Y-126247222D01*
X184998729Y-126276552D01*
X185100186Y-126359814D01*
X185183448Y-126461271D01*
X185212778Y-126497009D01*
X185212779Y-126497011D01*
X185296443Y-126653533D01*
X185296443Y-126653534D01*
X185347963Y-126823373D01*
X185365359Y-127000000D01*
X185347963Y-127176627D01*
X185329070Y-127238908D01*
X185296443Y-127346467D01*
X185222348Y-127485087D01*
X185212778Y-127502991D01*
X185183448Y-127538729D01*
X185100186Y-127640186D01*
X184998729Y-127723448D01*
X184962991Y-127752778D01*
X184962989Y-127752779D01*
X184806467Y-127836443D01*
X184749853Y-127853616D01*
X184636627Y-127887963D01*
X184570442Y-127894482D01*
X184504260Y-127901000D01*
X184415740Y-127901000D01*
X184349558Y-127894482D01*
X184283373Y-127887963D01*
X184170147Y-127853616D01*
X184113533Y-127836443D01*
X183957011Y-127752779D01*
X183957009Y-127752778D01*
X183921271Y-127723448D01*
X183819814Y-127640186D01*
X183736552Y-127538729D01*
X183707222Y-127502991D01*
X183697652Y-127485087D01*
X183623557Y-127346467D01*
X183590930Y-127238908D01*
X183572037Y-127176627D01*
X183554641Y-127000000D01*
X183572037Y-126823373D01*
X183623557Y-126653534D01*
X183623557Y-126653533D01*
X183707221Y-126497011D01*
X183707222Y-126497009D01*
X183736552Y-126461271D01*
X183819814Y-126359814D01*
X183921271Y-126276552D01*
X183957009Y-126247222D01*
X183974913Y-126237652D01*
X184113533Y-126163557D01*
X184170147Y-126146384D01*
X184283373Y-126112037D01*
X184349557Y-126105519D01*
X184415740Y-126099000D01*
X184504260Y-126099000D01*
X184570443Y-126105519D01*
X184570443Y-126105519D01*
G37*
G36*
X136901000Y-127901000D02*
X135099000Y-127901000D01*
X135099000Y-126099000D01*
X136901000Y-126099000D01*
X136901000Y-127901000D01*
X136901000Y-127901000D01*
G37*
G36*
X187901000Y-127901000D02*
X186099000Y-127901000D01*
X186099000Y-126099000D01*
X187901000Y-126099000D01*
X187901000Y-127901000D01*
X187901000Y-127901000D01*
G37*
G36*
X142832206Y-123631094D02*
X142832208Y-123631095D01*
X142832209Y-123631095D01*
X142958324Y-123683334D01*
X143173620Y-123772512D01*
X143480883Y-123977819D01*
X143742182Y-124239118D01*
X143947489Y-124546381D01*
X144088907Y-124887795D01*
X144161000Y-125250230D01*
X144161000Y-125619772D01*
X144088907Y-125982207D01*
X143947489Y-126323621D01*
X143742182Y-126630884D01*
X143480883Y-126892183D01*
X143173620Y-127097490D01*
X142982571Y-127176625D01*
X142832209Y-127238907D01*
X142832208Y-127238907D01*
X142832206Y-127238908D01*
X142469771Y-127311001D01*
X142100229Y-127311001D01*
X141737794Y-127238908D01*
X141737792Y-127238907D01*
X141737791Y-127238907D01*
X141587429Y-127176625D01*
X141396380Y-127097490D01*
X141089117Y-126892183D01*
X140827818Y-126630884D01*
X140622511Y-126323621D01*
X140481093Y-125982207D01*
X140409000Y-125619772D01*
X140409000Y-125250230D01*
X140481093Y-124887795D01*
X140622511Y-124546381D01*
X140827818Y-124239118D01*
X141089117Y-123977819D01*
X141396380Y-123772512D01*
X141611676Y-123683334D01*
X141737791Y-123631095D01*
X141737792Y-123631095D01*
X141737794Y-123631094D01*
X142100229Y-123559001D01*
X142469771Y-123559001D01*
X142832206Y-123631094D01*
X142832206Y-123631094D01*
G37*
G36*
X154262206Y-123631094D02*
X154262208Y-123631095D01*
X154262209Y-123631095D01*
X154388324Y-123683334D01*
X154603620Y-123772512D01*
X154910883Y-123977819D01*
X155172182Y-124239118D01*
X155377489Y-124546381D01*
X155518907Y-124887795D01*
X155591000Y-125250230D01*
X155591000Y-125619772D01*
X155518907Y-125982207D01*
X155377489Y-126323621D01*
X155172182Y-126630884D01*
X154910883Y-126892183D01*
X154603620Y-127097490D01*
X154412571Y-127176625D01*
X154262209Y-127238907D01*
X154262208Y-127238907D01*
X154262206Y-127238908D01*
X153899771Y-127311001D01*
X153530229Y-127311001D01*
X153167794Y-127238908D01*
X153167792Y-127238907D01*
X153167791Y-127238907D01*
X153017429Y-127176625D01*
X152826380Y-127097490D01*
X152519117Y-126892183D01*
X152257818Y-126630884D01*
X152052511Y-126323621D01*
X151911093Y-125982207D01*
X151839000Y-125619772D01*
X151839000Y-125250230D01*
X151911093Y-124887795D01*
X152052511Y-124546381D01*
X152257818Y-124239118D01*
X152519117Y-123977819D01*
X152826380Y-123772512D01*
X153041676Y-123683334D01*
X153167791Y-123631095D01*
X153167792Y-123631095D01*
X153167794Y-123631094D01*
X153530229Y-123559001D01*
X153899771Y-123559001D01*
X154262206Y-123631094D01*
X154262206Y-123631094D01*
G37*
G36*
X173262206Y-121341094D02*
X173262208Y-121341095D01*
X173262209Y-121341095D01*
X173307403Y-121359815D01*
X173603620Y-121482512D01*
X173910883Y-121687819D01*
X174172182Y-121949118D01*
X174377489Y-122256381D01*
X174518907Y-122597795D01*
X174591000Y-122960230D01*
X174591000Y-123329772D01*
X174518907Y-123692207D01*
X174377489Y-124033621D01*
X174172182Y-124340884D01*
X173910883Y-124602183D01*
X173603620Y-124807490D01*
X173409753Y-124887792D01*
X173262209Y-124948907D01*
X173262208Y-124948907D01*
X173262206Y-124948908D01*
X172899771Y-125021001D01*
X172530229Y-125021001D01*
X172167794Y-124948908D01*
X172167792Y-124948907D01*
X172167791Y-124948907D01*
X172020247Y-124887792D01*
X171826380Y-124807490D01*
X171519117Y-124602183D01*
X171257818Y-124340884D01*
X171052511Y-124033621D01*
X170911093Y-123692207D01*
X170839000Y-123329772D01*
X170839000Y-122960230D01*
X170911093Y-122597795D01*
X171052511Y-122256381D01*
X171257818Y-121949118D01*
X171519117Y-121687819D01*
X171826380Y-121482512D01*
X172122597Y-121359815D01*
X172167791Y-121341095D01*
X172167792Y-121341095D01*
X172167794Y-121341094D01*
X172530229Y-121269001D01*
X172899771Y-121269001D01*
X173262206Y-121341094D01*
X173262206Y-121341094D01*
G37*
G36*
X161832206Y-121341094D02*
X161832208Y-121341095D01*
X161832209Y-121341095D01*
X161877403Y-121359815D01*
X162173620Y-121482512D01*
X162480883Y-121687819D01*
X162742182Y-121949118D01*
X162947489Y-122256381D01*
X163088907Y-122597795D01*
X163161000Y-122960230D01*
X163161000Y-123329772D01*
X163088907Y-123692207D01*
X162947489Y-124033621D01*
X162742182Y-124340884D01*
X162480883Y-124602183D01*
X162173620Y-124807490D01*
X161979753Y-124887792D01*
X161832209Y-124948907D01*
X161832208Y-124948907D01*
X161832206Y-124948908D01*
X161469771Y-125021001D01*
X161100229Y-125021001D01*
X160737794Y-124948908D01*
X160737792Y-124948907D01*
X160737791Y-124948907D01*
X160590247Y-124887792D01*
X160396380Y-124807490D01*
X160089117Y-124602183D01*
X159827818Y-124340884D01*
X159622511Y-124033621D01*
X159481093Y-123692207D01*
X159409000Y-123329772D01*
X159409000Y-122960230D01*
X159481093Y-122597795D01*
X159622511Y-122256381D01*
X159827818Y-121949118D01*
X160089117Y-121687819D01*
X160396380Y-121482512D01*
X160692597Y-121359815D01*
X160737791Y-121341095D01*
X160737792Y-121341095D01*
X160737794Y-121341094D01*
X161100229Y-121269001D01*
X161469771Y-121269001D01*
X161832206Y-121341094D01*
X161832206Y-121341094D01*
G37*
G36*
X187901000Y-122901000D02*
X186099000Y-122901000D01*
X186099000Y-121099000D01*
X187901000Y-121099000D01*
X187901000Y-122901000D01*
X187901000Y-122901000D01*
G37*
G36*
X179490442Y-121105518D02*
X179556627Y-121112037D01*
X179669853Y-121146384D01*
X179726467Y-121163557D01*
X179865087Y-121237652D01*
X179882991Y-121247222D01*
X179918729Y-121276552D01*
X180020186Y-121359814D01*
X180103448Y-121461271D01*
X180132778Y-121497009D01*
X180132779Y-121497011D01*
X180216443Y-121653533D01*
X180216443Y-121653534D01*
X180267963Y-121823373D01*
X180285359Y-122000000D01*
X180267963Y-122176627D01*
X180233616Y-122289853D01*
X180216443Y-122346467D01*
X180142348Y-122485087D01*
X180132778Y-122502991D01*
X180103448Y-122538729D01*
X180020186Y-122640186D01*
X179918729Y-122723448D01*
X179882991Y-122752778D01*
X179882989Y-122752779D01*
X179726467Y-122836443D01*
X179669853Y-122853616D01*
X179556627Y-122887963D01*
X179490442Y-122894482D01*
X179424260Y-122901000D01*
X179335740Y-122901000D01*
X179269558Y-122894482D01*
X179203373Y-122887963D01*
X179090147Y-122853616D01*
X179033533Y-122836443D01*
X178877011Y-122752779D01*
X178877009Y-122752778D01*
X178841271Y-122723448D01*
X178739814Y-122640186D01*
X178656552Y-122538729D01*
X178627222Y-122502991D01*
X178617652Y-122485087D01*
X178543557Y-122346467D01*
X178526384Y-122289853D01*
X178492037Y-122176627D01*
X178474641Y-122000000D01*
X178492037Y-121823373D01*
X178543557Y-121653534D01*
X178543557Y-121653533D01*
X178627221Y-121497011D01*
X178627222Y-121497009D01*
X178656552Y-121461271D01*
X178739814Y-121359814D01*
X178841271Y-121276552D01*
X178877009Y-121247222D01*
X178894913Y-121237652D01*
X179033533Y-121163557D01*
X179090147Y-121146384D01*
X179203373Y-121112037D01*
X179269558Y-121105518D01*
X179335740Y-121099000D01*
X179424260Y-121099000D01*
X179490442Y-121105518D01*
X179490442Y-121105518D01*
G37*
G36*
X184570442Y-121105518D02*
X184636627Y-121112037D01*
X184749853Y-121146384D01*
X184806467Y-121163557D01*
X184945087Y-121237652D01*
X184962991Y-121247222D01*
X184998729Y-121276552D01*
X185100186Y-121359814D01*
X185183448Y-121461271D01*
X185212778Y-121497009D01*
X185212779Y-121497011D01*
X185296443Y-121653533D01*
X185296443Y-121653534D01*
X185347963Y-121823373D01*
X185365359Y-122000000D01*
X185347963Y-122176627D01*
X185313616Y-122289853D01*
X185296443Y-122346467D01*
X185222348Y-122485087D01*
X185212778Y-122502991D01*
X185183448Y-122538729D01*
X185100186Y-122640186D01*
X184998729Y-122723448D01*
X184962991Y-122752778D01*
X184962989Y-122752779D01*
X184806467Y-122836443D01*
X184749853Y-122853616D01*
X184636627Y-122887963D01*
X184570442Y-122894482D01*
X184504260Y-122901000D01*
X184415740Y-122901000D01*
X184349558Y-122894482D01*
X184283373Y-122887963D01*
X184170147Y-122853616D01*
X184113533Y-122836443D01*
X183957011Y-122752779D01*
X183957009Y-122752778D01*
X183921271Y-122723448D01*
X183819814Y-122640186D01*
X183736552Y-122538729D01*
X183707222Y-122502991D01*
X183697652Y-122485087D01*
X183623557Y-122346467D01*
X183606384Y-122289853D01*
X183572037Y-122176627D01*
X183554641Y-122000000D01*
X183572037Y-121823373D01*
X183623557Y-121653534D01*
X183623557Y-121653533D01*
X183707221Y-121497011D01*
X183707222Y-121497009D01*
X183736552Y-121461271D01*
X183819814Y-121359814D01*
X183921271Y-121276552D01*
X183957009Y-121247222D01*
X183974913Y-121237652D01*
X184113533Y-121163557D01*
X184170147Y-121146384D01*
X184283373Y-121112037D01*
X184349558Y-121105518D01*
X184415740Y-121099000D01*
X184504260Y-121099000D01*
X184570442Y-121105518D01*
X184570442Y-121105518D01*
G37*
G36*
X136901000Y-122901000D02*
X135099000Y-122901000D01*
X135099000Y-121099000D01*
X136901000Y-121099000D01*
X136901000Y-122901000D01*
X136901000Y-122901000D01*
G37*
G36*
X182030442Y-121105518D02*
X182096627Y-121112037D01*
X182209853Y-121146384D01*
X182266467Y-121163557D01*
X182405087Y-121237652D01*
X182422991Y-121247222D01*
X182458729Y-121276552D01*
X182560186Y-121359814D01*
X182643448Y-121461271D01*
X182672778Y-121497009D01*
X182672779Y-121497011D01*
X182756443Y-121653533D01*
X182756443Y-121653534D01*
X182807963Y-121823373D01*
X182825359Y-122000000D01*
X182807963Y-122176627D01*
X182773616Y-122289853D01*
X182756443Y-122346467D01*
X182682348Y-122485087D01*
X182672778Y-122502991D01*
X182643448Y-122538729D01*
X182560186Y-122640186D01*
X182458729Y-122723448D01*
X182422991Y-122752778D01*
X182422989Y-122752779D01*
X182266467Y-122836443D01*
X182209853Y-122853616D01*
X182096627Y-122887963D01*
X182030442Y-122894482D01*
X181964260Y-122901000D01*
X181875740Y-122901000D01*
X181809558Y-122894482D01*
X181743373Y-122887963D01*
X181630147Y-122853616D01*
X181573533Y-122836443D01*
X181417011Y-122752779D01*
X181417009Y-122752778D01*
X181381271Y-122723448D01*
X181279814Y-122640186D01*
X181196552Y-122538729D01*
X181167222Y-122502991D01*
X181157652Y-122485087D01*
X181083557Y-122346467D01*
X181066384Y-122289853D01*
X181032037Y-122176627D01*
X181014641Y-122000000D01*
X181032037Y-121823373D01*
X181083557Y-121653534D01*
X181083557Y-121653533D01*
X181167221Y-121497011D01*
X181167222Y-121497009D01*
X181196552Y-121461271D01*
X181279814Y-121359814D01*
X181381271Y-121276552D01*
X181417009Y-121247222D01*
X181434913Y-121237652D01*
X181573533Y-121163557D01*
X181630147Y-121146384D01*
X181743373Y-121112037D01*
X181809558Y-121105518D01*
X181875740Y-121099000D01*
X181964260Y-121099000D01*
X182030442Y-121105518D01*
X182030442Y-121105518D01*
G37*
G36*
X133570442Y-121105518D02*
X133636627Y-121112037D01*
X133749853Y-121146384D01*
X133806467Y-121163557D01*
X133945087Y-121237652D01*
X133962991Y-121247222D01*
X133998729Y-121276552D01*
X134100186Y-121359814D01*
X134183448Y-121461271D01*
X134212778Y-121497009D01*
X134212779Y-121497011D01*
X134296443Y-121653533D01*
X134296443Y-121653534D01*
X134347963Y-121823373D01*
X134365359Y-122000000D01*
X134347963Y-122176627D01*
X134313616Y-122289853D01*
X134296443Y-122346467D01*
X134222348Y-122485087D01*
X134212778Y-122502991D01*
X134183448Y-122538729D01*
X134100186Y-122640186D01*
X133998729Y-122723448D01*
X133962991Y-122752778D01*
X133962989Y-122752779D01*
X133806467Y-122836443D01*
X133749853Y-122853616D01*
X133636627Y-122887963D01*
X133570442Y-122894482D01*
X133504260Y-122901000D01*
X133415740Y-122901000D01*
X133349558Y-122894482D01*
X133283373Y-122887963D01*
X133170147Y-122853616D01*
X133113533Y-122836443D01*
X132957011Y-122752779D01*
X132957009Y-122752778D01*
X132921271Y-122723448D01*
X132819814Y-122640186D01*
X132736552Y-122538729D01*
X132707222Y-122502991D01*
X132697652Y-122485087D01*
X132623557Y-122346467D01*
X132606384Y-122289853D01*
X132572037Y-122176627D01*
X132554641Y-122000000D01*
X132572037Y-121823373D01*
X132623557Y-121653534D01*
X132623557Y-121653533D01*
X132707221Y-121497011D01*
X132707222Y-121497009D01*
X132736552Y-121461271D01*
X132819814Y-121359814D01*
X132921271Y-121276552D01*
X132957009Y-121247222D01*
X132974913Y-121237652D01*
X133113533Y-121163557D01*
X133170147Y-121146384D01*
X133283373Y-121112037D01*
X133349558Y-121105518D01*
X133415740Y-121099000D01*
X133504260Y-121099000D01*
X133570442Y-121105518D01*
X133570442Y-121105518D01*
G37*
G36*
X148863643Y-118314782D02*
X149009415Y-118375163D01*
X149140611Y-118462825D01*
X149252176Y-118574390D01*
X149339838Y-118705586D01*
X149400219Y-118851358D01*
X149431000Y-119006108D01*
X149431000Y-119163894D01*
X149400219Y-119318644D01*
X149339838Y-119464416D01*
X149252176Y-119595612D01*
X149140611Y-119707177D01*
X149009415Y-119794839D01*
X148863643Y-119855220D01*
X148708893Y-119886001D01*
X148551107Y-119886001D01*
X148396357Y-119855220D01*
X148250585Y-119794839D01*
X148119389Y-119707177D01*
X148007824Y-119595612D01*
X147920162Y-119464416D01*
X147859781Y-119318644D01*
X147829000Y-119163894D01*
X147829000Y-119006108D01*
X147859781Y-118851358D01*
X147920162Y-118705586D01*
X148007824Y-118574390D01*
X148119389Y-118462825D01*
X148250585Y-118375163D01*
X148396357Y-118314782D01*
X148551107Y-118284001D01*
X148708893Y-118284001D01*
X148863643Y-118314782D01*
X148863643Y-118314782D01*
G37*
G36*
X151403643Y-118314782D02*
X151549415Y-118375163D01*
X151680611Y-118462825D01*
X151792176Y-118574390D01*
X151879838Y-118705586D01*
X151940219Y-118851358D01*
X151971000Y-119006108D01*
X151971000Y-119163894D01*
X151940219Y-119318644D01*
X151879838Y-119464416D01*
X151792176Y-119595612D01*
X151680611Y-119707177D01*
X151549415Y-119794839D01*
X151403643Y-119855220D01*
X151248893Y-119886001D01*
X151091107Y-119886001D01*
X150936357Y-119855220D01*
X150790585Y-119794839D01*
X150659389Y-119707177D01*
X150547824Y-119595612D01*
X150460162Y-119464416D01*
X150399781Y-119318644D01*
X150369000Y-119163894D01*
X150369000Y-119006108D01*
X150399781Y-118851358D01*
X150460162Y-118705586D01*
X150547824Y-118574390D01*
X150659389Y-118462825D01*
X150790585Y-118375163D01*
X150936357Y-118314782D01*
X151091107Y-118284001D01*
X151248893Y-118284001D01*
X151403643Y-118314782D01*
X151403643Y-118314782D01*
G37*
G36*
X144351000Y-119886001D02*
X142749000Y-119886001D01*
X142749000Y-118284001D01*
X144351000Y-118284001D01*
X144351000Y-119886001D01*
X144351000Y-119886001D01*
G37*
G36*
X146323643Y-118314782D02*
X146469415Y-118375163D01*
X146600611Y-118462825D01*
X146712176Y-118574390D01*
X146799838Y-118705586D01*
X146860219Y-118851358D01*
X146891000Y-119006108D01*
X146891000Y-119163894D01*
X146860219Y-119318644D01*
X146799838Y-119464416D01*
X146712176Y-119595612D01*
X146600611Y-119707177D01*
X146469415Y-119794839D01*
X146323643Y-119855220D01*
X146168893Y-119886001D01*
X146011107Y-119886001D01*
X145856357Y-119855220D01*
X145710585Y-119794839D01*
X145579389Y-119707177D01*
X145467824Y-119595612D01*
X145380162Y-119464416D01*
X145319781Y-119318644D01*
X145289000Y-119163894D01*
X145289000Y-119006108D01*
X145319781Y-118851358D01*
X145380162Y-118705586D01*
X145467824Y-118574390D01*
X145579389Y-118462825D01*
X145710585Y-118375163D01*
X145856357Y-118314782D01*
X146011107Y-118284001D01*
X146168893Y-118284001D01*
X146323643Y-118314782D01*
X146323643Y-118314782D01*
G37*
G36*
X133570442Y-116105518D02*
X133636627Y-116112037D01*
X133749853Y-116146384D01*
X133806467Y-116163557D01*
X133945087Y-116237652D01*
X133962991Y-116247222D01*
X133998729Y-116276552D01*
X134100186Y-116359814D01*
X134183448Y-116461271D01*
X134212778Y-116497009D01*
X134212779Y-116497011D01*
X134296443Y-116653533D01*
X134296443Y-116653534D01*
X134347963Y-116823373D01*
X134365359Y-117000000D01*
X134347963Y-117176627D01*
X134324238Y-117254838D01*
X134296443Y-117346467D01*
X134222348Y-117485087D01*
X134212778Y-117502991D01*
X134183448Y-117538729D01*
X134100186Y-117640186D01*
X133998729Y-117723448D01*
X133962991Y-117752778D01*
X133962989Y-117752779D01*
X133806467Y-117836443D01*
X133749853Y-117853616D01*
X133636627Y-117887963D01*
X133570442Y-117894482D01*
X133504260Y-117901000D01*
X133415740Y-117901000D01*
X133349558Y-117894482D01*
X133283373Y-117887963D01*
X133170147Y-117853616D01*
X133113533Y-117836443D01*
X132957011Y-117752779D01*
X132957009Y-117752778D01*
X132921271Y-117723448D01*
X132819814Y-117640186D01*
X132736552Y-117538729D01*
X132707222Y-117502991D01*
X132697652Y-117485087D01*
X132623557Y-117346467D01*
X132595762Y-117254838D01*
X132572037Y-117176627D01*
X132554641Y-117000000D01*
X132572037Y-116823373D01*
X132623557Y-116653534D01*
X132623557Y-116653533D01*
X132707221Y-116497011D01*
X132707222Y-116497009D01*
X132736552Y-116461271D01*
X132819814Y-116359814D01*
X132921271Y-116276552D01*
X132957009Y-116247222D01*
X132974913Y-116237652D01*
X133113533Y-116163557D01*
X133170147Y-116146384D01*
X133283373Y-116112037D01*
X133349558Y-116105518D01*
X133415740Y-116099000D01*
X133504260Y-116099000D01*
X133570442Y-116105518D01*
X133570442Y-116105518D01*
G37*
G36*
X136901000Y-117901000D02*
X135099000Y-117901000D01*
X135099000Y-116099000D01*
X136901000Y-116099000D01*
X136901000Y-117901000D01*
X136901000Y-117901000D01*
G37*
G36*
X182030442Y-116105518D02*
X182096627Y-116112037D01*
X182209853Y-116146384D01*
X182266467Y-116163557D01*
X182405087Y-116237652D01*
X182422991Y-116247222D01*
X182458729Y-116276552D01*
X182560186Y-116359814D01*
X182643448Y-116461271D01*
X182672778Y-116497009D01*
X182672779Y-116497011D01*
X182756443Y-116653533D01*
X182756443Y-116653534D01*
X182807963Y-116823373D01*
X182825359Y-117000000D01*
X182807963Y-117176627D01*
X182784238Y-117254838D01*
X182756443Y-117346467D01*
X182682348Y-117485087D01*
X182672778Y-117502991D01*
X182643448Y-117538729D01*
X182560186Y-117640186D01*
X182458729Y-117723448D01*
X182422991Y-117752778D01*
X182422989Y-117752779D01*
X182266467Y-117836443D01*
X182209853Y-117853616D01*
X182096627Y-117887963D01*
X182030442Y-117894482D01*
X181964260Y-117901000D01*
X181875740Y-117901000D01*
X181809558Y-117894482D01*
X181743373Y-117887963D01*
X181630147Y-117853616D01*
X181573533Y-117836443D01*
X181417011Y-117752779D01*
X181417009Y-117752778D01*
X181381271Y-117723448D01*
X181279814Y-117640186D01*
X181196552Y-117538729D01*
X181167222Y-117502991D01*
X181157652Y-117485087D01*
X181083557Y-117346467D01*
X181055762Y-117254838D01*
X181032037Y-117176627D01*
X181014641Y-117000000D01*
X181032037Y-116823373D01*
X181083557Y-116653534D01*
X181083557Y-116653533D01*
X181167221Y-116497011D01*
X181167222Y-116497009D01*
X181196552Y-116461271D01*
X181279814Y-116359814D01*
X181381271Y-116276552D01*
X181417009Y-116247222D01*
X181434913Y-116237652D01*
X181573533Y-116163557D01*
X181630147Y-116146384D01*
X181743373Y-116112037D01*
X181809558Y-116105518D01*
X181875740Y-116099000D01*
X181964260Y-116099000D01*
X182030442Y-116105518D01*
X182030442Y-116105518D01*
G37*
G36*
X184570442Y-116105518D02*
X184636627Y-116112037D01*
X184749853Y-116146384D01*
X184806467Y-116163557D01*
X184945087Y-116237652D01*
X184962991Y-116247222D01*
X184998729Y-116276552D01*
X185100186Y-116359814D01*
X185183448Y-116461271D01*
X185212778Y-116497009D01*
X185212779Y-116497011D01*
X185296443Y-116653533D01*
X185296443Y-116653534D01*
X185347963Y-116823373D01*
X185365359Y-117000000D01*
X185347963Y-117176627D01*
X185324238Y-117254838D01*
X185296443Y-117346467D01*
X185222348Y-117485087D01*
X185212778Y-117502991D01*
X185183448Y-117538729D01*
X185100186Y-117640186D01*
X184998729Y-117723448D01*
X184962991Y-117752778D01*
X184962989Y-117752779D01*
X184806467Y-117836443D01*
X184749853Y-117853616D01*
X184636627Y-117887963D01*
X184570442Y-117894482D01*
X184504260Y-117901000D01*
X184415740Y-117901000D01*
X184349558Y-117894482D01*
X184283373Y-117887963D01*
X184170147Y-117853616D01*
X184113533Y-117836443D01*
X183957011Y-117752779D01*
X183957009Y-117752778D01*
X183921271Y-117723448D01*
X183819814Y-117640186D01*
X183736552Y-117538729D01*
X183707222Y-117502991D01*
X183697652Y-117485087D01*
X183623557Y-117346467D01*
X183595762Y-117254838D01*
X183572037Y-117176627D01*
X183554641Y-117000000D01*
X183572037Y-116823373D01*
X183623557Y-116653534D01*
X183623557Y-116653533D01*
X183707221Y-116497011D01*
X183707222Y-116497009D01*
X183736552Y-116461271D01*
X183819814Y-116359814D01*
X183921271Y-116276552D01*
X183957009Y-116247222D01*
X183974913Y-116237652D01*
X184113533Y-116163557D01*
X184170147Y-116146384D01*
X184283373Y-116112037D01*
X184349558Y-116105518D01*
X184415740Y-116099000D01*
X184504260Y-116099000D01*
X184570442Y-116105518D01*
X184570442Y-116105518D01*
G37*
G36*
X187901000Y-117901000D02*
X186099000Y-117901000D01*
X186099000Y-116099000D01*
X187901000Y-116099000D01*
X187901000Y-117901000D01*
X187901000Y-117901000D01*
G37*
G36*
X145053643Y-115774782D02*
X145199415Y-115835163D01*
X145330611Y-115922825D01*
X145442176Y-116034390D01*
X145529838Y-116165586D01*
X145590219Y-116311358D01*
X145621000Y-116466108D01*
X145621000Y-116623894D01*
X145590219Y-116778644D01*
X145529838Y-116924416D01*
X145442176Y-117055612D01*
X145330611Y-117167177D01*
X145199415Y-117254839D01*
X145053643Y-117315220D01*
X144898893Y-117346001D01*
X144741107Y-117346001D01*
X144586357Y-117315220D01*
X144440585Y-117254839D01*
X144309389Y-117167177D01*
X144197824Y-117055612D01*
X144110162Y-116924416D01*
X144049781Y-116778644D01*
X144019000Y-116623894D01*
X144019000Y-116466108D01*
X144049781Y-116311358D01*
X144110162Y-116165586D01*
X144197824Y-116034390D01*
X144309389Y-115922825D01*
X144440585Y-115835163D01*
X144586357Y-115774782D01*
X144741107Y-115744001D01*
X144898893Y-115744001D01*
X145053643Y-115774782D01*
X145053643Y-115774782D01*
G37*
G36*
X150133643Y-115774782D02*
X150279415Y-115835163D01*
X150410611Y-115922825D01*
X150522176Y-116034390D01*
X150609838Y-116165586D01*
X150670219Y-116311358D01*
X150701000Y-116466108D01*
X150701000Y-116623894D01*
X150670219Y-116778644D01*
X150609838Y-116924416D01*
X150522176Y-117055612D01*
X150410611Y-117167177D01*
X150279415Y-117254839D01*
X150133643Y-117315220D01*
X149978893Y-117346001D01*
X149821107Y-117346001D01*
X149666357Y-117315220D01*
X149520585Y-117254839D01*
X149389389Y-117167177D01*
X149277824Y-117055612D01*
X149190162Y-116924416D01*
X149129781Y-116778644D01*
X149099000Y-116623894D01*
X149099000Y-116466108D01*
X149129781Y-116311358D01*
X149190162Y-116165586D01*
X149277824Y-116034390D01*
X149389389Y-115922825D01*
X149520585Y-115835163D01*
X149666357Y-115774782D01*
X149821107Y-115744001D01*
X149978893Y-115744001D01*
X150133643Y-115774782D01*
X150133643Y-115774782D01*
G37*
G36*
X147593643Y-115774782D02*
X147739415Y-115835163D01*
X147870611Y-115922825D01*
X147982176Y-116034390D01*
X148069838Y-116165586D01*
X148130219Y-116311358D01*
X148161000Y-116466108D01*
X148161000Y-116623894D01*
X148130219Y-116778644D01*
X148069838Y-116924416D01*
X147982176Y-117055612D01*
X147870611Y-117167177D01*
X147739415Y-117254839D01*
X147593643Y-117315220D01*
X147438893Y-117346001D01*
X147281107Y-117346001D01*
X147126357Y-117315220D01*
X146980585Y-117254839D01*
X146849389Y-117167177D01*
X146737824Y-117055612D01*
X146650162Y-116924416D01*
X146589781Y-116778644D01*
X146559000Y-116623894D01*
X146559000Y-116466108D01*
X146589781Y-116311358D01*
X146650162Y-116165586D01*
X146737824Y-116034390D01*
X146849389Y-115922825D01*
X146980585Y-115835163D01*
X147126357Y-115774782D01*
X147281107Y-115744001D01*
X147438893Y-115744001D01*
X147593643Y-115774782D01*
X147593643Y-115774782D01*
G37*
G36*
X152673643Y-115774782D02*
X152819415Y-115835163D01*
X152950611Y-115922825D01*
X153062176Y-116034390D01*
X153149838Y-116165586D01*
X153210219Y-116311358D01*
X153241000Y-116466108D01*
X153241000Y-116623894D01*
X153210219Y-116778644D01*
X153149838Y-116924416D01*
X153062176Y-117055612D01*
X152950611Y-117167177D01*
X152819415Y-117254839D01*
X152673643Y-117315220D01*
X152518893Y-117346001D01*
X152361107Y-117346001D01*
X152206357Y-117315220D01*
X152060585Y-117254839D01*
X151929389Y-117167177D01*
X151817824Y-117055612D01*
X151730162Y-116924416D01*
X151669781Y-116778644D01*
X151639000Y-116623894D01*
X151639000Y-116466108D01*
X151669781Y-116311358D01*
X151730162Y-116165586D01*
X151817824Y-116034390D01*
X151929389Y-115922825D01*
X152060585Y-115835163D01*
X152206357Y-115774782D01*
X152361107Y-115744001D01*
X152518893Y-115744001D01*
X152673643Y-115774782D01*
X152673643Y-115774782D01*
G37*
G36*
X158389941Y-92066248D02*
X158389943Y-92066249D01*
X158389944Y-92066249D01*
X158945190Y-92296239D01*
X158945191Y-92296240D01*
X159444902Y-92630136D01*
X159869864Y-93055098D01*
X159869866Y-93055101D01*
X160203761Y-93554810D01*
X160433751Y-94110056D01*
X160551000Y-94699503D01*
X160551000Y-95300497D01*
X160433751Y-95889944D01*
X160203761Y-96445190D01*
X160064550Y-96653534D01*
X159869864Y-96944902D01*
X159444902Y-97369864D01*
X159444899Y-97369866D01*
X158945190Y-97703761D01*
X158389944Y-97933751D01*
X158389943Y-97933751D01*
X158389941Y-97933752D01*
X157800499Y-98051000D01*
X157199501Y-98051000D01*
X156610059Y-97933752D01*
X156610057Y-97933751D01*
X156610056Y-97933751D01*
X156054810Y-97703761D01*
X155555101Y-97369866D01*
X155555098Y-97369864D01*
X155130136Y-96944902D01*
X154935450Y-96653534D01*
X154796239Y-96445190D01*
X154566249Y-95889944D01*
X154449000Y-95300497D01*
X154449000Y-94699503D01*
X154566249Y-94110056D01*
X154796239Y-93554810D01*
X155130134Y-93055101D01*
X155130136Y-93055098D01*
X155555098Y-92630136D01*
X156054809Y-92296240D01*
X156054810Y-92296239D01*
X156610056Y-92066249D01*
X156610057Y-92066249D01*
X156610059Y-92066248D01*
X157199501Y-91949000D01*
X157800499Y-91949000D01*
X158389941Y-92066248D01*
X158389941Y-92066248D01*
G37*
G36*
X165889941Y-92066248D02*
X165889943Y-92066249D01*
X165889944Y-92066249D01*
X166445190Y-92296239D01*
X166445191Y-92296240D01*
X166944902Y-92630136D01*
X167369864Y-93055098D01*
X167369866Y-93055101D01*
X167703761Y-93554810D01*
X167933751Y-94110056D01*
X168051000Y-94699503D01*
X168051000Y-95300497D01*
X167933751Y-95889944D01*
X167703761Y-96445190D01*
X167564550Y-96653534D01*
X167369864Y-96944902D01*
X166944902Y-97369864D01*
X166944899Y-97369866D01*
X166445190Y-97703761D01*
X165889944Y-97933751D01*
X165889943Y-97933751D01*
X165889941Y-97933752D01*
X165300499Y-98051000D01*
X164699501Y-98051000D01*
X164110059Y-97933752D01*
X164110057Y-97933751D01*
X164110056Y-97933751D01*
X163554810Y-97703761D01*
X163055101Y-97369866D01*
X163055098Y-97369864D01*
X162630136Y-96944902D01*
X162435450Y-96653534D01*
X162296239Y-96445190D01*
X162066249Y-95889944D01*
X161949000Y-95300497D01*
X161949000Y-94699503D01*
X162066249Y-94110056D01*
X162296239Y-93554810D01*
X162630134Y-93055101D01*
X162630136Y-93055098D01*
X163055098Y-92630136D01*
X163554809Y-92296240D01*
X163554810Y-92296239D01*
X164110056Y-92066249D01*
X164110057Y-92066249D01*
X164110059Y-92066248D01*
X164699501Y-91949000D01*
X165300499Y-91949000D01*
X165889941Y-92066248D01*
X165889941Y-92066248D01*
G37*
G36*
X141901000Y-97901000D02*
X140099000Y-97901000D01*
X140099000Y-96099000D01*
X141901000Y-96099000D01*
X141901000Y-97901000D01*
X141901000Y-97901000D01*
G37*
G36*
X138570442Y-96105518D02*
X138636627Y-96112037D01*
X138749853Y-96146384D01*
X138806467Y-96163557D01*
X138945087Y-96237652D01*
X138962991Y-96247222D01*
X138998729Y-96276552D01*
X139100186Y-96359814D01*
X139170251Y-96445190D01*
X139212778Y-96497009D01*
X139212779Y-96497011D01*
X139296443Y-96653533D01*
X139296443Y-96653534D01*
X139347963Y-96823373D01*
X139365359Y-97000000D01*
X139347963Y-97176627D01*
X139313616Y-97289853D01*
X139296443Y-97346467D01*
X139222348Y-97485087D01*
X139212778Y-97502991D01*
X139183448Y-97538729D01*
X139100186Y-97640186D01*
X139022718Y-97703761D01*
X138962991Y-97752778D01*
X138962989Y-97752779D01*
X138806467Y-97836443D01*
X138749853Y-97853616D01*
X138636627Y-97887963D01*
X138570442Y-97894482D01*
X138504260Y-97901000D01*
X138415740Y-97901000D01*
X138349557Y-97894481D01*
X138283373Y-97887963D01*
X138170147Y-97853616D01*
X138113533Y-97836443D01*
X137957011Y-97752779D01*
X137957009Y-97752778D01*
X137897282Y-97703761D01*
X137819814Y-97640186D01*
X137736552Y-97538729D01*
X137707222Y-97502991D01*
X137697652Y-97485087D01*
X137623557Y-97346467D01*
X137606384Y-97289853D01*
X137572037Y-97176627D01*
X137554641Y-97000000D01*
X137572037Y-96823373D01*
X137623557Y-96653534D01*
X137623557Y-96653533D01*
X137707221Y-96497011D01*
X137707222Y-96497009D01*
X137749749Y-96445190D01*
X137819814Y-96359814D01*
X137921271Y-96276552D01*
X137957009Y-96247222D01*
X137974913Y-96237652D01*
X138113533Y-96163557D01*
X138170147Y-96146384D01*
X138283373Y-96112037D01*
X138349558Y-96105518D01*
X138415740Y-96099000D01*
X138504260Y-96099000D01*
X138570442Y-96105518D01*
X138570442Y-96105518D01*
G37*
G36*
X136030442Y-96105518D02*
X136096627Y-96112037D01*
X136209853Y-96146384D01*
X136266467Y-96163557D01*
X136405087Y-96237652D01*
X136422991Y-96247222D01*
X136458729Y-96276552D01*
X136560186Y-96359814D01*
X136630251Y-96445190D01*
X136672778Y-96497009D01*
X136672779Y-96497011D01*
X136756443Y-96653533D01*
X136756443Y-96653534D01*
X136807963Y-96823373D01*
X136825359Y-97000000D01*
X136807963Y-97176627D01*
X136773616Y-97289853D01*
X136756443Y-97346467D01*
X136682348Y-97485087D01*
X136672778Y-97502991D01*
X136643448Y-97538729D01*
X136560186Y-97640186D01*
X136482718Y-97703761D01*
X136422991Y-97752778D01*
X136422989Y-97752779D01*
X136266467Y-97836443D01*
X136209853Y-97853616D01*
X136096627Y-97887963D01*
X136030442Y-97894482D01*
X135964260Y-97901000D01*
X135875740Y-97901000D01*
X135809557Y-97894481D01*
X135743373Y-97887963D01*
X135630147Y-97853616D01*
X135573533Y-97836443D01*
X135417011Y-97752779D01*
X135417009Y-97752778D01*
X135357282Y-97703761D01*
X135279814Y-97640186D01*
X135196552Y-97538729D01*
X135167222Y-97502991D01*
X135157652Y-97485087D01*
X135083557Y-97346467D01*
X135066384Y-97289853D01*
X135032037Y-97176627D01*
X135014641Y-97000000D01*
X135032037Y-96823373D01*
X135083557Y-96653534D01*
X135083557Y-96653533D01*
X135167221Y-96497011D01*
X135167222Y-96497009D01*
X135209749Y-96445190D01*
X135279814Y-96359814D01*
X135381271Y-96276552D01*
X135417009Y-96247222D01*
X135434913Y-96237652D01*
X135573533Y-96163557D01*
X135630147Y-96146384D01*
X135743373Y-96112037D01*
X135809558Y-96105518D01*
X135875740Y-96099000D01*
X135964260Y-96099000D01*
X136030442Y-96105518D01*
X136030442Y-96105518D01*
G37*
G36*
X133490442Y-96105518D02*
X133556627Y-96112037D01*
X133669853Y-96146384D01*
X133726467Y-96163557D01*
X133865087Y-96237652D01*
X133882991Y-96247222D01*
X133918729Y-96276552D01*
X134020186Y-96359814D01*
X134090251Y-96445190D01*
X134132778Y-96497009D01*
X134132779Y-96497011D01*
X134216443Y-96653533D01*
X134216443Y-96653534D01*
X134267963Y-96823373D01*
X134285359Y-97000000D01*
X134267963Y-97176627D01*
X134233616Y-97289853D01*
X134216443Y-97346467D01*
X134142348Y-97485087D01*
X134132778Y-97502991D01*
X134103448Y-97538729D01*
X134020186Y-97640186D01*
X133942718Y-97703761D01*
X133882991Y-97752778D01*
X133882989Y-97752779D01*
X133726467Y-97836443D01*
X133669853Y-97853616D01*
X133556627Y-97887963D01*
X133490442Y-97894482D01*
X133424260Y-97901000D01*
X133335740Y-97901000D01*
X133269557Y-97894481D01*
X133203373Y-97887963D01*
X133090147Y-97853616D01*
X133033533Y-97836443D01*
X132877011Y-97752779D01*
X132877009Y-97752778D01*
X132817282Y-97703761D01*
X132739814Y-97640186D01*
X132656552Y-97538729D01*
X132627222Y-97502991D01*
X132617652Y-97485087D01*
X132543557Y-97346467D01*
X132526384Y-97289853D01*
X132492037Y-97176627D01*
X132474641Y-97000000D01*
X132492037Y-96823373D01*
X132543557Y-96653534D01*
X132543557Y-96653533D01*
X132627221Y-96497011D01*
X132627222Y-96497009D01*
X132669749Y-96445190D01*
X132739814Y-96359814D01*
X132841271Y-96276552D01*
X132877009Y-96247222D01*
X132894913Y-96237652D01*
X133033533Y-96163557D01*
X133090147Y-96146384D01*
X133203373Y-96112037D01*
X133269558Y-96105518D01*
X133335740Y-96099000D01*
X133424260Y-96099000D01*
X133490442Y-96105518D01*
X133490442Y-96105518D01*
G37*
M02*
