G04 #@! TF.GenerationSoftware,KiCad,Pcbnew,(5.0.0)*
G04 #@! TF.CreationDate,2019-04-11T14:41:24-07:00*
G04 #@! TF.ProjectId,USP-Board,5553502D426F6172642E6B696361645F,rev?*
G04 #@! TF.SameCoordinates,Original*
G04 #@! TF.FileFunction,Copper,L2,Bot,Signal*
G04 #@! TF.FilePolarity,Positive*
%FSLAX46Y46*%
G04 Gerber Fmt 4.6, Leading zero omitted, Abs format (unit mm)*
G04 Created by KiCad (PCBNEW (5.0.0)) date 04/11/19 14:41:24*
%MOMM*%
%LPD*%
G01*
G04 APERTURE LIST*
G04 #@! TA.AperFunction,NonConductor*
%ADD10C,0.200000*%
G04 #@! TD*
G04 #@! TA.AperFunction,WasherPad*
%ADD11C,3.650000*%
G04 #@! TD*
G04 #@! TA.AperFunction,ComponentPad*
%ADD12R,1.500000X1.500000*%
G04 #@! TD*
G04 #@! TA.AperFunction,ComponentPad*
%ADD13C,1.500000*%
G04 #@! TD*
G04 #@! TA.AperFunction,ComponentPad*
%ADD14O,1.700000X1.700000*%
G04 #@! TD*
G04 #@! TA.AperFunction,ComponentPad*
%ADD15R,1.700000X1.700000*%
G04 #@! TD*
G04 #@! TA.AperFunction,ComponentPad*
%ADD16C,6.000000*%
G04 #@! TD*
G04 #@! TA.AperFunction,ViaPad*
%ADD17C,0.800000*%
G04 #@! TD*
G04 #@! TA.AperFunction,Conductor*
%ADD18C,0.250000*%
G04 #@! TD*
G04 #@! TA.AperFunction,Conductor*
%ADD19C,0.750000*%
G04 #@! TD*
G04 #@! TA.AperFunction,Conductor*
%ADD20C,0.254000*%
G04 #@! TD*
G04 APERTURE END LIST*
D10*
X130000000Y-135000000D02*
X130000000Y-90000000D01*
X190000000Y-135000000D02*
X130000000Y-135000000D01*
X190000000Y-90000000D02*
X190000000Y-135000000D01*
X130000000Y-90000000D02*
X190000000Y-90000000D01*
D11*
G04 #@! TO.P,J10,*
G04 #@! TO.N,*
X153715000Y-125435001D03*
X142285000Y-125435001D03*
D12*
G04 #@! TO.P,J10,1*
G04 #@! TO.N,I2C_SDA*
X143550000Y-119085001D03*
D13*
G04 #@! TO.P,J10,2*
G04 #@! TO.N,I2C_SCL*
X144820000Y-116545001D03*
G04 #@! TO.P,J10,3*
G04 #@! TO.N,GND*
X146090000Y-119085001D03*
G04 #@! TO.P,J10,4*
G04 #@! TO.N,+3V3*
X147360000Y-116545001D03*
G04 #@! TO.P,J10,5*
G04 #@! TO.N,EXT_Temp_0*
X148630000Y-119085001D03*
G04 #@! TO.P,J10,6*
G04 #@! TO.N,EXT_Temp_1*
X149900000Y-116545001D03*
G04 #@! TO.P,J10,7*
G04 #@! TO.N,EXT_PWM_LED*
X151170000Y-119085001D03*
G04 #@! TO.P,J10,8*
G04 #@! TO.N,+5V*
X152440000Y-116545001D03*
G04 #@! TD*
G04 #@! TO.P,J11,8*
G04 #@! TO.N,+5V*
X162560000Y-132035001D03*
G04 #@! TO.P,J11,7*
G04 #@! TO.N,EXT_PWM_LED*
X163830000Y-129495001D03*
G04 #@! TO.P,J11,6*
G04 #@! TO.N,EXT_Temp_1*
X165100000Y-132035001D03*
G04 #@! TO.P,J11,5*
G04 #@! TO.N,EXT_Temp_0*
X166370000Y-129495001D03*
G04 #@! TO.P,J11,4*
G04 #@! TO.N,+3V3*
X167640000Y-132035001D03*
G04 #@! TO.P,J11,3*
G04 #@! TO.N,GND*
X168910000Y-129495001D03*
G04 #@! TO.P,J11,2*
G04 #@! TO.N,I2C_SCL*
X170180000Y-132035001D03*
D12*
G04 #@! TO.P,J11,1*
G04 #@! TO.N,I2C_SDA*
X171450000Y-129495001D03*
D11*
G04 #@! TO.P,J11,*
G04 #@! TO.N,*
X172715000Y-123145001D03*
X161285000Y-123145001D03*
G04 #@! TD*
D14*
G04 #@! TO.P,J1,2*
G04 #@! TO.N,GND*
X133460000Y-132000000D03*
D15*
G04 #@! TO.P,J1,1*
G04 #@! TO.N,Leak_Probe*
X136000000Y-132000000D03*
G04 #@! TD*
G04 #@! TO.P,J2,1*
G04 #@! TO.N,Leak_Probe*
X136000000Y-122000000D03*
D14*
G04 #@! TO.P,J2,2*
G04 #@! TO.N,GND*
X133460000Y-122000000D03*
G04 #@! TD*
G04 #@! TO.P,J3,2*
G04 #@! TO.N,GND*
X133460000Y-127000000D03*
D15*
G04 #@! TO.P,J3,1*
G04 #@! TO.N,Leak_Probe*
X136000000Y-127000000D03*
G04 #@! TD*
G04 #@! TO.P,J4,1*
G04 #@! TO.N,Leak_Probe*
X136000000Y-117000000D03*
D14*
G04 #@! TO.P,J4,2*
G04 #@! TO.N,GND*
X133460000Y-117000000D03*
G04 #@! TD*
G04 #@! TO.P,J6,3*
G04 #@! TO.N,Net-(J6-Pad3)*
X181920000Y-132000000D03*
G04 #@! TO.P,J6,2*
G04 #@! TO.N,Net-(J6-Pad2)*
X184460000Y-132000000D03*
D15*
G04 #@! TO.P,J6,1*
G04 #@! TO.N,EXT_PWM_LED*
X187000000Y-132000000D03*
G04 #@! TD*
D14*
G04 #@! TO.P,J7,4*
G04 #@! TO.N,I2C_SDA*
X179380000Y-122000000D03*
G04 #@! TO.P,J7,3*
G04 #@! TO.N,I2C_SCL*
X181920000Y-122000000D03*
G04 #@! TO.P,J7,2*
G04 #@! TO.N,GND*
X184460000Y-122000000D03*
D15*
G04 #@! TO.P,J7,1*
G04 #@! TO.N,+12V*
X187000000Y-122000000D03*
G04 #@! TD*
G04 #@! TO.P,J8,1*
G04 #@! TO.N,+5V*
X187000000Y-117000000D03*
D14*
G04 #@! TO.P,J8,2*
G04 #@! TO.N,ANLG_HAL_SENS*
X184460000Y-117000000D03*
G04 #@! TO.P,J8,3*
G04 #@! TO.N,GND*
X181920000Y-117000000D03*
G04 #@! TD*
D15*
G04 #@! TO.P,J9,1*
G04 #@! TO.N,GND*
X187000000Y-127000000D03*
D14*
G04 #@! TO.P,J9,2*
G04 #@! TO.N,+3V3*
X184460000Y-127000000D03*
G04 #@! TO.P,J9,3*
G04 #@! TO.N,I2C_SCL*
X181920000Y-127000000D03*
G04 #@! TO.P,J9,4*
G04 #@! TO.N,I2C_SDA*
X179380000Y-127000000D03*
G04 #@! TD*
D15*
G04 #@! TO.P,J12,1*
G04 #@! TO.N,Net-(J12-Pad1)*
X141000000Y-97000000D03*
D14*
G04 #@! TO.P,J12,2*
G04 #@! TO.N,Net-(J12-Pad2)*
X138460000Y-97000000D03*
G04 #@! TO.P,J12,3*
G04 #@! TO.N,+5V*
X135920000Y-97000000D03*
G04 #@! TO.P,J12,4*
G04 #@! TO.N,GND*
X133380000Y-97000000D03*
G04 #@! TD*
D16*
G04 #@! TO.P,J13,1*
G04 #@! TO.N,GND*
X165000000Y-95000000D03*
G04 #@! TO.P,J13,2*
G04 #@! TO.N,+12V*
X157500000Y-95000000D03*
G04 #@! TD*
D17*
G04 #@! TO.N,+5V*
X142800000Y-113400000D03*
G04 #@! TO.N,Leak_Sig*
X145300000Y-105800000D03*
X154800000Y-108100000D03*
G04 #@! TO.N,GND*
X154900000Y-109800000D03*
X165600000Y-111800000D03*
X159700000Y-100400000D03*
X153900000Y-101600000D03*
X131600000Y-107700000D03*
X141000000Y-103900000D03*
G04 #@! TO.N,Net-(C3-Pad1)*
X148400000Y-100100000D03*
X158400000Y-100500000D03*
G04 #@! TD*
D18*
G04 #@! TO.N,+5V*
X152440000Y-116545001D02*
X152440000Y-114240000D01*
X151600000Y-113400000D02*
X142800000Y-113400000D01*
X152440000Y-114240000D02*
X151600000Y-113400000D01*
X152440000Y-116545001D02*
X157345001Y-116545001D01*
X158700000Y-128175001D02*
X162560000Y-132035001D01*
X158700000Y-117900000D02*
X158700000Y-128175001D01*
X157345001Y-116545001D02*
X158700000Y-117900000D01*
X142800000Y-113400000D02*
X138300000Y-113400000D01*
X135920000Y-99020000D02*
X135920000Y-97000000D01*
X137600000Y-100700000D02*
X135920000Y-99020000D01*
X137600000Y-112700000D02*
X137600000Y-100700000D01*
X138300000Y-113400000D02*
X137600000Y-112700000D01*
G04 #@! TO.N,Leak_Sig*
X145300000Y-106300000D02*
X145300000Y-105800000D01*
X146100000Y-107100000D02*
X145300000Y-106300000D01*
X153800000Y-107100000D02*
X146100000Y-107100000D01*
X154800000Y-108100000D02*
X153800000Y-107100000D01*
G04 #@! TO.N,GND*
X165600000Y-111800000D02*
X165600000Y-111900000D01*
G04 #@! TO.N,I2C_SCL*
X144820000Y-116545001D02*
X145445001Y-116545001D01*
X167815001Y-134400000D02*
X170180000Y-132035001D01*
X161800000Y-134400000D02*
X167815001Y-134400000D01*
X157299996Y-129899996D02*
X161800000Y-134400000D01*
X157299996Y-122199996D02*
X157299996Y-129899996D01*
X156100000Y-121000000D02*
X157299996Y-122199996D01*
X148800000Y-121000000D02*
X156100000Y-121000000D01*
X147300000Y-119500000D02*
X148800000Y-121000000D01*
X147300000Y-118400000D02*
X147300000Y-119500000D01*
X145445001Y-116545001D02*
X147300000Y-118400000D01*
G04 #@! TO.N,+3V3*
X167640000Y-132035001D02*
X167640000Y-133060000D01*
X147845001Y-116545001D02*
X147360000Y-116545001D01*
X149900000Y-118600000D02*
X147845001Y-116545001D01*
X149900000Y-119800000D02*
X149900000Y-118600000D01*
X150600000Y-120500000D02*
X149900000Y-119800000D01*
X151600000Y-120500000D02*
X150600000Y-120500000D01*
X152700000Y-119400000D02*
X151600000Y-120500000D01*
X152700000Y-118900000D02*
X152700000Y-119400000D01*
X153349998Y-118250002D02*
X152700000Y-118900000D01*
X156800000Y-118250002D02*
X153349998Y-118250002D01*
X157749998Y-119200000D02*
X156800000Y-118250002D01*
X157749998Y-129649998D02*
X157749998Y-119200000D01*
X162000000Y-133900000D02*
X157749998Y-129649998D01*
X166800000Y-133900000D02*
X162000000Y-133900000D01*
X167640000Y-133060000D02*
X166800000Y-133900000D01*
G04 #@! TO.N,EXT_Temp_1*
X165100000Y-132035001D02*
X165100000Y-132100000D01*
X151154999Y-117800000D02*
X149900000Y-116545001D01*
X157000000Y-117800000D02*
X151154999Y-117800000D01*
X158200000Y-119000000D02*
X157000000Y-117800000D01*
X158200000Y-129400000D02*
X158200000Y-119000000D01*
X162100000Y-133300000D02*
X158200000Y-129400000D01*
X163900000Y-133300000D02*
X162100000Y-133300000D01*
X165100000Y-132100000D02*
X163900000Y-133300000D01*
G04 #@! TO.N,EXT_PWM_LED*
X163830000Y-129495001D02*
X163830000Y-128670000D01*
X185400000Y-133600000D02*
X187000000Y-132000000D01*
X173600000Y-133600000D02*
X185400000Y-133600000D01*
X172800000Y-132800000D02*
X173600000Y-133600000D01*
X172800000Y-128600000D02*
X172800000Y-132800000D01*
X172400000Y-128200000D02*
X172800000Y-128600000D01*
X164300000Y-128200000D02*
X172400000Y-128200000D01*
X163830000Y-128670000D02*
X164300000Y-128200000D01*
G04 #@! TO.N,Net-(C3-Pad1)*
X148600000Y-99900000D02*
X148400000Y-100100000D01*
X157800000Y-99900000D02*
X148600000Y-99900000D01*
X158400000Y-100500000D02*
X157800000Y-99900000D01*
G04 #@! TO.N,Leak_Probe*
X136000000Y-132000000D02*
X136000000Y-127000000D01*
X136000000Y-127000000D02*
X136000000Y-122000000D01*
X136000000Y-122000000D02*
X136000000Y-117000000D01*
D19*
G04 #@! TO.N,+12V*
X187000000Y-122000000D02*
X187000000Y-121800000D01*
X157500000Y-91200000D02*
X157500000Y-95000000D01*
X158000000Y-90700000D02*
X157500000Y-91200000D01*
X188200000Y-90700000D02*
X158000000Y-90700000D01*
X189300000Y-91800000D02*
X188200000Y-90700000D01*
X189300000Y-119500000D02*
X189300000Y-91800000D01*
X187000000Y-121800000D02*
X189300000Y-119500000D01*
G04 #@! TD*
D20*
G04 #@! TO.N,GND*
G36*
X156548601Y-90805919D02*
X156490000Y-91100525D01*
X156490000Y-91100529D01*
X156470214Y-91200000D01*
X156490000Y-91299471D01*
X156490000Y-91483860D01*
X155440938Y-91918396D01*
X154418396Y-92940938D01*
X153865000Y-94276954D01*
X153865000Y-95723046D01*
X154418396Y-97059062D01*
X155440938Y-98081604D01*
X156776954Y-98635000D01*
X158223046Y-98635000D01*
X159559062Y-98081604D01*
X160581604Y-97059062D01*
X161135000Y-95723046D01*
X161135000Y-94276954D01*
X160581604Y-92940938D01*
X159559062Y-91918396D01*
X159055950Y-91710000D01*
X187781645Y-91710000D01*
X188290001Y-92218357D01*
X188290000Y-115680291D01*
X188097765Y-115551843D01*
X187850000Y-115502560D01*
X186150000Y-115502560D01*
X185902235Y-115551843D01*
X185692191Y-115692191D01*
X185551843Y-115902235D01*
X185542816Y-115947619D01*
X185530625Y-115929375D01*
X185039418Y-115601161D01*
X184606256Y-115515000D01*
X184313744Y-115515000D01*
X183880582Y-115601161D01*
X183389375Y-115929375D01*
X183061161Y-116420582D01*
X182945908Y-117000000D01*
X183061161Y-117579418D01*
X183389375Y-118070625D01*
X183880582Y-118398839D01*
X184313744Y-118485000D01*
X184606256Y-118485000D01*
X185039418Y-118398839D01*
X185530625Y-118070625D01*
X185542816Y-118052381D01*
X185551843Y-118097765D01*
X185692191Y-118307809D01*
X185902235Y-118448157D01*
X186150000Y-118497440D01*
X187850000Y-118497440D01*
X188097765Y-118448157D01*
X188290000Y-118319709D01*
X188290000Y-119081645D01*
X186869085Y-120502560D01*
X186150000Y-120502560D01*
X185902235Y-120551843D01*
X185692191Y-120692191D01*
X185551843Y-120902235D01*
X185502560Y-121150000D01*
X185502560Y-122850000D01*
X185551843Y-123097765D01*
X185692191Y-123307809D01*
X185902235Y-123448157D01*
X186150000Y-123497440D01*
X187850000Y-123497440D01*
X188097765Y-123448157D01*
X188307809Y-123307809D01*
X188448157Y-123097765D01*
X188497440Y-122850000D01*
X188497440Y-121730915D01*
X189265001Y-120963354D01*
X189265001Y-134265000D01*
X185772720Y-134265000D01*
X185947929Y-134147929D01*
X185990331Y-134084470D01*
X186577361Y-133497440D01*
X187850000Y-133497440D01*
X188097765Y-133448157D01*
X188307809Y-133307809D01*
X188448157Y-133097765D01*
X188497440Y-132850000D01*
X188497440Y-131150000D01*
X188448157Y-130902235D01*
X188307809Y-130692191D01*
X188097765Y-130551843D01*
X187850000Y-130502560D01*
X186150000Y-130502560D01*
X185902235Y-130551843D01*
X185692191Y-130692191D01*
X185551843Y-130902235D01*
X185542816Y-130947619D01*
X185530625Y-130929375D01*
X185039418Y-130601161D01*
X184606256Y-130515000D01*
X184313744Y-130515000D01*
X183880582Y-130601161D01*
X183389375Y-130929375D01*
X183190000Y-131227761D01*
X182990625Y-130929375D01*
X182499418Y-130601161D01*
X182066256Y-130515000D01*
X181773744Y-130515000D01*
X181340582Y-130601161D01*
X180849375Y-130929375D01*
X180521161Y-131420582D01*
X180405908Y-132000000D01*
X180521161Y-132579418D01*
X180695276Y-132840000D01*
X173914802Y-132840000D01*
X173560000Y-132485199D01*
X173560000Y-128674846D01*
X173574888Y-128599999D01*
X173560000Y-128525152D01*
X173560000Y-128525148D01*
X173515904Y-128303463D01*
X173347929Y-128052071D01*
X173284473Y-128009671D01*
X172990331Y-127715529D01*
X172947929Y-127652071D01*
X172696537Y-127484096D01*
X172474852Y-127440000D01*
X172474847Y-127440000D01*
X172400000Y-127425112D01*
X172325153Y-127440000D01*
X164374846Y-127440000D01*
X164299999Y-127425112D01*
X164225152Y-127440000D01*
X164225148Y-127440000D01*
X164003463Y-127484096D01*
X163752071Y-127652071D01*
X163709671Y-127715528D01*
X163345527Y-128079671D01*
X163282072Y-128122071D01*
X163239672Y-128185527D01*
X163239671Y-128185528D01*
X163188967Y-128261412D01*
X163045460Y-128320854D01*
X162655853Y-128710461D01*
X162445000Y-129219507D01*
X162445000Y-129770495D01*
X162655853Y-130279541D01*
X163045460Y-130669148D01*
X163554506Y-130880001D01*
X164105494Y-130880001D01*
X164614540Y-130669148D01*
X165004147Y-130279541D01*
X165100000Y-130048131D01*
X165195853Y-130279541D01*
X165585460Y-130669148D01*
X166094506Y-130880001D01*
X166645494Y-130880001D01*
X167154540Y-130669148D01*
X167544147Y-130279541D01*
X167755000Y-129770495D01*
X167755000Y-129219507D01*
X167647509Y-128960000D01*
X170052560Y-128960000D01*
X170052560Y-130245001D01*
X170101843Y-130492766D01*
X170206905Y-130650001D01*
X169904506Y-130650001D01*
X169395460Y-130860854D01*
X169005853Y-131250461D01*
X168910000Y-131481871D01*
X168814147Y-131250461D01*
X168424540Y-130860854D01*
X167915494Y-130650001D01*
X167364506Y-130650001D01*
X166855460Y-130860854D01*
X166465853Y-131250461D01*
X166370000Y-131481871D01*
X166274147Y-131250461D01*
X165884540Y-130860854D01*
X165375494Y-130650001D01*
X164824506Y-130650001D01*
X164315460Y-130860854D01*
X163925853Y-131250461D01*
X163830000Y-131481871D01*
X163734147Y-131250461D01*
X163344540Y-130860854D01*
X162835494Y-130650001D01*
X162284506Y-130650001D01*
X162259967Y-130660165D01*
X159460000Y-127860200D01*
X159460000Y-127000000D01*
X177865908Y-127000000D01*
X177981161Y-127579418D01*
X178309375Y-128070625D01*
X178800582Y-128398839D01*
X179233744Y-128485000D01*
X179526256Y-128485000D01*
X179959418Y-128398839D01*
X180450625Y-128070625D01*
X180650000Y-127772239D01*
X180849375Y-128070625D01*
X181340582Y-128398839D01*
X181773744Y-128485000D01*
X182066256Y-128485000D01*
X182499418Y-128398839D01*
X182990625Y-128070625D01*
X183190000Y-127772239D01*
X183389375Y-128070625D01*
X183880582Y-128398839D01*
X184313744Y-128485000D01*
X184606256Y-128485000D01*
X185039418Y-128398839D01*
X185530625Y-128070625D01*
X185858839Y-127579418D01*
X185974092Y-127000000D01*
X185858839Y-126420582D01*
X185530625Y-125929375D01*
X185039418Y-125601161D01*
X184606256Y-125515000D01*
X184313744Y-125515000D01*
X183880582Y-125601161D01*
X183389375Y-125929375D01*
X183190000Y-126227761D01*
X182990625Y-125929375D01*
X182499418Y-125601161D01*
X182066256Y-125515000D01*
X181773744Y-125515000D01*
X181340582Y-125601161D01*
X180849375Y-125929375D01*
X180650000Y-126227761D01*
X180450625Y-125929375D01*
X179959418Y-125601161D01*
X179526256Y-125515000D01*
X179233744Y-125515000D01*
X178800582Y-125601161D01*
X178309375Y-125929375D01*
X177981161Y-126420582D01*
X177865908Y-127000000D01*
X159460000Y-127000000D01*
X159460000Y-124798966D01*
X159891522Y-125230488D01*
X160795676Y-125605001D01*
X161774324Y-125605001D01*
X162678478Y-125230488D01*
X163370487Y-124538479D01*
X163745000Y-123634325D01*
X163745000Y-122655677D01*
X170255000Y-122655677D01*
X170255000Y-123634325D01*
X170629513Y-124538479D01*
X171321522Y-125230488D01*
X172225676Y-125605001D01*
X173204324Y-125605001D01*
X174108478Y-125230488D01*
X174800487Y-124538479D01*
X175175000Y-123634325D01*
X175175000Y-122655677D01*
X174903410Y-122000000D01*
X177865908Y-122000000D01*
X177981161Y-122579418D01*
X178309375Y-123070625D01*
X178800582Y-123398839D01*
X179233744Y-123485000D01*
X179526256Y-123485000D01*
X179959418Y-123398839D01*
X180450625Y-123070625D01*
X180650000Y-122772239D01*
X180849375Y-123070625D01*
X181340582Y-123398839D01*
X181773744Y-123485000D01*
X182066256Y-123485000D01*
X182499418Y-123398839D01*
X182990625Y-123070625D01*
X183318839Y-122579418D01*
X183434092Y-122000000D01*
X183318839Y-121420582D01*
X182990625Y-120929375D01*
X182499418Y-120601161D01*
X182066256Y-120515000D01*
X181773744Y-120515000D01*
X181340582Y-120601161D01*
X180849375Y-120929375D01*
X180650000Y-121227761D01*
X180450625Y-120929375D01*
X179959418Y-120601161D01*
X179526256Y-120515000D01*
X179233744Y-120515000D01*
X178800582Y-120601161D01*
X178309375Y-120929375D01*
X177981161Y-121420582D01*
X177865908Y-122000000D01*
X174903410Y-122000000D01*
X174800487Y-121751523D01*
X174108478Y-121059514D01*
X173204324Y-120685001D01*
X172225676Y-120685001D01*
X171321522Y-121059514D01*
X170629513Y-121751523D01*
X170255000Y-122655677D01*
X163745000Y-122655677D01*
X163370487Y-121751523D01*
X162678478Y-121059514D01*
X161774324Y-120685001D01*
X160795676Y-120685001D01*
X159891522Y-121059514D01*
X159460000Y-121491036D01*
X159460000Y-117974847D01*
X159474888Y-117900000D01*
X159460000Y-117825153D01*
X159460000Y-117825148D01*
X159415904Y-117603463D01*
X159247929Y-117352071D01*
X159184473Y-117309671D01*
X157935332Y-116060531D01*
X157892930Y-115997072D01*
X157641538Y-115829097D01*
X157419853Y-115785001D01*
X157419848Y-115785001D01*
X157345001Y-115770113D01*
X157270154Y-115785001D01*
X153624312Y-115785001D01*
X153614147Y-115760461D01*
X153224540Y-115370854D01*
X153200000Y-115360689D01*
X153200000Y-114314846D01*
X153214888Y-114239999D01*
X153200000Y-114165152D01*
X153200000Y-114165148D01*
X153155904Y-113943463D01*
X153114102Y-113880902D01*
X153030329Y-113755526D01*
X153030327Y-113755524D01*
X152987929Y-113692071D01*
X152924475Y-113649673D01*
X152190331Y-112915529D01*
X152147929Y-112852071D01*
X151896537Y-112684096D01*
X151674852Y-112640000D01*
X151674847Y-112640000D01*
X151600000Y-112625112D01*
X151525153Y-112640000D01*
X143503711Y-112640000D01*
X143386280Y-112522569D01*
X143005874Y-112365000D01*
X142594126Y-112365000D01*
X142213720Y-112522569D01*
X142096289Y-112640000D01*
X138614802Y-112640000D01*
X138360000Y-112385198D01*
X138360000Y-105594126D01*
X144265000Y-105594126D01*
X144265000Y-106005874D01*
X144422569Y-106386280D01*
X144571996Y-106535707D01*
X144584096Y-106596536D01*
X144752071Y-106847929D01*
X144815530Y-106890331D01*
X145509670Y-107584472D01*
X145552071Y-107647929D01*
X145615527Y-107690329D01*
X145803462Y-107815904D01*
X145851605Y-107825480D01*
X146025148Y-107860000D01*
X146025152Y-107860000D01*
X146100000Y-107874888D01*
X146174848Y-107860000D01*
X153485199Y-107860000D01*
X153765000Y-108139802D01*
X153765000Y-108305874D01*
X153922569Y-108686280D01*
X154213720Y-108977431D01*
X154594126Y-109135000D01*
X155005874Y-109135000D01*
X155386280Y-108977431D01*
X155677431Y-108686280D01*
X155835000Y-108305874D01*
X155835000Y-107894126D01*
X155677431Y-107513720D01*
X155386280Y-107222569D01*
X155005874Y-107065000D01*
X154839802Y-107065000D01*
X154390331Y-106615530D01*
X154347929Y-106552071D01*
X154096537Y-106384096D01*
X153874852Y-106340000D01*
X153874847Y-106340000D01*
X153800000Y-106325112D01*
X153725153Y-106340000D01*
X146414802Y-106340000D01*
X146260510Y-106185709D01*
X146335000Y-106005874D01*
X146335000Y-105594126D01*
X146177431Y-105213720D01*
X145886280Y-104922569D01*
X145505874Y-104765000D01*
X145094126Y-104765000D01*
X144713720Y-104922569D01*
X144422569Y-105213720D01*
X144265000Y-105594126D01*
X138360000Y-105594126D01*
X138360000Y-100774848D01*
X138374888Y-100700000D01*
X138360000Y-100625152D01*
X138360000Y-100625148D01*
X138315904Y-100403463D01*
X138315904Y-100403462D01*
X138190329Y-100215527D01*
X138147929Y-100152071D01*
X138084473Y-100109671D01*
X137868928Y-99894126D01*
X147365000Y-99894126D01*
X147365000Y-100305874D01*
X147522569Y-100686280D01*
X147813720Y-100977431D01*
X148194126Y-101135000D01*
X148605874Y-101135000D01*
X148986280Y-100977431D01*
X149277431Y-100686280D01*
X149288317Y-100660000D01*
X157365000Y-100660000D01*
X157365000Y-100705874D01*
X157522569Y-101086280D01*
X157813720Y-101377431D01*
X158194126Y-101535000D01*
X158605874Y-101535000D01*
X158986280Y-101377431D01*
X159277431Y-101086280D01*
X159435000Y-100705874D01*
X159435000Y-100294126D01*
X159277431Y-99913720D01*
X158986280Y-99622569D01*
X158605874Y-99465000D01*
X158439801Y-99465000D01*
X158390331Y-99415530D01*
X158347929Y-99352071D01*
X158096537Y-99184096D01*
X157874852Y-99140000D01*
X157874847Y-99140000D01*
X157800000Y-99125112D01*
X157725153Y-99140000D01*
X148786940Y-99140000D01*
X148605874Y-99065000D01*
X148194126Y-99065000D01*
X147813720Y-99222569D01*
X147522569Y-99513720D01*
X147365000Y-99894126D01*
X137868928Y-99894126D01*
X136680000Y-98705199D01*
X136680000Y-98278178D01*
X136990625Y-98070625D01*
X137190000Y-97772239D01*
X137389375Y-98070625D01*
X137880582Y-98398839D01*
X138313744Y-98485000D01*
X138606256Y-98485000D01*
X139039418Y-98398839D01*
X139530625Y-98070625D01*
X139542816Y-98052381D01*
X139551843Y-98097765D01*
X139692191Y-98307809D01*
X139902235Y-98448157D01*
X140150000Y-98497440D01*
X141850000Y-98497440D01*
X142097765Y-98448157D01*
X142307809Y-98307809D01*
X142448157Y-98097765D01*
X142497440Y-97850000D01*
X142497440Y-96150000D01*
X142448157Y-95902235D01*
X142307809Y-95692191D01*
X142097765Y-95551843D01*
X141850000Y-95502560D01*
X140150000Y-95502560D01*
X139902235Y-95551843D01*
X139692191Y-95692191D01*
X139551843Y-95902235D01*
X139542816Y-95947619D01*
X139530625Y-95929375D01*
X139039418Y-95601161D01*
X138606256Y-95515000D01*
X138313744Y-95515000D01*
X137880582Y-95601161D01*
X137389375Y-95929375D01*
X137190000Y-96227761D01*
X136990625Y-95929375D01*
X136499418Y-95601161D01*
X136066256Y-95515000D01*
X135773744Y-95515000D01*
X135340582Y-95601161D01*
X134849375Y-95929375D01*
X134521161Y-96420582D01*
X134405908Y-97000000D01*
X134521161Y-97579418D01*
X134849375Y-98070625D01*
X135160000Y-98278178D01*
X135160000Y-98945153D01*
X135145112Y-99020000D01*
X135160000Y-99094847D01*
X135160000Y-99094851D01*
X135204096Y-99316536D01*
X135372071Y-99567929D01*
X135435530Y-99610331D01*
X136840001Y-101014803D01*
X136840000Y-112625153D01*
X136825112Y-112700000D01*
X136840000Y-112774847D01*
X136840000Y-112774851D01*
X136884096Y-112996536D01*
X137052071Y-113247929D01*
X137115529Y-113290330D01*
X137709672Y-113884475D01*
X137752071Y-113947929D01*
X137815524Y-113990327D01*
X137815526Y-113990329D01*
X137940902Y-114074102D01*
X138003463Y-114115904D01*
X138225148Y-114160000D01*
X138225152Y-114160000D01*
X138299999Y-114174888D01*
X138374846Y-114160000D01*
X142096289Y-114160000D01*
X142213720Y-114277431D01*
X142594126Y-114435000D01*
X143005874Y-114435000D01*
X143386280Y-114277431D01*
X143503711Y-114160000D01*
X151285198Y-114160000D01*
X151680001Y-114554803D01*
X151680001Y-115360689D01*
X151655460Y-115370854D01*
X151265853Y-115760461D01*
X151170000Y-115991871D01*
X151074147Y-115760461D01*
X150684540Y-115370854D01*
X150175494Y-115160001D01*
X149624506Y-115160001D01*
X149115460Y-115370854D01*
X148725853Y-115760461D01*
X148630000Y-115991871D01*
X148534147Y-115760461D01*
X148144540Y-115370854D01*
X147635494Y-115160001D01*
X147084506Y-115160001D01*
X146575460Y-115370854D01*
X146185853Y-115760461D01*
X146090000Y-115991871D01*
X145994147Y-115760461D01*
X145604540Y-115370854D01*
X145095494Y-115160001D01*
X144544506Y-115160001D01*
X144035460Y-115370854D01*
X143645853Y-115760461D01*
X143435000Y-116269507D01*
X143435000Y-116820495D01*
X143645853Y-117329541D01*
X144003873Y-117687561D01*
X142800000Y-117687561D01*
X142552235Y-117736844D01*
X142342191Y-117877192D01*
X142201843Y-118087236D01*
X142152560Y-118335001D01*
X142152560Y-119835001D01*
X142201843Y-120082766D01*
X142342191Y-120292810D01*
X142552235Y-120433158D01*
X142800000Y-120482441D01*
X144300000Y-120482441D01*
X144547765Y-120433158D01*
X144757809Y-120292810D01*
X144898157Y-120082766D01*
X144947440Y-119835001D01*
X144947440Y-118335001D01*
X144898157Y-118087236D01*
X144793095Y-117930001D01*
X145095494Y-117930001D01*
X145561977Y-117736778D01*
X146540000Y-118714802D01*
X146540001Y-119425149D01*
X146525112Y-119500000D01*
X146584097Y-119796537D01*
X146688022Y-119952071D01*
X146752072Y-120047929D01*
X146815528Y-120090329D01*
X148209673Y-121484476D01*
X148252071Y-121547929D01*
X148315524Y-121590327D01*
X148315526Y-121590329D01*
X148407924Y-121652067D01*
X148503463Y-121715904D01*
X148725148Y-121760000D01*
X148725152Y-121760000D01*
X148799999Y-121774888D01*
X148874846Y-121760000D01*
X155785199Y-121760000D01*
X156539996Y-122514798D01*
X156539997Y-129825144D01*
X156525108Y-129899996D01*
X156539997Y-129974848D01*
X156584093Y-130196533D01*
X156752068Y-130447925D01*
X156815524Y-130490325D01*
X160590198Y-134265000D01*
X130735000Y-134265000D01*
X130735000Y-116150000D01*
X134502560Y-116150000D01*
X134502560Y-117850000D01*
X134551843Y-118097765D01*
X134692191Y-118307809D01*
X134902235Y-118448157D01*
X135150000Y-118497440D01*
X135240001Y-118497440D01*
X135240000Y-120502560D01*
X135150000Y-120502560D01*
X134902235Y-120551843D01*
X134692191Y-120692191D01*
X134551843Y-120902235D01*
X134502560Y-121150000D01*
X134502560Y-122850000D01*
X134551843Y-123097765D01*
X134692191Y-123307809D01*
X134902235Y-123448157D01*
X135150000Y-123497440D01*
X135240001Y-123497440D01*
X135240000Y-125502560D01*
X135150000Y-125502560D01*
X134902235Y-125551843D01*
X134692191Y-125692191D01*
X134551843Y-125902235D01*
X134502560Y-126150000D01*
X134502560Y-127850000D01*
X134551843Y-128097765D01*
X134692191Y-128307809D01*
X134902235Y-128448157D01*
X135150000Y-128497440D01*
X135240001Y-128497440D01*
X135240000Y-130502560D01*
X135150000Y-130502560D01*
X134902235Y-130551843D01*
X134692191Y-130692191D01*
X134551843Y-130902235D01*
X134502560Y-131150000D01*
X134502560Y-132850000D01*
X134551843Y-133097765D01*
X134692191Y-133307809D01*
X134902235Y-133448157D01*
X135150000Y-133497440D01*
X136850000Y-133497440D01*
X137097765Y-133448157D01*
X137307809Y-133307809D01*
X137448157Y-133097765D01*
X137497440Y-132850000D01*
X137497440Y-131150000D01*
X137448157Y-130902235D01*
X137307809Y-130692191D01*
X137097765Y-130551843D01*
X136850000Y-130502560D01*
X136760000Y-130502560D01*
X136760000Y-128497440D01*
X136850000Y-128497440D01*
X137097765Y-128448157D01*
X137307809Y-128307809D01*
X137448157Y-128097765D01*
X137497440Y-127850000D01*
X137497440Y-126150000D01*
X137448157Y-125902235D01*
X137307809Y-125692191D01*
X137097765Y-125551843D01*
X136850000Y-125502560D01*
X136760000Y-125502560D01*
X136760000Y-124945677D01*
X139825000Y-124945677D01*
X139825000Y-125924325D01*
X140199513Y-126828479D01*
X140891522Y-127520488D01*
X141795676Y-127895001D01*
X142774324Y-127895001D01*
X143678478Y-127520488D01*
X144370487Y-126828479D01*
X144745000Y-125924325D01*
X144745000Y-124945677D01*
X151255000Y-124945677D01*
X151255000Y-125924325D01*
X151629513Y-126828479D01*
X152321522Y-127520488D01*
X153225676Y-127895001D01*
X154204324Y-127895001D01*
X155108478Y-127520488D01*
X155800487Y-126828479D01*
X156175000Y-125924325D01*
X156175000Y-124945677D01*
X155800487Y-124041523D01*
X155108478Y-123349514D01*
X154204324Y-122975001D01*
X153225676Y-122975001D01*
X152321522Y-123349514D01*
X151629513Y-124041523D01*
X151255000Y-124945677D01*
X144745000Y-124945677D01*
X144370487Y-124041523D01*
X143678478Y-123349514D01*
X142774324Y-122975001D01*
X141795676Y-122975001D01*
X140891522Y-123349514D01*
X140199513Y-124041523D01*
X139825000Y-124945677D01*
X136760000Y-124945677D01*
X136760000Y-123497440D01*
X136850000Y-123497440D01*
X137097765Y-123448157D01*
X137307809Y-123307809D01*
X137448157Y-123097765D01*
X137497440Y-122850000D01*
X137497440Y-121150000D01*
X137448157Y-120902235D01*
X137307809Y-120692191D01*
X137097765Y-120551843D01*
X136850000Y-120502560D01*
X136760000Y-120502560D01*
X136760000Y-118497440D01*
X136850000Y-118497440D01*
X137097765Y-118448157D01*
X137307809Y-118307809D01*
X137448157Y-118097765D01*
X137497440Y-117850000D01*
X137497440Y-116150000D01*
X137448157Y-115902235D01*
X137307809Y-115692191D01*
X137097765Y-115551843D01*
X136850000Y-115502560D01*
X135150000Y-115502560D01*
X134902235Y-115551843D01*
X134692191Y-115692191D01*
X134551843Y-115902235D01*
X134502560Y-116150000D01*
X130735000Y-116150000D01*
X130735000Y-90735000D01*
X156595987Y-90735000D01*
X156548601Y-90805919D01*
X156548601Y-90805919D01*
G37*
X156548601Y-90805919D02*
X156490000Y-91100525D01*
X156490000Y-91100529D01*
X156470214Y-91200000D01*
X156490000Y-91299471D01*
X156490000Y-91483860D01*
X155440938Y-91918396D01*
X154418396Y-92940938D01*
X153865000Y-94276954D01*
X153865000Y-95723046D01*
X154418396Y-97059062D01*
X155440938Y-98081604D01*
X156776954Y-98635000D01*
X158223046Y-98635000D01*
X159559062Y-98081604D01*
X160581604Y-97059062D01*
X161135000Y-95723046D01*
X161135000Y-94276954D01*
X160581604Y-92940938D01*
X159559062Y-91918396D01*
X159055950Y-91710000D01*
X187781645Y-91710000D01*
X188290001Y-92218357D01*
X188290000Y-115680291D01*
X188097765Y-115551843D01*
X187850000Y-115502560D01*
X186150000Y-115502560D01*
X185902235Y-115551843D01*
X185692191Y-115692191D01*
X185551843Y-115902235D01*
X185542816Y-115947619D01*
X185530625Y-115929375D01*
X185039418Y-115601161D01*
X184606256Y-115515000D01*
X184313744Y-115515000D01*
X183880582Y-115601161D01*
X183389375Y-115929375D01*
X183061161Y-116420582D01*
X182945908Y-117000000D01*
X183061161Y-117579418D01*
X183389375Y-118070625D01*
X183880582Y-118398839D01*
X184313744Y-118485000D01*
X184606256Y-118485000D01*
X185039418Y-118398839D01*
X185530625Y-118070625D01*
X185542816Y-118052381D01*
X185551843Y-118097765D01*
X185692191Y-118307809D01*
X185902235Y-118448157D01*
X186150000Y-118497440D01*
X187850000Y-118497440D01*
X188097765Y-118448157D01*
X188290000Y-118319709D01*
X188290000Y-119081645D01*
X186869085Y-120502560D01*
X186150000Y-120502560D01*
X185902235Y-120551843D01*
X185692191Y-120692191D01*
X185551843Y-120902235D01*
X185502560Y-121150000D01*
X185502560Y-122850000D01*
X185551843Y-123097765D01*
X185692191Y-123307809D01*
X185902235Y-123448157D01*
X186150000Y-123497440D01*
X187850000Y-123497440D01*
X188097765Y-123448157D01*
X188307809Y-123307809D01*
X188448157Y-123097765D01*
X188497440Y-122850000D01*
X188497440Y-121730915D01*
X189265001Y-120963354D01*
X189265001Y-134265000D01*
X185772720Y-134265000D01*
X185947929Y-134147929D01*
X185990331Y-134084470D01*
X186577361Y-133497440D01*
X187850000Y-133497440D01*
X188097765Y-133448157D01*
X188307809Y-133307809D01*
X188448157Y-133097765D01*
X188497440Y-132850000D01*
X188497440Y-131150000D01*
X188448157Y-130902235D01*
X188307809Y-130692191D01*
X188097765Y-130551843D01*
X187850000Y-130502560D01*
X186150000Y-130502560D01*
X185902235Y-130551843D01*
X185692191Y-130692191D01*
X185551843Y-130902235D01*
X185542816Y-130947619D01*
X185530625Y-130929375D01*
X185039418Y-130601161D01*
X184606256Y-130515000D01*
X184313744Y-130515000D01*
X183880582Y-130601161D01*
X183389375Y-130929375D01*
X183190000Y-131227761D01*
X182990625Y-130929375D01*
X182499418Y-130601161D01*
X182066256Y-130515000D01*
X181773744Y-130515000D01*
X181340582Y-130601161D01*
X180849375Y-130929375D01*
X180521161Y-131420582D01*
X180405908Y-132000000D01*
X180521161Y-132579418D01*
X180695276Y-132840000D01*
X173914802Y-132840000D01*
X173560000Y-132485199D01*
X173560000Y-128674846D01*
X173574888Y-128599999D01*
X173560000Y-128525152D01*
X173560000Y-128525148D01*
X173515904Y-128303463D01*
X173347929Y-128052071D01*
X173284473Y-128009671D01*
X172990331Y-127715529D01*
X172947929Y-127652071D01*
X172696537Y-127484096D01*
X172474852Y-127440000D01*
X172474847Y-127440000D01*
X172400000Y-127425112D01*
X172325153Y-127440000D01*
X164374846Y-127440000D01*
X164299999Y-127425112D01*
X164225152Y-127440000D01*
X164225148Y-127440000D01*
X164003463Y-127484096D01*
X163752071Y-127652071D01*
X163709671Y-127715528D01*
X163345527Y-128079671D01*
X163282072Y-128122071D01*
X163239672Y-128185527D01*
X163239671Y-128185528D01*
X163188967Y-128261412D01*
X163045460Y-128320854D01*
X162655853Y-128710461D01*
X162445000Y-129219507D01*
X162445000Y-129770495D01*
X162655853Y-130279541D01*
X163045460Y-130669148D01*
X163554506Y-130880001D01*
X164105494Y-130880001D01*
X164614540Y-130669148D01*
X165004147Y-130279541D01*
X165100000Y-130048131D01*
X165195853Y-130279541D01*
X165585460Y-130669148D01*
X166094506Y-130880001D01*
X166645494Y-130880001D01*
X167154540Y-130669148D01*
X167544147Y-130279541D01*
X167755000Y-129770495D01*
X167755000Y-129219507D01*
X167647509Y-128960000D01*
X170052560Y-128960000D01*
X170052560Y-130245001D01*
X170101843Y-130492766D01*
X170206905Y-130650001D01*
X169904506Y-130650001D01*
X169395460Y-130860854D01*
X169005853Y-131250461D01*
X168910000Y-131481871D01*
X168814147Y-131250461D01*
X168424540Y-130860854D01*
X167915494Y-130650001D01*
X167364506Y-130650001D01*
X166855460Y-130860854D01*
X166465853Y-131250461D01*
X166370000Y-131481871D01*
X166274147Y-131250461D01*
X165884540Y-130860854D01*
X165375494Y-130650001D01*
X164824506Y-130650001D01*
X164315460Y-130860854D01*
X163925853Y-131250461D01*
X163830000Y-131481871D01*
X163734147Y-131250461D01*
X163344540Y-130860854D01*
X162835494Y-130650001D01*
X162284506Y-130650001D01*
X162259967Y-130660165D01*
X159460000Y-127860200D01*
X159460000Y-127000000D01*
X177865908Y-127000000D01*
X177981161Y-127579418D01*
X178309375Y-128070625D01*
X178800582Y-128398839D01*
X179233744Y-128485000D01*
X179526256Y-128485000D01*
X179959418Y-128398839D01*
X180450625Y-128070625D01*
X180650000Y-127772239D01*
X180849375Y-128070625D01*
X181340582Y-128398839D01*
X181773744Y-128485000D01*
X182066256Y-128485000D01*
X182499418Y-128398839D01*
X182990625Y-128070625D01*
X183190000Y-127772239D01*
X183389375Y-128070625D01*
X183880582Y-128398839D01*
X184313744Y-128485000D01*
X184606256Y-128485000D01*
X185039418Y-128398839D01*
X185530625Y-128070625D01*
X185858839Y-127579418D01*
X185974092Y-127000000D01*
X185858839Y-126420582D01*
X185530625Y-125929375D01*
X185039418Y-125601161D01*
X184606256Y-125515000D01*
X184313744Y-125515000D01*
X183880582Y-125601161D01*
X183389375Y-125929375D01*
X183190000Y-126227761D01*
X182990625Y-125929375D01*
X182499418Y-125601161D01*
X182066256Y-125515000D01*
X181773744Y-125515000D01*
X181340582Y-125601161D01*
X180849375Y-125929375D01*
X180650000Y-126227761D01*
X180450625Y-125929375D01*
X179959418Y-125601161D01*
X179526256Y-125515000D01*
X179233744Y-125515000D01*
X178800582Y-125601161D01*
X178309375Y-125929375D01*
X177981161Y-126420582D01*
X177865908Y-127000000D01*
X159460000Y-127000000D01*
X159460000Y-124798966D01*
X159891522Y-125230488D01*
X160795676Y-125605001D01*
X161774324Y-125605001D01*
X162678478Y-125230488D01*
X163370487Y-124538479D01*
X163745000Y-123634325D01*
X163745000Y-122655677D01*
X170255000Y-122655677D01*
X170255000Y-123634325D01*
X170629513Y-124538479D01*
X171321522Y-125230488D01*
X172225676Y-125605001D01*
X173204324Y-125605001D01*
X174108478Y-125230488D01*
X174800487Y-124538479D01*
X175175000Y-123634325D01*
X175175000Y-122655677D01*
X174903410Y-122000000D01*
X177865908Y-122000000D01*
X177981161Y-122579418D01*
X178309375Y-123070625D01*
X178800582Y-123398839D01*
X179233744Y-123485000D01*
X179526256Y-123485000D01*
X179959418Y-123398839D01*
X180450625Y-123070625D01*
X180650000Y-122772239D01*
X180849375Y-123070625D01*
X181340582Y-123398839D01*
X181773744Y-123485000D01*
X182066256Y-123485000D01*
X182499418Y-123398839D01*
X182990625Y-123070625D01*
X183318839Y-122579418D01*
X183434092Y-122000000D01*
X183318839Y-121420582D01*
X182990625Y-120929375D01*
X182499418Y-120601161D01*
X182066256Y-120515000D01*
X181773744Y-120515000D01*
X181340582Y-120601161D01*
X180849375Y-120929375D01*
X180650000Y-121227761D01*
X180450625Y-120929375D01*
X179959418Y-120601161D01*
X179526256Y-120515000D01*
X179233744Y-120515000D01*
X178800582Y-120601161D01*
X178309375Y-120929375D01*
X177981161Y-121420582D01*
X177865908Y-122000000D01*
X174903410Y-122000000D01*
X174800487Y-121751523D01*
X174108478Y-121059514D01*
X173204324Y-120685001D01*
X172225676Y-120685001D01*
X171321522Y-121059514D01*
X170629513Y-121751523D01*
X170255000Y-122655677D01*
X163745000Y-122655677D01*
X163370487Y-121751523D01*
X162678478Y-121059514D01*
X161774324Y-120685001D01*
X160795676Y-120685001D01*
X159891522Y-121059514D01*
X159460000Y-121491036D01*
X159460000Y-117974847D01*
X159474888Y-117900000D01*
X159460000Y-117825153D01*
X159460000Y-117825148D01*
X159415904Y-117603463D01*
X159247929Y-117352071D01*
X159184473Y-117309671D01*
X157935332Y-116060531D01*
X157892930Y-115997072D01*
X157641538Y-115829097D01*
X157419853Y-115785001D01*
X157419848Y-115785001D01*
X157345001Y-115770113D01*
X157270154Y-115785001D01*
X153624312Y-115785001D01*
X153614147Y-115760461D01*
X153224540Y-115370854D01*
X153200000Y-115360689D01*
X153200000Y-114314846D01*
X153214888Y-114239999D01*
X153200000Y-114165152D01*
X153200000Y-114165148D01*
X153155904Y-113943463D01*
X153114102Y-113880902D01*
X153030329Y-113755526D01*
X153030327Y-113755524D01*
X152987929Y-113692071D01*
X152924475Y-113649673D01*
X152190331Y-112915529D01*
X152147929Y-112852071D01*
X151896537Y-112684096D01*
X151674852Y-112640000D01*
X151674847Y-112640000D01*
X151600000Y-112625112D01*
X151525153Y-112640000D01*
X143503711Y-112640000D01*
X143386280Y-112522569D01*
X143005874Y-112365000D01*
X142594126Y-112365000D01*
X142213720Y-112522569D01*
X142096289Y-112640000D01*
X138614802Y-112640000D01*
X138360000Y-112385198D01*
X138360000Y-105594126D01*
X144265000Y-105594126D01*
X144265000Y-106005874D01*
X144422569Y-106386280D01*
X144571996Y-106535707D01*
X144584096Y-106596536D01*
X144752071Y-106847929D01*
X144815530Y-106890331D01*
X145509670Y-107584472D01*
X145552071Y-107647929D01*
X145615527Y-107690329D01*
X145803462Y-107815904D01*
X145851605Y-107825480D01*
X146025148Y-107860000D01*
X146025152Y-107860000D01*
X146100000Y-107874888D01*
X146174848Y-107860000D01*
X153485199Y-107860000D01*
X153765000Y-108139802D01*
X153765000Y-108305874D01*
X153922569Y-108686280D01*
X154213720Y-108977431D01*
X154594126Y-109135000D01*
X155005874Y-109135000D01*
X155386280Y-108977431D01*
X155677431Y-108686280D01*
X155835000Y-108305874D01*
X155835000Y-107894126D01*
X155677431Y-107513720D01*
X155386280Y-107222569D01*
X155005874Y-107065000D01*
X154839802Y-107065000D01*
X154390331Y-106615530D01*
X154347929Y-106552071D01*
X154096537Y-106384096D01*
X153874852Y-106340000D01*
X153874847Y-106340000D01*
X153800000Y-106325112D01*
X153725153Y-106340000D01*
X146414802Y-106340000D01*
X146260510Y-106185709D01*
X146335000Y-106005874D01*
X146335000Y-105594126D01*
X146177431Y-105213720D01*
X145886280Y-104922569D01*
X145505874Y-104765000D01*
X145094126Y-104765000D01*
X144713720Y-104922569D01*
X144422569Y-105213720D01*
X144265000Y-105594126D01*
X138360000Y-105594126D01*
X138360000Y-100774848D01*
X138374888Y-100700000D01*
X138360000Y-100625152D01*
X138360000Y-100625148D01*
X138315904Y-100403463D01*
X138315904Y-100403462D01*
X138190329Y-100215527D01*
X138147929Y-100152071D01*
X138084473Y-100109671D01*
X137868928Y-99894126D01*
X147365000Y-99894126D01*
X147365000Y-100305874D01*
X147522569Y-100686280D01*
X147813720Y-100977431D01*
X148194126Y-101135000D01*
X148605874Y-101135000D01*
X148986280Y-100977431D01*
X149277431Y-100686280D01*
X149288317Y-100660000D01*
X157365000Y-100660000D01*
X157365000Y-100705874D01*
X157522569Y-101086280D01*
X157813720Y-101377431D01*
X158194126Y-101535000D01*
X158605874Y-101535000D01*
X158986280Y-101377431D01*
X159277431Y-101086280D01*
X159435000Y-100705874D01*
X159435000Y-100294126D01*
X159277431Y-99913720D01*
X158986280Y-99622569D01*
X158605874Y-99465000D01*
X158439801Y-99465000D01*
X158390331Y-99415530D01*
X158347929Y-99352071D01*
X158096537Y-99184096D01*
X157874852Y-99140000D01*
X157874847Y-99140000D01*
X157800000Y-99125112D01*
X157725153Y-99140000D01*
X148786940Y-99140000D01*
X148605874Y-99065000D01*
X148194126Y-99065000D01*
X147813720Y-99222569D01*
X147522569Y-99513720D01*
X147365000Y-99894126D01*
X137868928Y-99894126D01*
X136680000Y-98705199D01*
X136680000Y-98278178D01*
X136990625Y-98070625D01*
X137190000Y-97772239D01*
X137389375Y-98070625D01*
X137880582Y-98398839D01*
X138313744Y-98485000D01*
X138606256Y-98485000D01*
X139039418Y-98398839D01*
X139530625Y-98070625D01*
X139542816Y-98052381D01*
X139551843Y-98097765D01*
X139692191Y-98307809D01*
X139902235Y-98448157D01*
X140150000Y-98497440D01*
X141850000Y-98497440D01*
X142097765Y-98448157D01*
X142307809Y-98307809D01*
X142448157Y-98097765D01*
X142497440Y-97850000D01*
X142497440Y-96150000D01*
X142448157Y-95902235D01*
X142307809Y-95692191D01*
X142097765Y-95551843D01*
X141850000Y-95502560D01*
X140150000Y-95502560D01*
X139902235Y-95551843D01*
X139692191Y-95692191D01*
X139551843Y-95902235D01*
X139542816Y-95947619D01*
X139530625Y-95929375D01*
X139039418Y-95601161D01*
X138606256Y-95515000D01*
X138313744Y-95515000D01*
X137880582Y-95601161D01*
X137389375Y-95929375D01*
X137190000Y-96227761D01*
X136990625Y-95929375D01*
X136499418Y-95601161D01*
X136066256Y-95515000D01*
X135773744Y-95515000D01*
X135340582Y-95601161D01*
X134849375Y-95929375D01*
X134521161Y-96420582D01*
X134405908Y-97000000D01*
X134521161Y-97579418D01*
X134849375Y-98070625D01*
X135160000Y-98278178D01*
X135160000Y-98945153D01*
X135145112Y-99020000D01*
X135160000Y-99094847D01*
X135160000Y-99094851D01*
X135204096Y-99316536D01*
X135372071Y-99567929D01*
X135435530Y-99610331D01*
X136840001Y-101014803D01*
X136840000Y-112625153D01*
X136825112Y-112700000D01*
X136840000Y-112774847D01*
X136840000Y-112774851D01*
X136884096Y-112996536D01*
X137052071Y-113247929D01*
X137115529Y-113290330D01*
X137709672Y-113884475D01*
X137752071Y-113947929D01*
X137815524Y-113990327D01*
X137815526Y-113990329D01*
X137940902Y-114074102D01*
X138003463Y-114115904D01*
X138225148Y-114160000D01*
X138225152Y-114160000D01*
X138299999Y-114174888D01*
X138374846Y-114160000D01*
X142096289Y-114160000D01*
X142213720Y-114277431D01*
X142594126Y-114435000D01*
X143005874Y-114435000D01*
X143386280Y-114277431D01*
X143503711Y-114160000D01*
X151285198Y-114160000D01*
X151680001Y-114554803D01*
X151680001Y-115360689D01*
X151655460Y-115370854D01*
X151265853Y-115760461D01*
X151170000Y-115991871D01*
X151074147Y-115760461D01*
X150684540Y-115370854D01*
X150175494Y-115160001D01*
X149624506Y-115160001D01*
X149115460Y-115370854D01*
X148725853Y-115760461D01*
X148630000Y-115991871D01*
X148534147Y-115760461D01*
X148144540Y-115370854D01*
X147635494Y-115160001D01*
X147084506Y-115160001D01*
X146575460Y-115370854D01*
X146185853Y-115760461D01*
X146090000Y-115991871D01*
X145994147Y-115760461D01*
X145604540Y-115370854D01*
X145095494Y-115160001D01*
X144544506Y-115160001D01*
X144035460Y-115370854D01*
X143645853Y-115760461D01*
X143435000Y-116269507D01*
X143435000Y-116820495D01*
X143645853Y-117329541D01*
X144003873Y-117687561D01*
X142800000Y-117687561D01*
X142552235Y-117736844D01*
X142342191Y-117877192D01*
X142201843Y-118087236D01*
X142152560Y-118335001D01*
X142152560Y-119835001D01*
X142201843Y-120082766D01*
X142342191Y-120292810D01*
X142552235Y-120433158D01*
X142800000Y-120482441D01*
X144300000Y-120482441D01*
X144547765Y-120433158D01*
X144757809Y-120292810D01*
X144898157Y-120082766D01*
X144947440Y-119835001D01*
X144947440Y-118335001D01*
X144898157Y-118087236D01*
X144793095Y-117930001D01*
X145095494Y-117930001D01*
X145561977Y-117736778D01*
X146540000Y-118714802D01*
X146540001Y-119425149D01*
X146525112Y-119500000D01*
X146584097Y-119796537D01*
X146688022Y-119952071D01*
X146752072Y-120047929D01*
X146815528Y-120090329D01*
X148209673Y-121484476D01*
X148252071Y-121547929D01*
X148315524Y-121590327D01*
X148315526Y-121590329D01*
X148407924Y-121652067D01*
X148503463Y-121715904D01*
X148725148Y-121760000D01*
X148725152Y-121760000D01*
X148799999Y-121774888D01*
X148874846Y-121760000D01*
X155785199Y-121760000D01*
X156539996Y-122514798D01*
X156539997Y-129825144D01*
X156525108Y-129899996D01*
X156539997Y-129974848D01*
X156584093Y-130196533D01*
X156752068Y-130447925D01*
X156815524Y-130490325D01*
X160590198Y-134265000D01*
X130735000Y-134265000D01*
X130735000Y-116150000D01*
X134502560Y-116150000D01*
X134502560Y-117850000D01*
X134551843Y-118097765D01*
X134692191Y-118307809D01*
X134902235Y-118448157D01*
X135150000Y-118497440D01*
X135240001Y-118497440D01*
X135240000Y-120502560D01*
X135150000Y-120502560D01*
X134902235Y-120551843D01*
X134692191Y-120692191D01*
X134551843Y-120902235D01*
X134502560Y-121150000D01*
X134502560Y-122850000D01*
X134551843Y-123097765D01*
X134692191Y-123307809D01*
X134902235Y-123448157D01*
X135150000Y-123497440D01*
X135240001Y-123497440D01*
X135240000Y-125502560D01*
X135150000Y-125502560D01*
X134902235Y-125551843D01*
X134692191Y-125692191D01*
X134551843Y-125902235D01*
X134502560Y-126150000D01*
X134502560Y-127850000D01*
X134551843Y-128097765D01*
X134692191Y-128307809D01*
X134902235Y-128448157D01*
X135150000Y-128497440D01*
X135240001Y-128497440D01*
X135240000Y-130502560D01*
X135150000Y-130502560D01*
X134902235Y-130551843D01*
X134692191Y-130692191D01*
X134551843Y-130902235D01*
X134502560Y-131150000D01*
X134502560Y-132850000D01*
X134551843Y-133097765D01*
X134692191Y-133307809D01*
X134902235Y-133448157D01*
X135150000Y-133497440D01*
X136850000Y-133497440D01*
X137097765Y-133448157D01*
X137307809Y-133307809D01*
X137448157Y-133097765D01*
X137497440Y-132850000D01*
X137497440Y-131150000D01*
X137448157Y-130902235D01*
X137307809Y-130692191D01*
X137097765Y-130551843D01*
X136850000Y-130502560D01*
X136760000Y-130502560D01*
X136760000Y-128497440D01*
X136850000Y-128497440D01*
X137097765Y-128448157D01*
X137307809Y-128307809D01*
X137448157Y-128097765D01*
X137497440Y-127850000D01*
X137497440Y-126150000D01*
X137448157Y-125902235D01*
X137307809Y-125692191D01*
X137097765Y-125551843D01*
X136850000Y-125502560D01*
X136760000Y-125502560D01*
X136760000Y-124945677D01*
X139825000Y-124945677D01*
X139825000Y-125924325D01*
X140199513Y-126828479D01*
X140891522Y-127520488D01*
X141795676Y-127895001D01*
X142774324Y-127895001D01*
X143678478Y-127520488D01*
X144370487Y-126828479D01*
X144745000Y-125924325D01*
X144745000Y-124945677D01*
X151255000Y-124945677D01*
X151255000Y-125924325D01*
X151629513Y-126828479D01*
X152321522Y-127520488D01*
X153225676Y-127895001D01*
X154204324Y-127895001D01*
X155108478Y-127520488D01*
X155800487Y-126828479D01*
X156175000Y-125924325D01*
X156175000Y-124945677D01*
X155800487Y-124041523D01*
X155108478Y-123349514D01*
X154204324Y-122975001D01*
X153225676Y-122975001D01*
X152321522Y-123349514D01*
X151629513Y-124041523D01*
X151255000Y-124945677D01*
X144745000Y-124945677D01*
X144370487Y-124041523D01*
X143678478Y-123349514D01*
X142774324Y-122975001D01*
X141795676Y-122975001D01*
X140891522Y-123349514D01*
X140199513Y-124041523D01*
X139825000Y-124945677D01*
X136760000Y-124945677D01*
X136760000Y-123497440D01*
X136850000Y-123497440D01*
X137097765Y-123448157D01*
X137307809Y-123307809D01*
X137448157Y-123097765D01*
X137497440Y-122850000D01*
X137497440Y-121150000D01*
X137448157Y-120902235D01*
X137307809Y-120692191D01*
X137097765Y-120551843D01*
X136850000Y-120502560D01*
X136760000Y-120502560D01*
X136760000Y-118497440D01*
X136850000Y-118497440D01*
X137097765Y-118448157D01*
X137307809Y-118307809D01*
X137448157Y-118097765D01*
X137497440Y-117850000D01*
X137497440Y-116150000D01*
X137448157Y-115902235D01*
X137307809Y-115692191D01*
X137097765Y-115551843D01*
X136850000Y-115502560D01*
X135150000Y-115502560D01*
X134902235Y-115551843D01*
X134692191Y-115692191D01*
X134551843Y-115902235D01*
X134502560Y-116150000D01*
X130735000Y-116150000D01*
X130735000Y-90735000D01*
X156595987Y-90735000D01*
X156548601Y-90805919D01*
G04 #@! TD*
M02*
