G04 #@! TF.GenerationSoftware,KiCad,Pcbnew,(5.0.0)*
G04 #@! TF.CreationDate,2018-11-06T14:57:09-07:00*
G04 #@! TF.ProjectId,PDU-Board,5044552D426F6172642E6B696361645F,rev?*
G04 #@! TF.SameCoordinates,Original*
G04 #@! TF.FileFunction,Legend,Top*
G04 #@! TF.FilePolarity,Positive*
%FSLAX46Y46*%
G04 Gerber Fmt 4.6, Leading zero omitted, Abs format (unit mm)*
G04 Created by KiCad (PCBNEW (5.0.0)) date 11/06/18 14:57:09*
%MOMM*%
%LPD*%
G01*
G04 APERTURE LIST*
%ADD10C,0.300000*%
%ADD11C,0.200000*%
%ADD12C,0.150000*%
%ADD13C,0.100000*%
G04 APERTURE END LIST*
D10*
X116454285Y-71370000D02*
X117168571Y-71370000D01*
X116311428Y-71798571D02*
X116811428Y-70298571D01*
X117311428Y-71798571D01*
X117811428Y-71798571D02*
X117811428Y-70798571D01*
X117811428Y-70298571D02*
X117740000Y-70370000D01*
X117811428Y-70441428D01*
X117882857Y-70370000D01*
X117811428Y-70298571D01*
X117811428Y-70441428D01*
X118525714Y-71798571D02*
X118525714Y-70798571D01*
X118525714Y-71084285D02*
X118597142Y-70941428D01*
X118668571Y-70870000D01*
X118811428Y-70798571D01*
X118954285Y-70798571D01*
X119311428Y-70798571D02*
X120097142Y-70798571D01*
X119311428Y-71798571D01*
X120097142Y-71798571D01*
X120882857Y-71798571D02*
X120740000Y-71727142D01*
X120668571Y-71655714D01*
X120597142Y-71512857D01*
X120597142Y-71084285D01*
X120668571Y-70941428D01*
X120740000Y-70870000D01*
X120882857Y-70798571D01*
X121097142Y-70798571D01*
X121240000Y-70870000D01*
X121311428Y-70941428D01*
X121382857Y-71084285D01*
X121382857Y-71512857D01*
X121311428Y-71655714D01*
X121240000Y-71727142D01*
X121097142Y-71798571D01*
X120882857Y-71798571D01*
X122025714Y-70798571D02*
X122025714Y-71798571D01*
X122025714Y-70941428D02*
X122097142Y-70870000D01*
X122240000Y-70798571D01*
X122454285Y-70798571D01*
X122597142Y-70870000D01*
X122668571Y-71012857D01*
X122668571Y-71798571D01*
X124025714Y-71798571D02*
X124025714Y-71012857D01*
X123954285Y-70870000D01*
X123811428Y-70798571D01*
X123525714Y-70798571D01*
X123382857Y-70870000D01*
X124025714Y-71727142D02*
X123882857Y-71798571D01*
X123525714Y-71798571D01*
X123382857Y-71727142D01*
X123311428Y-71584285D01*
X123311428Y-71441428D01*
X123382857Y-71298571D01*
X123525714Y-71227142D01*
X123882857Y-71227142D01*
X124025714Y-71155714D01*
X125811428Y-71727142D02*
X126025714Y-71798571D01*
X126382857Y-71798571D01*
X126525714Y-71727142D01*
X126597142Y-71655714D01*
X126668571Y-71512857D01*
X126668571Y-71370000D01*
X126597142Y-71227142D01*
X126525714Y-71155714D01*
X126382857Y-71084285D01*
X126097142Y-71012857D01*
X125954285Y-70941428D01*
X125882857Y-70870000D01*
X125811428Y-70727142D01*
X125811428Y-70584285D01*
X125882857Y-70441428D01*
X125954285Y-70370000D01*
X126097142Y-70298571D01*
X126454285Y-70298571D01*
X126668571Y-70370000D01*
X127097142Y-70798571D02*
X127668571Y-70798571D01*
X127311428Y-70298571D02*
X127311428Y-71584285D01*
X127382857Y-71727142D01*
X127525714Y-71798571D01*
X127668571Y-71798571D01*
X128811428Y-71798571D02*
X128811428Y-71012857D01*
X128740000Y-70870000D01*
X128597142Y-70798571D01*
X128311428Y-70798571D01*
X128168571Y-70870000D01*
X128811428Y-71727142D02*
X128668571Y-71798571D01*
X128311428Y-71798571D01*
X128168571Y-71727142D01*
X128097142Y-71584285D01*
X128097142Y-71441428D01*
X128168571Y-71298571D01*
X128311428Y-71227142D01*
X128668571Y-71227142D01*
X128811428Y-71155714D01*
X129311428Y-70798571D02*
X129882857Y-70798571D01*
X129525714Y-70298571D02*
X129525714Y-71584285D01*
X129597142Y-71727142D01*
X129740000Y-71798571D01*
X129882857Y-71798571D01*
X130954285Y-71727142D02*
X130811428Y-71798571D01*
X130525714Y-71798571D01*
X130382857Y-71727142D01*
X130311428Y-71584285D01*
X130311428Y-71012857D01*
X130382857Y-70870000D01*
X130525714Y-70798571D01*
X130811428Y-70798571D01*
X130954285Y-70870000D01*
X131025714Y-71012857D01*
X131025714Y-71155714D01*
X130311428Y-71298571D01*
X132811428Y-70298571D02*
X132811428Y-71512857D01*
X132882857Y-71655714D01*
X132954285Y-71727142D01*
X133097142Y-71798571D01*
X133382857Y-71798571D01*
X133525714Y-71727142D01*
X133597142Y-71655714D01*
X133668571Y-71512857D01*
X133668571Y-70298571D01*
X134382857Y-70798571D02*
X134382857Y-71798571D01*
X134382857Y-70941428D02*
X134454285Y-70870000D01*
X134597142Y-70798571D01*
X134811428Y-70798571D01*
X134954285Y-70870000D01*
X135025714Y-71012857D01*
X135025714Y-71798571D01*
X136382857Y-71798571D02*
X136382857Y-70298571D01*
X136382857Y-71727142D02*
X136240000Y-71798571D01*
X135954285Y-71798571D01*
X135811428Y-71727142D01*
X135740000Y-71655714D01*
X135668571Y-71512857D01*
X135668571Y-71084285D01*
X135740000Y-70941428D01*
X135811428Y-70870000D01*
X135954285Y-70798571D01*
X136240000Y-70798571D01*
X136382857Y-70870000D01*
X137668571Y-71727142D02*
X137525714Y-71798571D01*
X137240000Y-71798571D01*
X137097142Y-71727142D01*
X137025714Y-71584285D01*
X137025714Y-71012857D01*
X137097142Y-70870000D01*
X137240000Y-70798571D01*
X137525714Y-70798571D01*
X137668571Y-70870000D01*
X137740000Y-71012857D01*
X137740000Y-71155714D01*
X137025714Y-71298571D01*
X138382857Y-71798571D02*
X138382857Y-70798571D01*
X138382857Y-71084285D02*
X138454285Y-70941428D01*
X138525714Y-70870000D01*
X138668571Y-70798571D01*
X138811428Y-70798571D01*
X139168571Y-70798571D02*
X139454285Y-71798571D01*
X139740000Y-71084285D01*
X140025714Y-71798571D01*
X140311428Y-70798571D01*
X141525714Y-71798571D02*
X141525714Y-71012857D01*
X141454285Y-70870000D01*
X141311428Y-70798571D01*
X141025714Y-70798571D01*
X140882857Y-70870000D01*
X141525714Y-71727142D02*
X141382857Y-71798571D01*
X141025714Y-71798571D01*
X140882857Y-71727142D01*
X140811428Y-71584285D01*
X140811428Y-71441428D01*
X140882857Y-71298571D01*
X141025714Y-71227142D01*
X141382857Y-71227142D01*
X141525714Y-71155714D01*
X142025714Y-70798571D02*
X142597142Y-70798571D01*
X142240000Y-70298571D02*
X142240000Y-71584285D01*
X142311428Y-71727142D01*
X142454285Y-71798571D01*
X142597142Y-71798571D01*
X143668571Y-71727142D02*
X143525714Y-71798571D01*
X143240000Y-71798571D01*
X143097142Y-71727142D01*
X143025714Y-71584285D01*
X143025714Y-71012857D01*
X143097142Y-70870000D01*
X143240000Y-70798571D01*
X143525714Y-70798571D01*
X143668571Y-70870000D01*
X143740000Y-71012857D01*
X143740000Y-71155714D01*
X143025714Y-71298571D01*
X144382857Y-71798571D02*
X144382857Y-70798571D01*
X144382857Y-71084285D02*
X144454285Y-70941428D01*
X144525714Y-70870000D01*
X144668571Y-70798571D01*
X144811428Y-70798571D01*
X147311428Y-71798571D02*
X146811428Y-71084285D01*
X146454285Y-71798571D02*
X146454285Y-70298571D01*
X147025714Y-70298571D01*
X147168571Y-70370000D01*
X147240000Y-70441428D01*
X147311428Y-70584285D01*
X147311428Y-70798571D01*
X147240000Y-70941428D01*
X147168571Y-71012857D01*
X147025714Y-71084285D01*
X146454285Y-71084285D01*
X148168571Y-71798571D02*
X148025714Y-71727142D01*
X147954285Y-71655714D01*
X147882857Y-71512857D01*
X147882857Y-71084285D01*
X147954285Y-70941428D01*
X148025714Y-70870000D01*
X148168571Y-70798571D01*
X148382857Y-70798571D01*
X148525714Y-70870000D01*
X148597142Y-70941428D01*
X148668571Y-71084285D01*
X148668571Y-71512857D01*
X148597142Y-71655714D01*
X148525714Y-71727142D01*
X148382857Y-71798571D01*
X148168571Y-71798571D01*
X149311428Y-71798571D02*
X149311428Y-70298571D01*
X149311428Y-70870000D02*
X149454285Y-70798571D01*
X149740000Y-70798571D01*
X149882857Y-70870000D01*
X149954285Y-70941428D01*
X150025714Y-71084285D01*
X150025714Y-71512857D01*
X149954285Y-71655714D01*
X149882857Y-71727142D01*
X149740000Y-71798571D01*
X149454285Y-71798571D01*
X149311428Y-71727142D01*
X150882857Y-71798571D02*
X150740000Y-71727142D01*
X150668571Y-71655714D01*
X150597142Y-71512857D01*
X150597142Y-71084285D01*
X150668571Y-70941428D01*
X150740000Y-70870000D01*
X150882857Y-70798571D01*
X151097142Y-70798571D01*
X151240000Y-70870000D01*
X151311428Y-70941428D01*
X151382857Y-71084285D01*
X151382857Y-71512857D01*
X151311428Y-71655714D01*
X151240000Y-71727142D01*
X151097142Y-71798571D01*
X150882857Y-71798571D01*
X151811428Y-70798571D02*
X152382857Y-70798571D01*
X152025714Y-70298571D02*
X152025714Y-71584285D01*
X152097142Y-71727142D01*
X152240000Y-71798571D01*
X152382857Y-71798571D01*
X152882857Y-71798571D02*
X152882857Y-70798571D01*
X152882857Y-70298571D02*
X152811428Y-70370000D01*
X152882857Y-70441428D01*
X152954285Y-70370000D01*
X152882857Y-70298571D01*
X152882857Y-70441428D01*
X154240000Y-71727142D02*
X154097142Y-71798571D01*
X153811428Y-71798571D01*
X153668571Y-71727142D01*
X153597142Y-71655714D01*
X153525714Y-71512857D01*
X153525714Y-71084285D01*
X153597142Y-70941428D01*
X153668571Y-70870000D01*
X153811428Y-70798571D01*
X154097142Y-70798571D01*
X154240000Y-70870000D01*
X154811428Y-71727142D02*
X154954285Y-71798571D01*
X155240000Y-71798571D01*
X155382857Y-71727142D01*
X155454285Y-71584285D01*
X155454285Y-71512857D01*
X155382857Y-71370000D01*
X155240000Y-71298571D01*
X155025714Y-71298571D01*
X154882857Y-71227142D01*
X154811428Y-71084285D01*
X154811428Y-71012857D01*
X154882857Y-70870000D01*
X155025714Y-70798571D01*
X155240000Y-70798571D01*
X155382857Y-70870000D01*
X157240000Y-71798571D02*
X157240000Y-70298571D01*
X157811428Y-70298571D01*
X157954285Y-70370000D01*
X158025714Y-70441428D01*
X158097142Y-70584285D01*
X158097142Y-70798571D01*
X158025714Y-70941428D01*
X157954285Y-71012857D01*
X157811428Y-71084285D01*
X157240000Y-71084285D01*
X158740000Y-71798571D02*
X158740000Y-70298571D01*
X159097142Y-70298571D01*
X159311428Y-70370000D01*
X159454285Y-70512857D01*
X159525714Y-70655714D01*
X159597142Y-70941428D01*
X159597142Y-71155714D01*
X159525714Y-71441428D01*
X159454285Y-71584285D01*
X159311428Y-71727142D01*
X159097142Y-71798571D01*
X158740000Y-71798571D01*
X160240000Y-70298571D02*
X160240000Y-71512857D01*
X160311428Y-71655714D01*
X160382857Y-71727142D01*
X160525714Y-71798571D01*
X160811428Y-71798571D01*
X160954285Y-71727142D01*
X161025714Y-71655714D01*
X161097142Y-71512857D01*
X161097142Y-70298571D01*
X162882857Y-70441428D02*
X162954285Y-70370000D01*
X163097142Y-70298571D01*
X163454285Y-70298571D01*
X163597142Y-70370000D01*
X163668571Y-70441428D01*
X163740000Y-70584285D01*
X163740000Y-70727142D01*
X163668571Y-70941428D01*
X162811428Y-71798571D01*
X163740000Y-71798571D01*
X164668571Y-70298571D02*
X164811428Y-70298571D01*
X164954285Y-70370000D01*
X165025714Y-70441428D01*
X165097142Y-70584285D01*
X165168571Y-70870000D01*
X165168571Y-71227142D01*
X165097142Y-71512857D01*
X165025714Y-71655714D01*
X164954285Y-71727142D01*
X164811428Y-71798571D01*
X164668571Y-71798571D01*
X164525714Y-71727142D01*
X164454285Y-71655714D01*
X164382857Y-71512857D01*
X164311428Y-71227142D01*
X164311428Y-70870000D01*
X164382857Y-70584285D01*
X164454285Y-70441428D01*
X164525714Y-70370000D01*
X164668571Y-70298571D01*
X166597142Y-71798571D02*
X165740000Y-71798571D01*
X166168571Y-71798571D02*
X166168571Y-70298571D01*
X166025714Y-70512857D01*
X165882857Y-70655714D01*
X165740000Y-70727142D01*
X167311428Y-71798571D02*
X167597142Y-71798571D01*
X167740000Y-71727142D01*
X167811428Y-71655714D01*
X167954285Y-71441428D01*
X168025714Y-71155714D01*
X168025714Y-70584285D01*
X167954285Y-70441428D01*
X167882857Y-70370000D01*
X167740000Y-70298571D01*
X167454285Y-70298571D01*
X167311428Y-70370000D01*
X167240000Y-70441428D01*
X167168571Y-70584285D01*
X167168571Y-70941428D01*
X167240000Y-71084285D01*
X167311428Y-71155714D01*
X167454285Y-71227142D01*
X167740000Y-71227142D01*
X167882857Y-71155714D01*
X167954285Y-71084285D01*
X168025714Y-70941428D01*
D11*
X194310000Y-148590000D02*
X114300000Y-148590000D01*
X194310000Y-67310000D02*
X194310000Y-148590000D01*
X114300000Y-67310000D02*
X194310000Y-67310000D01*
X92710000Y-67310000D02*
X114300000Y-67310000D01*
X92710000Y-148590000D02*
X92710000Y-67310000D01*
X114300000Y-148590000D02*
X92710000Y-148590000D01*
D12*
G04 #@! TO.C,30A*
X113030000Y-105410000D02*
X130810000Y-105410000D01*
X130810000Y-105410000D02*
X130810000Y-110490000D01*
X130810000Y-110490000D02*
X113030000Y-110490000D01*
X113030000Y-110490000D02*
X113030000Y-105410000D01*
D13*
G04 #@! TO.C,J0*
X105600000Y-104560000D02*
X105600000Y-108760000D01*
X97600000Y-104260000D02*
X97600000Y-108660000D01*
X101600000Y-99860000D02*
X104000000Y-99860000D01*
X101500000Y-116160000D02*
X101800000Y-116160000D01*
X97600000Y-108660000D02*
X97600000Y-111760000D01*
X97600000Y-111760000D02*
X97600000Y-114160000D01*
X105600000Y-108760000D02*
X105600000Y-111760000D01*
X105600000Y-111760000D02*
X105600000Y-114160000D01*
X101600000Y-116160000D02*
X100350000Y-116160000D01*
X101600000Y-116160000D02*
X102850000Y-116160000D01*
X97600000Y-114160000D02*
X100300000Y-116160000D01*
X105600000Y-114160000D02*
X102900000Y-116160000D01*
X97600000Y-99860000D02*
X101600000Y-99860000D01*
X97600000Y-99960000D02*
X97600000Y-99860000D01*
X97600000Y-100060000D02*
X97600000Y-99960000D01*
X97600000Y-104260000D02*
X97600000Y-100060000D01*
X105600000Y-99860000D02*
X104000000Y-99860000D01*
X105600000Y-104560000D02*
X105600000Y-99860000D01*
G04 #@! TO.C,J1*
X185000000Y-95440000D02*
X189700000Y-95440000D01*
X189700000Y-95440000D02*
X189700000Y-93840000D01*
X185300000Y-87440000D02*
X189500000Y-87440000D01*
X189500000Y-87440000D02*
X189600000Y-87440000D01*
X189600000Y-87440000D02*
X189700000Y-87440000D01*
X189700000Y-87440000D02*
X189700000Y-91440000D01*
X175400000Y-95440000D02*
X173400000Y-92740000D01*
X175400000Y-87440000D02*
X173400000Y-90140000D01*
X173400000Y-91440000D02*
X173400000Y-92690000D01*
X173400000Y-91440000D02*
X173400000Y-90190000D01*
X177800000Y-95440000D02*
X175400000Y-95440000D01*
X180800000Y-95440000D02*
X177800000Y-95440000D01*
X177800000Y-87440000D02*
X175400000Y-87440000D01*
X180900000Y-87440000D02*
X177800000Y-87440000D01*
X173400000Y-91340000D02*
X173400000Y-91640000D01*
X189700000Y-91440000D02*
X189700000Y-93840000D01*
X185300000Y-87440000D02*
X180900000Y-87440000D01*
X185000000Y-95440000D02*
X180800000Y-95440000D01*
G04 #@! TO.C,J2*
X185000000Y-128460000D02*
X180800000Y-128460000D01*
X185300000Y-120460000D02*
X180900000Y-120460000D01*
X189700000Y-124460000D02*
X189700000Y-126860000D01*
X173400000Y-124360000D02*
X173400000Y-124660000D01*
X180900000Y-120460000D02*
X177800000Y-120460000D01*
X177800000Y-120460000D02*
X175400000Y-120460000D01*
X180800000Y-128460000D02*
X177800000Y-128460000D01*
X177800000Y-128460000D02*
X175400000Y-128460000D01*
X173400000Y-124460000D02*
X173400000Y-123210000D01*
X173400000Y-124460000D02*
X173400000Y-125710000D01*
X175400000Y-120460000D02*
X173400000Y-123160000D01*
X175400000Y-128460000D02*
X173400000Y-125760000D01*
X189700000Y-120460000D02*
X189700000Y-124460000D01*
X189600000Y-120460000D02*
X189700000Y-120460000D01*
X189500000Y-120460000D02*
X189600000Y-120460000D01*
X185300000Y-120460000D02*
X189500000Y-120460000D01*
X189700000Y-128460000D02*
X189700000Y-126860000D01*
X185000000Y-128460000D02*
X189700000Y-128460000D01*
G04 #@! TO.C,J3*
X185000000Y-111950000D02*
X189700000Y-111950000D01*
X189700000Y-111950000D02*
X189700000Y-110350000D01*
X185300000Y-103950000D02*
X189500000Y-103950000D01*
X189500000Y-103950000D02*
X189600000Y-103950000D01*
X189600000Y-103950000D02*
X189700000Y-103950000D01*
X189700000Y-103950000D02*
X189700000Y-107950000D01*
X175400000Y-111950000D02*
X173400000Y-109250000D01*
X175400000Y-103950000D02*
X173400000Y-106650000D01*
X173400000Y-107950000D02*
X173400000Y-109200000D01*
X173400000Y-107950000D02*
X173400000Y-106700000D01*
X177800000Y-111950000D02*
X175400000Y-111950000D01*
X180800000Y-111950000D02*
X177800000Y-111950000D01*
X177800000Y-103950000D02*
X175400000Y-103950000D01*
X180900000Y-103950000D02*
X177800000Y-103950000D01*
X173400000Y-107850000D02*
X173400000Y-108150000D01*
X189700000Y-107950000D02*
X189700000Y-110350000D01*
X185300000Y-103950000D02*
X180900000Y-103950000D01*
X185000000Y-111950000D02*
X180800000Y-111950000D01*
G04 #@! TO.C,30A*
D12*
X120681904Y-112482380D02*
X121300952Y-112482380D01*
X120967619Y-112863333D01*
X121110476Y-112863333D01*
X121205714Y-112910952D01*
X121253333Y-112958571D01*
X121300952Y-113053809D01*
X121300952Y-113291904D01*
X121253333Y-113387142D01*
X121205714Y-113434761D01*
X121110476Y-113482380D01*
X120824761Y-113482380D01*
X120729523Y-113434761D01*
X120681904Y-113387142D01*
X121920000Y-112482380D02*
X122015238Y-112482380D01*
X122110476Y-112530000D01*
X122158095Y-112577619D01*
X122205714Y-112672857D01*
X122253333Y-112863333D01*
X122253333Y-113101428D01*
X122205714Y-113291904D01*
X122158095Y-113387142D01*
X122110476Y-113434761D01*
X122015238Y-113482380D01*
X121920000Y-113482380D01*
X121824761Y-113434761D01*
X121777142Y-113387142D01*
X121729523Y-113291904D01*
X121681904Y-113101428D01*
X121681904Y-112863333D01*
X121729523Y-112672857D01*
X121777142Y-112577619D01*
X121824761Y-112530000D01*
X121920000Y-112482380D01*
X122634285Y-113196666D02*
X123110476Y-113196666D01*
X122539047Y-113482380D02*
X122872380Y-112482380D01*
X123205714Y-113482380D01*
G04 #@! TO.C,J0*
X107148380Y-108537333D02*
X107862666Y-108537333D01*
X108005523Y-108584952D01*
X108100761Y-108680190D01*
X108148380Y-108823047D01*
X108148380Y-108918285D01*
X107148380Y-107870666D02*
X107148380Y-107775428D01*
X107196000Y-107680190D01*
X107243619Y-107632571D01*
X107338857Y-107584952D01*
X107529333Y-107537333D01*
X107767428Y-107537333D01*
X107957904Y-107584952D01*
X108053142Y-107632571D01*
X108100761Y-107680190D01*
X108148380Y-107775428D01*
X108148380Y-107870666D01*
X108100761Y-107965904D01*
X108053142Y-108013523D01*
X107957904Y-108061142D01*
X107767428Y-108108761D01*
X107529333Y-108108761D01*
X107338857Y-108061142D01*
X107243619Y-108013523D01*
X107196000Y-107965904D01*
X107148380Y-107870666D01*
X96152380Y-112155238D02*
X95152380Y-112155238D01*
X95866666Y-111821904D01*
X95152380Y-111488571D01*
X96152380Y-111488571D01*
X96152380Y-110583809D02*
X95628571Y-110583809D01*
X95533333Y-110631428D01*
X95485714Y-110726666D01*
X95485714Y-110917142D01*
X95533333Y-111012380D01*
X96104761Y-110583809D02*
X96152380Y-110679047D01*
X96152380Y-110917142D01*
X96104761Y-111012380D01*
X96009523Y-111060000D01*
X95914285Y-111060000D01*
X95819047Y-111012380D01*
X95771428Y-110917142D01*
X95771428Y-110679047D01*
X95723809Y-110583809D01*
X96152380Y-110107619D02*
X95485714Y-110107619D01*
X95152380Y-110107619D02*
X95200000Y-110155238D01*
X95247619Y-110107619D01*
X95200000Y-110060000D01*
X95152380Y-110107619D01*
X95247619Y-110107619D01*
X95485714Y-109631428D02*
X96152380Y-109631428D01*
X95580952Y-109631428D02*
X95533333Y-109583809D01*
X95485714Y-109488571D01*
X95485714Y-109345714D01*
X95533333Y-109250476D01*
X95628571Y-109202857D01*
X96152380Y-109202857D01*
X95628571Y-107631428D02*
X95628571Y-107964761D01*
X96152380Y-107964761D02*
X95152380Y-107964761D01*
X95152380Y-107488571D01*
X96104761Y-106726666D02*
X96152380Y-106821904D01*
X96152380Y-107012380D01*
X96104761Y-107107619D01*
X96009523Y-107155238D01*
X95628571Y-107155238D01*
X95533333Y-107107619D01*
X95485714Y-107012380D01*
X95485714Y-106821904D01*
X95533333Y-106726666D01*
X95628571Y-106679047D01*
X95723809Y-106679047D01*
X95819047Y-107155238D01*
X96104761Y-105869523D02*
X96152380Y-105964761D01*
X96152380Y-106155238D01*
X96104761Y-106250476D01*
X96009523Y-106298095D01*
X95628571Y-106298095D01*
X95533333Y-106250476D01*
X95485714Y-106155238D01*
X95485714Y-105964761D01*
X95533333Y-105869523D01*
X95628571Y-105821904D01*
X95723809Y-105821904D01*
X95819047Y-106298095D01*
X96152380Y-104964761D02*
X95152380Y-104964761D01*
X96104761Y-104964761D02*
X96152380Y-105060000D01*
X96152380Y-105250476D01*
X96104761Y-105345714D01*
X96057142Y-105393333D01*
X95961904Y-105440952D01*
X95676190Y-105440952D01*
X95580952Y-105393333D01*
X95533333Y-105345714D01*
X95485714Y-105250476D01*
X95485714Y-105060000D01*
X95533333Y-104964761D01*
G04 #@! TO.C,J1*
X181022666Y-96988380D02*
X181022666Y-97702666D01*
X180975047Y-97845523D01*
X180879809Y-97940761D01*
X180736952Y-97988380D01*
X180641714Y-97988380D01*
X182022666Y-97988380D02*
X181451238Y-97988380D01*
X181736952Y-97988380D02*
X181736952Y-96988380D01*
X181641714Y-97131238D01*
X181546476Y-97226476D01*
X181451238Y-97274095D01*
X178071428Y-85992380D02*
X178071428Y-84992380D01*
X178404761Y-85706666D01*
X178738095Y-84992380D01*
X178738095Y-85992380D01*
X179357142Y-85992380D02*
X179261904Y-85944761D01*
X179214285Y-85897142D01*
X179166666Y-85801904D01*
X179166666Y-85516190D01*
X179214285Y-85420952D01*
X179261904Y-85373333D01*
X179357142Y-85325714D01*
X179500000Y-85325714D01*
X179595238Y-85373333D01*
X179642857Y-85420952D01*
X179690476Y-85516190D01*
X179690476Y-85801904D01*
X179642857Y-85897142D01*
X179595238Y-85944761D01*
X179500000Y-85992380D01*
X179357142Y-85992380D01*
X179976190Y-85325714D02*
X180357142Y-85325714D01*
X180119047Y-84992380D02*
X180119047Y-85849523D01*
X180166666Y-85944761D01*
X180261904Y-85992380D01*
X180357142Y-85992380D01*
X180833333Y-85992380D02*
X180738095Y-85944761D01*
X180690476Y-85897142D01*
X180642857Y-85801904D01*
X180642857Y-85516190D01*
X180690476Y-85420952D01*
X180738095Y-85373333D01*
X180833333Y-85325714D01*
X180976190Y-85325714D01*
X181071428Y-85373333D01*
X181119047Y-85420952D01*
X181166666Y-85516190D01*
X181166666Y-85801904D01*
X181119047Y-85897142D01*
X181071428Y-85944761D01*
X180976190Y-85992380D01*
X180833333Y-85992380D01*
X181595238Y-85992380D02*
X181595238Y-85325714D01*
X181595238Y-85516190D02*
X181642857Y-85420952D01*
X181690476Y-85373333D01*
X181785714Y-85325714D01*
X181880952Y-85325714D01*
X182214285Y-85611428D02*
X182976190Y-85611428D01*
X183976190Y-85992380D02*
X183404761Y-85992380D01*
X183690476Y-85992380D02*
X183690476Y-84992380D01*
X183595238Y-85135238D01*
X183500000Y-85230476D01*
X183404761Y-85278095D01*
G04 #@! TO.C,J2*
X181022666Y-130008380D02*
X181022666Y-130722666D01*
X180975047Y-130865523D01*
X180879809Y-130960761D01*
X180736952Y-131008380D01*
X180641714Y-131008380D01*
X181451238Y-130103619D02*
X181498857Y-130056000D01*
X181594095Y-130008380D01*
X181832190Y-130008380D01*
X181927428Y-130056000D01*
X181975047Y-130103619D01*
X182022666Y-130198857D01*
X182022666Y-130294095D01*
X181975047Y-130436952D01*
X181403619Y-131008380D01*
X182022666Y-131008380D01*
X178071428Y-119012380D02*
X178071428Y-118012380D01*
X178404761Y-118726666D01*
X178738095Y-118012380D01*
X178738095Y-119012380D01*
X179357142Y-119012380D02*
X179261904Y-118964761D01*
X179214285Y-118917142D01*
X179166666Y-118821904D01*
X179166666Y-118536190D01*
X179214285Y-118440952D01*
X179261904Y-118393333D01*
X179357142Y-118345714D01*
X179500000Y-118345714D01*
X179595238Y-118393333D01*
X179642857Y-118440952D01*
X179690476Y-118536190D01*
X179690476Y-118821904D01*
X179642857Y-118917142D01*
X179595238Y-118964761D01*
X179500000Y-119012380D01*
X179357142Y-119012380D01*
X179976190Y-118345714D02*
X180357142Y-118345714D01*
X180119047Y-118012380D02*
X180119047Y-118869523D01*
X180166666Y-118964761D01*
X180261904Y-119012380D01*
X180357142Y-119012380D01*
X180833333Y-119012380D02*
X180738095Y-118964761D01*
X180690476Y-118917142D01*
X180642857Y-118821904D01*
X180642857Y-118536190D01*
X180690476Y-118440952D01*
X180738095Y-118393333D01*
X180833333Y-118345714D01*
X180976190Y-118345714D01*
X181071428Y-118393333D01*
X181119047Y-118440952D01*
X181166666Y-118536190D01*
X181166666Y-118821904D01*
X181119047Y-118917142D01*
X181071428Y-118964761D01*
X180976190Y-119012380D01*
X180833333Y-119012380D01*
X181595238Y-119012380D02*
X181595238Y-118345714D01*
X181595238Y-118536190D02*
X181642857Y-118440952D01*
X181690476Y-118393333D01*
X181785714Y-118345714D01*
X181880952Y-118345714D01*
X182214285Y-118631428D02*
X182976190Y-118631428D01*
X183404761Y-118107619D02*
X183452380Y-118060000D01*
X183547619Y-118012380D01*
X183785714Y-118012380D01*
X183880952Y-118060000D01*
X183928571Y-118107619D01*
X183976190Y-118202857D01*
X183976190Y-118298095D01*
X183928571Y-118440952D01*
X183357142Y-119012380D01*
X183976190Y-119012380D01*
G04 #@! TO.C,J3*
X181022666Y-113498380D02*
X181022666Y-114212666D01*
X180975047Y-114355523D01*
X180879809Y-114450761D01*
X180736952Y-114498380D01*
X180641714Y-114498380D01*
X181403619Y-113498380D02*
X182022666Y-113498380D01*
X181689333Y-113879333D01*
X181832190Y-113879333D01*
X181927428Y-113926952D01*
X181975047Y-113974571D01*
X182022666Y-114069809D01*
X182022666Y-114307904D01*
X181975047Y-114403142D01*
X181927428Y-114450761D01*
X181832190Y-114498380D01*
X181546476Y-114498380D01*
X181451238Y-114450761D01*
X181403619Y-114403142D01*
X176190476Y-102502380D02*
X176190476Y-101502380D01*
X176523809Y-102216666D01*
X176857142Y-101502380D01*
X176857142Y-102502380D01*
X177476190Y-102502380D02*
X177380952Y-102454761D01*
X177333333Y-102407142D01*
X177285714Y-102311904D01*
X177285714Y-102026190D01*
X177333333Y-101930952D01*
X177380952Y-101883333D01*
X177476190Y-101835714D01*
X177619047Y-101835714D01*
X177714285Y-101883333D01*
X177761904Y-101930952D01*
X177809523Y-102026190D01*
X177809523Y-102311904D01*
X177761904Y-102407142D01*
X177714285Y-102454761D01*
X177619047Y-102502380D01*
X177476190Y-102502380D01*
X178095238Y-101835714D02*
X178476190Y-101835714D01*
X178238095Y-101502380D02*
X178238095Y-102359523D01*
X178285714Y-102454761D01*
X178380952Y-102502380D01*
X178476190Y-102502380D01*
X178809523Y-102502380D02*
X178809523Y-101502380D01*
X179238095Y-102502380D02*
X179238095Y-101978571D01*
X179190476Y-101883333D01*
X179095238Y-101835714D01*
X178952380Y-101835714D01*
X178857142Y-101883333D01*
X178809523Y-101930952D01*
X180095238Y-102454761D02*
X180000000Y-102502380D01*
X179809523Y-102502380D01*
X179714285Y-102454761D01*
X179666666Y-102359523D01*
X179666666Y-101978571D01*
X179714285Y-101883333D01*
X179809523Y-101835714D01*
X180000000Y-101835714D01*
X180095238Y-101883333D01*
X180142857Y-101978571D01*
X180142857Y-102073809D01*
X179666666Y-102169047D01*
X180571428Y-102502380D02*
X180571428Y-101835714D01*
X180571428Y-102026190D02*
X180619047Y-101930952D01*
X180666666Y-101883333D01*
X180761904Y-101835714D01*
X180857142Y-101835714D01*
X182285714Y-101978571D02*
X182428571Y-102026190D01*
X182476190Y-102073809D01*
X182523809Y-102169047D01*
X182523809Y-102311904D01*
X182476190Y-102407142D01*
X182428571Y-102454761D01*
X182333333Y-102502380D01*
X181952380Y-102502380D01*
X181952380Y-101502380D01*
X182285714Y-101502380D01*
X182380952Y-101550000D01*
X182428571Y-101597619D01*
X182476190Y-101692857D01*
X182476190Y-101788095D01*
X182428571Y-101883333D01*
X182380952Y-101930952D01*
X182285714Y-101978571D01*
X181952380Y-101978571D01*
X183095238Y-102502380D02*
X183000000Y-102454761D01*
X182952380Y-102407142D01*
X182904761Y-102311904D01*
X182904761Y-102026190D01*
X182952380Y-101930952D01*
X183000000Y-101883333D01*
X183095238Y-101835714D01*
X183238095Y-101835714D01*
X183333333Y-101883333D01*
X183380952Y-101930952D01*
X183428571Y-102026190D01*
X183428571Y-102311904D01*
X183380952Y-102407142D01*
X183333333Y-102454761D01*
X183238095Y-102502380D01*
X183095238Y-102502380D01*
X184285714Y-102502380D02*
X184285714Y-101978571D01*
X184238095Y-101883333D01*
X184142857Y-101835714D01*
X183952380Y-101835714D01*
X183857142Y-101883333D01*
X184285714Y-102454761D02*
X184190476Y-102502380D01*
X183952380Y-102502380D01*
X183857142Y-102454761D01*
X183809523Y-102359523D01*
X183809523Y-102264285D01*
X183857142Y-102169047D01*
X183952380Y-102121428D01*
X184190476Y-102121428D01*
X184285714Y-102073809D01*
X184761904Y-102502380D02*
X184761904Y-101835714D01*
X184761904Y-102026190D02*
X184809523Y-101930952D01*
X184857142Y-101883333D01*
X184952380Y-101835714D01*
X185047619Y-101835714D01*
X185809523Y-102502380D02*
X185809523Y-101502380D01*
X185809523Y-102454761D02*
X185714285Y-102502380D01*
X185523809Y-102502380D01*
X185428571Y-102454761D01*
X185380952Y-102407142D01*
X185333333Y-102311904D01*
X185333333Y-102026190D01*
X185380952Y-101930952D01*
X185428571Y-101883333D01*
X185523809Y-101835714D01*
X185714285Y-101835714D01*
X185809523Y-101883333D01*
G04 #@! TD*
M02*
