G04 #@! TF.GenerationSoftware,KiCad,Pcbnew,(5.0.0)*
G04 #@! TF.CreationDate,2018-11-06T14:57:09-07:00*
G04 #@! TF.ProjectId,PDU-Board,5044552D426F6172642E6B696361645F,rev?*
G04 #@! TF.SameCoordinates,Original*
G04 #@! TF.FileFunction,Copper,L2,Bot,Signal*
G04 #@! TF.FilePolarity,Positive*
%FSLAX46Y46*%
G04 Gerber Fmt 4.6, Leading zero omitted, Abs format (unit mm)*
G04 Created by KiCad (PCBNEW (5.0.0)) date 11/06/18 14:57:09*
%MOMM*%
%LPD*%
G01*
G04 APERTURE LIST*
G04 #@! TA.AperFunction,ComponentPad*
%ADD10C,6.000000*%
G04 #@! TD*
G04 #@! TA.AperFunction,ComponentPad*
%ADD11C,3.000000*%
G04 #@! TD*
G04 #@! TA.AperFunction,ComponentPad*
%ADD12C,5.000000*%
G04 #@! TD*
G04 #@! TA.AperFunction,Conductor*
%ADD13C,7.000000*%
G04 #@! TD*
G04 #@! TA.AperFunction,Conductor*
%ADD14C,5.000000*%
G04 #@! TD*
G04 APERTURE END LIST*
D10*
G04 #@! TO.P,J0,2*
G04 #@! TO.N,48v-Gnd*
X101600000Y-104260000D03*
G04 #@! TO.P,J0,1*
G04 #@! TO.N,Net-(30A1-Pad1)*
X101600000Y-111760000D03*
G04 #@! TD*
G04 #@! TO.P,J1,1*
G04 #@! TO.N,12v*
X177800000Y-91440000D03*
G04 #@! TO.P,J1,2*
G04 #@! TO.N,12v-Gnd*
X185300000Y-91440000D03*
G04 #@! TD*
G04 #@! TO.P,J2,2*
G04 #@! TO.N,12v-Gnd*
X185300000Y-124460000D03*
G04 #@! TO.P,J2,1*
G04 #@! TO.N,12v*
X177800000Y-124460000D03*
G04 #@! TD*
G04 #@! TO.P,J3,1*
G04 #@! TO.N,12v*
X177800000Y-107950000D03*
G04 #@! TO.P,J3,2*
G04 #@! TO.N,12v-Gnd*
X185300000Y-107950000D03*
G04 #@! TD*
D11*
G04 #@! TO.P,U0,2*
G04 #@! TO.N,48v-Gnd*
X116840000Y-87630000D03*
G04 #@! TO.P,U0,5*
G04 #@! TO.N,12v*
X167640000Y-95250000D03*
G04 #@! TO.P,U0,4*
G04 #@! TO.N,12v-Gnd*
X167640000Y-80010000D03*
G04 #@! TO.P,U0,3*
G04 #@! TO.N,48v-Gnd*
X116840000Y-80010000D03*
G04 #@! TO.P,U0,1*
G04 #@! TO.N,48v*
X116840000Y-95250000D03*
G04 #@! TD*
G04 #@! TO.P,U1,1*
G04 #@! TO.N,48v*
X116840000Y-135890000D03*
G04 #@! TO.P,U1,3*
G04 #@! TO.N,48v-Gnd*
X116840000Y-120650000D03*
G04 #@! TO.P,U1,4*
G04 #@! TO.N,12v-Gnd*
X167640000Y-120650000D03*
G04 #@! TO.P,U1,5*
G04 #@! TO.N,12v*
X167640000Y-135890000D03*
G04 #@! TO.P,U1,2*
G04 #@! TO.N,48v-Gnd*
X116840000Y-128270000D03*
G04 #@! TD*
D12*
G04 #@! TO.P,REF\002A\002A,1*
G04 #@! TO.N,N/C*
X97790000Y-72390000D03*
G04 #@! TD*
G04 #@! TO.P,REF\002A\002A,1*
G04 #@! TO.N,N/C*
X97790000Y-143510000D03*
G04 #@! TD*
G04 #@! TO.P,REF\002A\002A,1*
G04 #@! TO.N,N/C*
X189230000Y-143510000D03*
G04 #@! TD*
G04 #@! TO.P,REF\002A\002A,1*
G04 #@! TO.N,N/C*
X189230000Y-72390000D03*
G04 #@! TD*
D13*
G04 #@! TO.N,12v*
X173990000Y-95250000D02*
X177800000Y-91440000D01*
X167640000Y-95250000D02*
X173990000Y-95250000D01*
X177800000Y-107950000D02*
X177800000Y-91440000D01*
X173990000Y-128270000D02*
X177800000Y-124460000D01*
X156210000Y-121920000D02*
X162560000Y-128270000D01*
X167640000Y-95250000D02*
X156210000Y-95250000D01*
X156210000Y-95250000D02*
X156210000Y-121920000D01*
X167640000Y-128270000D02*
X173990000Y-128270000D01*
X162560000Y-128270000D02*
X167640000Y-128270000D01*
X167640000Y-134620000D02*
X167640000Y-128270000D01*
D14*
G04 #@! TO.N,48v-Gnd*
X116840000Y-87630000D02*
X115570000Y-87630000D01*
X116840000Y-80010000D02*
X114300000Y-80010000D01*
X116840000Y-128270000D02*
X114300000Y-128270000D01*
X116840000Y-120650000D02*
X114718680Y-120650000D01*
X104140000Y-80010000D02*
X114300000Y-80010000D01*
X101600000Y-82550000D02*
X104140000Y-80010000D01*
X116840000Y-87630000D02*
X101600000Y-87630000D01*
X101600000Y-104260000D02*
X101600000Y-87630000D01*
X101600000Y-87630000D02*
X101600000Y-82550000D01*
X109220000Y-128270000D02*
X116840000Y-128270000D01*
X101600000Y-104260000D02*
X105842640Y-104260000D01*
X105842640Y-104260000D02*
X109220000Y-107637360D01*
X116840000Y-120650000D02*
X109220000Y-120650000D01*
X109220000Y-107637360D02*
X109220000Y-120650000D01*
X109220000Y-120650000D02*
X109220000Y-128270000D01*
G04 #@! TD*
M02*
