G04 #@! TF.GenerationSoftware,KiCad,Pcbnew,(5.0.0)*
G04 #@! TF.CreationDate,2018-11-06T14:57:09-07:00*
G04 #@! TF.ProjectId,PDU-Board,5044552D426F6172642E6B696361645F,rev?*
G04 #@! TF.SameCoordinates,Original*
G04 #@! TF.FileFunction,Legend,Bot*
G04 #@! TF.FilePolarity,Positive*
%FSLAX46Y46*%
G04 Gerber Fmt 4.6, Leading zero omitted, Abs format (unit mm)*
G04 Created by KiCad (PCBNEW (5.0.0)) date 11/06/18 14:57:09*
%MOMM*%
%LPD*%
G01*
G04 APERTURE LIST*
%ADD10C,0.150000*%
G04 APERTURE END LIST*
D10*
G04 #@! TO.C,U0*
X114300000Y-74930000D02*
X114300000Y-100330000D01*
X171450000Y-74930000D02*
X114300000Y-74930000D01*
X171450000Y-100330000D02*
X171450000Y-74930000D01*
X114300000Y-100330000D02*
X171450000Y-100330000D01*
G04 #@! TO.C,U1*
X114300000Y-140970000D02*
X171450000Y-140970000D01*
X171450000Y-140970000D02*
X171450000Y-115570000D01*
X171450000Y-115570000D02*
X114300000Y-115570000D01*
X114300000Y-115570000D02*
X114300000Y-140970000D01*
G04 #@! TO.C,U0*
X169671904Y-73112380D02*
X169671904Y-73921904D01*
X169624285Y-74017142D01*
X169576666Y-74064761D01*
X169481428Y-74112380D01*
X169290952Y-74112380D01*
X169195714Y-74064761D01*
X169148095Y-74017142D01*
X169100476Y-73921904D01*
X169100476Y-73112380D01*
X168433809Y-73112380D02*
X168338571Y-73112380D01*
X168243333Y-73160000D01*
X168195714Y-73207619D01*
X168148095Y-73302857D01*
X168100476Y-73493333D01*
X168100476Y-73731428D01*
X168148095Y-73921904D01*
X168195714Y-74017142D01*
X168243333Y-74064761D01*
X168338571Y-74112380D01*
X168433809Y-74112380D01*
X168529047Y-74064761D01*
X168576666Y-74017142D01*
X168624285Y-73921904D01*
X168671904Y-73731428D01*
X168671904Y-73493333D01*
X168624285Y-73302857D01*
X168576666Y-73207619D01*
X168529047Y-73160000D01*
X168433809Y-73112380D01*
G04 #@! TO.C,U1*
X169671904Y-113752380D02*
X169671904Y-114561904D01*
X169624285Y-114657142D01*
X169576666Y-114704761D01*
X169481428Y-114752380D01*
X169290952Y-114752380D01*
X169195714Y-114704761D01*
X169148095Y-114657142D01*
X169100476Y-114561904D01*
X169100476Y-113752380D01*
X168100476Y-114752380D02*
X168671904Y-114752380D01*
X168386190Y-114752380D02*
X168386190Y-113752380D01*
X168481428Y-113895238D01*
X168576666Y-113990476D01*
X168671904Y-114038095D01*
G04 #@! TD*
M02*
