M48
;DRILL file {KiCad (5.0.0)} date 11/06/18 14:57:30
;FORMAT={-:-/ absolute / metric / decimal}
FMAT,2
METRIC,TZ
T1C2.030
T2C2.540
T3C3.000
T4C4.500
%
G90
G05
M71
T1
X116.84Y-120.65
X116.84Y-128.27
X116.84Y-135.89
X116.84Y-80.01
X116.84Y-87.63
X116.84Y-95.25
T2
X167.64Y-120.65
X167.64Y-135.89
X167.64Y-80.01
X167.64Y-95.25
T3
X97.79Y-72.39
X189.23Y-72.39
X189.23Y-143.51
X97.79Y-143.51
T4
X177.8Y-107.95
X185.3Y-107.95
X101.6Y-104.26
X101.6Y-111.76
X177.8Y-124.46
X185.3Y-124.46
X177.8Y-91.44
X185.3Y-91.44
T0
M30
